<svg width="32" height="32" viewBox="0 0 32 32" fill="none" xmlns="http://www.w3.org/2000/svg">
<g clip-path="url(#clip0)">
<path d="M21.666 16.958L13.3535 10.2295L10.541 10.375L6.83196 11.6665L3.37402 14.375L0.916016 17.5L3.87396 18.542L7.12397 19.4365L13.124 25.917L14.791 30.958L18.957 27.542L21.166 23.875L22.082 19.167L21.666 16.958Z" fill="#FF8662"/>
<path d="M22.1868 2.93726L14.718 8.03102L10.4055 12.781L5.18677 21.9373L10.1243 27.0935L21.9368 19.7185L29.1556 9.31227L22.1868 2.93726Z" fill="#F5F5FF"/>
<path d="M15.772 17.8325C15.772 18.7183 15.0542 19.436 14.1685 19.436C13.2817 19.436 12.564 18.7183 12.564 17.8325C12.564 16.9468 13.2817 16.2285 14.1685 16.2285C15.0542 16.2285 15.772 16.9468 15.772 17.8325Z" fill="#F5F5FF"/>
<path d="M21.4282 12.1755C21.4282 13.0613 20.7105 13.7795 19.8247 13.7795C18.938 13.7795 18.2202 13.0613 18.2202 12.1755C18.2202 11.2898 18.938 10.5715 19.8247 10.5715C20.7104 10.5715 21.4282 11.2898 21.4282 12.1755Z" fill="#F5F5FF"/>
<path d="M22.9988 2.95826L25.3738 5.91627L29.6658 8.87477L30.2908 6.79127L31.4568 0.624756L22.9988 2.95826Z" fill="#FF8662"/>
<path d="M6.91622 23.5825H5.18671L3.37427 25.4575L1.12427 31.1665L6.45722 28.9165L8.87422 26.4575L6.91622 23.5825Z" fill="#FF8662"/>
<path d="M31.9992 0.711885C32.008 0.531697 31.9435 0.332947 31.8058 0.194822C31.6672 0.0571339 31.4689 -0.0073037 31.2883 0.000946318C25.2492 0.246072 18.1691 3.53808 12.297 9.3999C9.00504 9.60403 5.48447 11.1787 2.64759 14.0157C1.64172 15.021 0.796027 16.1124 0.112401 17.249C0.106526 17.2569 0.0801505 17.3008 0.0801505 17.3008C-0.0565998 17.5537 -0.0184747 17.876 0.195401 18.0889C0.265713 18.1611 0.348714 18.2119 0.437589 18.2432C0.437589 18.2432 0.506901 18.2666 0.538151 18.2725L5.12897 19.5518C4.79691 20.2764 4.4981 21.0011 4.23641 21.7217C4.15635 21.9561 4.2081 22.2247 4.3946 22.4112L4.94929 22.9658C4.53035 23.1465 4.13485 23.4092 3.78816 23.7559C2.41716 25.1269 0.137901 31.9999 0.137901 31.9999C0.137901 31.9999 7.01091 29.7206 8.38204 28.3496C8.72873 28.0029 8.99142 27.6074 9.17304 27.1884L9.58904 27.6054C9.77555 27.7919 10.0451 27.8447 10.2785 27.7636C10.9992 27.5019 11.7238 27.2041 12.4494 26.8711L13.7277 31.4619C13.7345 31.4931 13.757 31.5624 13.757 31.5624C13.7892 31.6513 13.84 31.7333 13.9113 31.8046C14.1242 32.0185 14.4465 32.0566 14.6994 31.9199C14.6994 31.9199 14.7433 31.8935 14.7521 31.8876C15.8879 31.204 16.9797 30.3583 17.9846 29.3524C20.8215 26.5155 22.3967 22.995 22.6008 19.703C28.4621 13.8305 31.7541 6.75096 31.9992 0.711885ZM28.9289 8.08103L23.9191 3.07176C26.2063 2.12939 28.4836 1.5542 30.6223 1.37789C30.4465 3.51702 29.8713 5.7939 28.9289 8.08103ZM1.71503 17.2158C2.25997 16.417 2.88691 15.6616 3.59003 14.9585C4.77753 13.7715 6.10954 12.8032 7.54898 12.082C8.63004 11.54 9.73548 11.1553 10.8439 10.9331C8.73648 13.2852 7.01773 15.7998 5.72085 18.331L1.71503 17.2158ZM7.4396 27.4072C7.32923 27.5166 6.61148 28.1318 3.26972 29.4433C2.95234 29.5683 2.63791 29.6884 2.33709 29.8017C2.44841 29.5029 2.56759 29.1933 2.69059 28.8788C4.00503 25.5282 4.62122 24.8095 4.7316 24.6981C5.09291 24.3377 5.54116 24.1063 6.01479 24.0311L8.1066 26.1239C8.03335 26.581 7.80973 27.0361 7.4396 27.4072ZM10.2277 26.3593L5.64079 21.7724C5.88591 21.1259 6.16035 20.4794 6.46404 19.833C7.23748 18.1865 8.19254 16.5566 9.30392 14.9897C10.4514 13.3696 11.7668 11.8149 13.2131 10.3686C14.6594 8.92278 16.2141 7.60684 17.8342 6.4589C19.3801 5.36271 20.9875 4.41839 22.6125 3.65027L28.3498 9.38809C27.5823 11.0126 26.6379 12.6195 25.5412 14.1659C24.3938 15.786 23.0773 17.3407 21.632 18.787C20.1857 20.2334 18.6301 21.5488 17.0109 22.6962C15.4434 23.8075 13.8136 24.7626 12.1671 25.5361C11.5207 25.8407 10.8742 26.1142 10.2277 26.3593ZM17.0422 28.4091C16.3391 29.1123 15.5832 29.7402 14.7844 30.2841L13.6691 26.2792C16.2004 24.9824 18.7151 23.2636 21.0676 21.1562C20.8449 22.2646 20.4611 23.3701 19.9191 24.4511C19.1974 25.8906 18.2297 27.2226 17.0422 28.4091Z" fill="#9A95F3"/>
<path d="M19.8247 14.8425C20.5367 14.8425 21.2065 14.5652 21.7105 14.0618C22.7495 13.0217 22.7495 11.3298 21.7105 10.2903C21.2065 9.78685 20.5367 9.50903 19.8247 9.50903C19.1118 9.50903 18.4429 9.78685 17.939 10.2903C17.435 10.7942 17.1577 11.4636 17.1577 12.176C17.1577 12.8885 17.4351 13.5579 17.939 14.0618C18.4429 14.5652 19.1118 14.8425 19.8247 14.8425ZM18.8814 11.2332C19.1333 10.9812 19.4683 10.8425 19.8248 10.8425C20.1803 10.8425 20.5152 10.9812 20.7672 11.2332C21.2867 11.7532 21.2867 12.5989 20.7672 13.1189C20.5152 13.3709 20.1802 13.5095 19.8248 13.5095C19.4683 13.5095 19.1333 13.3709 18.8814 13.1189C18.6295 12.867 18.4908 12.532 18.4908 12.176C18.4908 11.8201 18.6294 11.4852 18.8814 11.2332Z" fill="#9A95F3"/>
<path d="M14.167 15.1665C13.4541 15.1665 12.7852 15.4439 12.2813 15.9478C11.7773 16.4512 11.5 17.1211 11.5 17.833C11.5 18.5459 11.7774 19.2158 12.2813 19.7188C12.7852 20.2227 13.4541 20.5 14.167 20.5C14.8789 20.5 15.5488 20.2226 16.0528 19.7188C16.5567 19.2158 16.834 18.5459 16.834 17.833C16.834 17.1211 16.5566 16.4512 16.0528 15.9478C15.5489 15.4439 14.8789 15.1665 14.167 15.1665ZM15.1094 18.7764C14.8584 19.0283 14.5234 19.167 14.167 19.167C13.8106 19.167 13.4756 19.0283 13.2236 18.7764C12.9726 18.5244 12.834 18.1894 12.834 17.833C12.834 17.4775 12.9727 17.1416 13.2236 16.8896C13.4756 16.6386 13.8106 16.5 14.167 16.5C14.5234 16.5 14.8584 16.6387 15.1094 16.8906C15.3613 17.1416 15.5 17.4776 15.5 17.833C15.5 18.1894 15.3614 18.5244 15.1094 18.7764Z" fill="#9A95F3"/>
</g>
<defs>
<clipPath id="clip0">
<rect width="32" height="32" fill="white"/>
</clipPath>
</defs>
</svg>
