<svg width="30" height="36" viewBox="0 0 30 36" fill="none" xmlns="http://www.w3.org/2000/svg">
<path d="M29.3687 28.062C28.8454 29.2811 28.2035 30.4447 27.4524 31.5356C26.7438 32.6317 25.9158 33.644 24.9838 34.5536C24.1397 35.4078 23.0097 35.9116 21.8162 35.9658C20.8041 35.9182 19.8099 35.6786 18.8854 35.2597C17.8874 34.8236 16.8161 34.5839 15.7291 34.5536C14.6125 34.5796 13.5109 34.8192 12.4827 35.2597C11.5978 35.6612 10.6531 35.9113 9.6871 36C9.0773 35.9933 8.4752 35.8616 7.9172 35.613C7.3591 35.3644 6.8568 35.004 6.4407 34.5536C5.4686 33.6131 4.6028 32.5665 3.8593 31.4331C2.69697 29.7555 1.77834 27.9185 1.13135 25.9779C0.398329 23.8812 0.0173292 21.6756 0.00410924 19.4521C-0.0527408 17.2685 0.48121 15.1107 1.54843 13.211C2.32289 11.8384 3.4329 10.6895 4.7723 9.8741C6.1042 9.0755 7.62 8.64353 9.1686 8.62132C10.3318 8.6957 11.4746 8.96512 12.5503 9.4185C13.4063 9.8014 14.3083 10.0694 15.2331 10.2158C16.2573 10.0065 17.2581 9.6936 18.2203 9.2819C19.5079 8.75551 20.8902 8.50723 22.2784 8.55299C23.6031 8.58418 24.9027 8.92419 26.076 9.5465C27.2492 10.1688 28.2642 11.0565 29.0418 12.1405C27.8176 12.7958 26.7974 13.7816 26.0949 14.988C25.3923 16.1945 25.035 17.5743 25.0627 18.9737C25.0527 20.0452 25.2675 21.1067 25.6931 22.0882C26.1186 23.0697 26.7451 23.949 27.5313 24.6681C28.248 25.36 29.0849 25.9121 30 26.2967C29.7971 26.9687 29.5942 27.5267 29.3687 28.062ZM22.4926 0.72888C22.4671 2.59003 21.7742 4.37864 20.5424 5.76273C19.9091 6.63441 19.0779 7.33971 18.1187 7.81931C17.1595 8.29892 16.1003 8.53881 15.0302 8.51882C15.0183 8.29121 15.0183 8.06311 15.0302 7.8355C15.077 5.94692 15.7976 4.13902 17.0593 2.7447C17.7578 1.93885 18.6136 1.28747 19.573 0.83138C20.4712 0.3646 21.452 0.08204 22.4588 0C22.4588 0.25055 22.4588 0.48972 22.4588 0.72888H22.4926Z" fill="#6A6F73"/>
</svg>
