<svg width="49" height="29" viewBox="0 0 49 29" fill="none" xmlns="http://www.w3.org/2000/svg">
<g clip-path="url(#clip0)">
<path d="M13.9677 10.5323C13.9677 11.129 14.0316 11.6129 14.1433 11.9677C14.2711 12.3226 14.4308 12.7097 14.6544 13.129C14.7342 13.2581 14.7662 13.3871 14.7662 13.5C14.7662 13.6613 14.6703 13.8226 14.4627 13.9839L13.4566 14.6613C13.3129 14.7581 13.1692 14.8065 13.0414 14.8065C12.8817 14.8065 12.722 14.7258 12.5623 14.5806C12.3387 14.3387 12.1471 14.0806 11.9874 13.8226C11.8277 13.5484 11.668 13.2419 11.4923 12.871C10.2467 14.3548 8.68161 15.0968 6.79716 15.0968C5.45568 15.0968 4.38569 14.7097 3.60316 13.9355C2.82064 13.1613 2.42139 12.129 2.42139 10.8387C2.42139 9.46774 2.90049 8.35484 3.87465 7.51613C4.84882 6.67742 6.14239 6.25807 7.78729 6.25807C8.33027 6.25807 8.88922 6.30645 9.48011 6.3871C10.071 6.46774 10.6779 6.59678 11.3167 6.74194V5.56452C11.3167 4.33871 11.0611 3.48387 10.5661 2.98387C10.055 2.48387 9.19265 2.24194 7.96296 2.24194C7.40401 2.24194 6.8291 2.30645 6.23821 2.45161C5.64732 2.59677 5.0724 2.77419 4.51345 3C4.25793 3.1129 4.06629 3.17742 3.9545 3.20968C3.84271 3.24194 3.76286 3.25807 3.69898 3.25807C3.4754 3.25807 3.36361 3.09678 3.36361 2.75807V1.96774C3.36361 1.70968 3.39555 1.51613 3.4754 1.40323C3.55525 1.29032 3.69898 1.17742 3.92256 1.06452C4.48151 0.774194 5.15225 0.532258 5.93478 0.33871C6.71731 0.129032 7.54774 0.0322581 8.42609 0.0322581C10.3265 0.0322581 11.7159 0.467742 12.6102 1.33871C13.4886 2.20968 13.9357 3.53226 13.9357 5.30645V10.5323H13.9677ZM7.48386 12.9839C8.01087 12.9839 8.55385 12.8871 9.12877 12.6936C9.70369 12.5 10.2147 12.1452 10.6459 11.6613C10.9014 11.3548 11.0931 11.0161 11.1889 10.629C11.2847 10.2419 11.3486 9.7742 11.3486 9.22581V8.54839C10.8855 8.43549 10.3904 8.33871 9.87936 8.2742C9.36832 8.20968 8.87325 8.17742 8.37818 8.17742C7.3082 8.17742 6.52567 8.3871 5.99866 8.82258C5.47165 9.25807 5.21613 9.87097 5.21613 10.6774C5.21613 11.4355 5.40777 12 5.80702 12.3871C6.1903 12.7903 6.74925 12.9839 7.48386 12.9839ZM20.3077 14.7258C20.0203 14.7258 19.8286 14.6774 19.7009 14.5645C19.5731 14.4677 19.4613 14.2419 19.3655 13.9355L15.6126 1.46774C15.5168 1.14516 15.4688 0.935484 15.4688 0.822581C15.4688 0.564516 15.5966 0.419355 15.8521 0.419355H17.4172C17.7206 0.419355 17.9282 0.467742 18.04 0.580645C18.1678 0.677419 18.2636 0.903226 18.3594 1.20968L21.0424 11.8871L23.5337 1.20968C23.6135 0.887097 23.7093 0.677419 23.8371 0.580645C23.9649 0.483871 24.1884 0.419355 24.4759 0.419355H25.7535C26.0569 0.419355 26.2645 0.467742 26.3923 0.580645C26.5201 0.677419 26.6319 0.903226 26.6957 1.20968L29.219 12.0161L31.9818 1.20968C32.0776 0.887097 32.1894 0.677419 32.3012 0.580645C32.4289 0.483871 32.6366 0.419355 32.924 0.419355H34.4092C34.6647 0.419355 34.8085 0.548387 34.8085 0.822581C34.8085 0.903226 34.7925 0.983871 34.7765 1.08065C34.7606 1.17742 34.7286 1.30645 34.6647 1.48387L30.816 13.9516C30.7202 14.2742 30.6084 14.4839 30.4806 14.5806C30.3529 14.6774 30.1452 14.7419 29.8738 14.7419H28.5003C28.1969 14.7419 27.9893 14.6936 27.8615 14.5806C27.7338 14.4677 27.622 14.2581 27.5581 13.9355L25.0828 3.53226L22.6234 13.9194C22.5435 14.2419 22.4477 14.4516 22.32 14.5645C22.1922 14.6774 21.9686 14.7258 21.6812 14.7258H20.3077ZM40.8291 15.1613C39.9987 15.1613 39.1683 15.0645 38.3698 14.871C37.5713 14.6774 36.9484 14.4677 36.5332 14.2258C36.2777 14.0806 36.102 13.9194 36.0382 13.7742C35.9743 13.629 35.9423 13.4677 35.9423 13.3226V12.5C35.9423 12.1613 36.0701 12 36.3096 12C36.4055 12 36.5013 12.0161 36.5971 12.0484C36.6929 12.0806 36.8367 12.1452 36.9964 12.2097C37.5393 12.4516 38.1302 12.6452 38.7531 12.7742C39.3919 12.9032 40.0147 12.9677 40.6535 12.9677C41.6596 12.9677 42.4421 12.7903 42.9851 12.4355C43.5281 12.0806 43.8155 11.5645 43.8155 10.9032C43.8155 10.4516 43.6718 10.0806 43.3843 9.7742C43.0969 9.46774 42.5539 9.19355 41.7714 8.93549L39.4557 8.20968C38.2899 7.83871 37.4275 7.29032 36.9005 6.56452C36.3735 5.85484 36.102 5.06452 36.102 4.22581C36.102 3.54839 36.2458 2.95161 36.5332 2.43548C36.8207 1.91936 37.204 1.46774 37.6831 1.1129C38.1622 0.741936 38.7051 0.467742 39.3439 0.274194C39.9827 0.0806452 40.6535 0 41.3562 0C41.7075 0 42.0748 0.016129 42.4261 0.0645161C42.7935 0.112903 43.1288 0.177419 43.4642 0.241936C43.7836 0.322581 44.087 0.403226 44.3745 0.5C44.6619 0.596774 44.8855 0.693549 45.0452 0.790323C45.2688 0.919355 45.4285 1.04839 45.5243 1.19355C45.6201 1.32258 45.668 1.5 45.668 1.72581V2.48387C45.668 2.82258 45.5403 3 45.3007 3C45.173 3 44.9654 2.93548 44.6939 2.80645C43.7836 2.3871 42.7615 2.17742 41.6276 2.17742C40.7174 2.17742 39.9987 2.32258 39.5036 2.62903C39.0086 2.93548 38.7531 3.40323 38.7531 4.06452C38.7531 4.51613 38.9128 4.90323 39.2322 5.20968C39.5516 5.51613 40.1424 5.82258 40.9888 6.09678L43.2566 6.82258C44.4064 7.19355 45.2369 7.70968 45.7319 8.37097C46.227 9.03226 46.4665 9.79033 46.4665 10.629C46.4665 11.3226 46.3228 11.9516 46.0513 12.5C45.7639 13.0484 45.3806 13.5323 44.8855 13.9194C44.3904 14.3226 43.7996 14.6129 43.1129 14.8226C42.3942 15.0484 41.6436 15.1613 40.8291 15.1613Z" fill="#F5F5FF"/>
<path fill-rule="evenodd" clip-rule="evenodd" d="M43.8475 23C38.5934 26.9194 30.9598 29 24.3961 29C15.1974 29 6.90899 25.5645 0.648758 19.8548C0.153689 19.4032 0.600848 18.7903 1.19174 19.1452C7.963 23.1129 16.3153 25.5161 24.9551 25.5161C30.7841 25.5161 37.1881 24.2903 43.081 21.7742C43.9593 21.371 44.7099 22.3548 43.8475 23Z" fill="#FF9900"/>
<path fill-rule="evenodd" clip-rule="evenodd" d="M46.0354 20.4839C45.3646 19.6129 41.5957 20.0645 39.8869 20.2742C39.3759 20.3387 39.296 19.8871 39.7592 19.5484C42.7615 17.4194 47.6963 18.0323 48.2712 18.7419C48.8461 19.4678 48.1115 24.4516 45.3008 26.8387C44.8696 27.2097 44.4543 27.0161 44.646 26.5323C45.2848 24.9355 46.7061 21.3387 46.0354 20.4839Z" fill="#FF9900"/>
</g>
<defs>
<clipPath id="clip0">
<rect width="49" height="29" fill="white"/>
</clipPath>
</defs>
</svg>
