<svg width="47" height="28" viewBox="0 0 47 28" fill="none" xmlns="http://www.w3.org/2000/svg">
<g clip-path="url(#clip0_2699:37684)">
<path d="M13.7864 10.3408C13.7864 10.8911 13.8453 11.3374 13.9484 11.6646C14.0662 11.9918 14.2135 12.3488 14.4197 12.7356C14.4933 12.8546 14.5227 12.9736 14.5227 13.0777C14.5227 13.2264 14.4344 13.3752 14.2429 13.5239L13.3151 14.1487C13.1825 14.2379 13.05 14.2825 12.9321 14.2825C12.7849 14.2825 12.6376 14.2082 12.4903 14.0743C12.2841 13.8512 12.1074 13.6132 11.9601 13.3752C11.8128 13.1223 11.6655 12.8397 11.5035 12.4976C10.3548 13.866 8.91143 14.5503 7.17355 14.5503C5.93641 14.5503 4.94964 14.1933 4.22798 13.4793C3.50631 12.7653 3.13811 11.8134 3.13811 10.6234C3.13811 9.35905 3.57995 8.33271 4.47835 7.55923C5.37675 6.78575 6.56971 6.39901 8.08667 6.39901C8.58742 6.39901 9.1029 6.44364 9.64783 6.51801C10.1928 6.59238 10.7524 6.71138 11.3415 6.84525V5.75941C11.3415 4.62894 11.1059 3.84059 10.6493 3.37948C10.178 2.91837 9.38273 2.69525 8.24868 2.69525C7.73321 2.69525 7.203 2.75475 6.65807 2.88862C6.11314 3.02249 5.58294 3.18611 5.06746 3.39435C4.83182 3.49847 4.65508 3.55797 4.55199 3.58772C4.44889 3.61747 4.37525 3.63235 4.31634 3.63235C4.11015 3.63235 4.00706 3.4836 4.00706 3.17123V2.44238C4.00706 2.20439 4.03651 2.02589 4.11015 1.92177C4.18379 1.81765 4.31634 1.71353 4.52253 1.60941C5.03801 1.34166 5.65658 1.11855 6.37824 0.940051C7.09991 0.746682 7.86576 0.657435 8.67579 0.657435C10.4284 0.657435 11.7097 1.05905 12.5345 1.86227C13.3445 2.6655 13.7569 3.88521 13.7569 5.52141V10.3408H13.7864ZM7.80685 12.6017C8.29286 12.6017 8.79361 12.5125 9.32381 12.334C9.85402 12.1555 10.3253 11.8282 10.723 11.382C10.9586 11.0994 11.1353 10.787 11.2237 10.43C11.3121 10.073 11.371 9.64167 11.371 9.13593V8.5112C10.9439 8.40708 10.4873 8.31783 10.016 8.25833C9.54473 8.19883 9.08817 8.16909 8.63161 8.16909C7.64484 8.16909 6.92317 8.36245 6.43715 8.76407C5.95114 9.16568 5.71549 9.73091 5.71549 10.4746C5.71549 11.1737 5.89222 11.6944 6.26042 12.0513C6.61389 12.4232 7.12936 12.6017 7.80685 12.6017ZM19.6333 14.2082C19.3682 14.2082 19.1915 14.1635 19.0737 14.0594C18.9558 13.9702 18.8527 13.7619 18.7644 13.4793L15.3033 1.98127C15.215 1.68378 15.1708 1.49041 15.1708 1.38629C15.1708 1.14829 15.2886 1.01442 15.5242 1.01442H16.9676C17.2474 1.01442 17.4389 1.05905 17.542 1.16317C17.6598 1.25242 17.7481 1.46066 17.8365 1.74328L20.3108 11.5902L22.6083 1.74328C22.682 1.44579 22.7703 1.25242 22.8882 1.16317C23.006 1.07392 23.2122 1.01442 23.4773 1.01442H24.6555C24.9353 1.01442 25.1268 1.05905 25.2446 1.16317C25.3624 1.25242 25.4655 1.46066 25.5245 1.74328L27.8515 11.7092L30.3994 1.74328C30.4877 1.44579 30.5908 1.25242 30.6939 1.16317C30.8118 1.07392 31.0032 1.01442 31.2683 1.01442H32.638C32.8737 1.01442 33.0062 1.13342 33.0062 1.38629C33.0062 1.46066 32.9915 1.53503 32.9767 1.62428C32.962 1.71353 32.9326 1.83252 32.8737 1.99614L29.3242 13.4942C29.2359 13.7917 29.1328 13.985 29.015 14.0743C28.8971 14.1635 28.7057 14.223 28.4553 14.223H27.1887C26.9089 14.223 26.7174 14.1784 26.5996 14.0743C26.4818 13.9702 26.3787 13.7768 26.3198 13.4793L24.0369 3.88521L21.7689 13.4644C21.6952 13.7619 21.6068 13.9553 21.489 14.0594C21.3712 14.1635 21.165 14.2082 20.8999 14.2082H19.6333ZM38.5586 14.6098C37.7928 14.6098 37.0269 14.5205 36.2905 14.342C35.5541 14.1635 34.9797 13.9702 34.5968 13.747C34.3612 13.6132 34.1992 13.4644 34.1403 13.3306C34.0813 13.1967 34.0519 13.0479 34.0519 12.9141V12.1555C34.0519 11.8431 34.1697 11.6944 34.3906 11.6944C34.479 11.6944 34.5674 11.7092 34.6557 11.739C34.7441 11.7687 34.8766 11.8282 35.0239 11.8877C35.5247 12.1108 36.0696 12.2893 36.644 12.4083C37.2331 12.5273 37.8075 12.5868 38.3966 12.5868C39.3245 12.5868 40.0461 12.4232 40.5469 12.096C41.0476 11.7687 41.3127 11.2927 41.3127 10.6829C41.3127 10.2664 41.1802 9.92428 40.9151 9.64167C40.65 9.35905 40.1492 9.10618 39.4276 8.86819L37.292 8.19883C36.2169 7.85672 35.4216 7.35098 34.9356 6.68163C34.4495 6.02715 34.1992 5.2983 34.1992 4.52482C34.1992 3.90009 34.3317 3.34973 34.5968 2.87374C34.8619 2.39776 35.2154 1.98127 35.6572 1.65403C36.0991 1.31192 36.5998 1.05905 37.1889 0.880553C37.778 0.702058 38.3966 0.627686 39.0446 0.627686C39.3686 0.627686 39.7074 0.64256 40.0314 0.687184C40.3701 0.731807 40.6794 0.791306 40.9887 0.850804C41.2833 0.925177 41.5631 0.999549 41.8282 1.0888C42.0933 1.17804 42.2995 1.26729 42.4468 1.35654C42.653 1.47554 42.8002 1.59453 42.8886 1.7284C42.977 1.8474 43.0211 2.01102 43.0211 2.21926V2.91837C43.0211 3.23073 42.9033 3.39435 42.6824 3.39435C42.5646 3.39435 42.3731 3.33485 42.1227 3.21586C41.2833 2.82912 40.3407 2.63575 39.295 2.63575C38.4555 2.63575 37.7928 2.76962 37.3362 3.05224C36.8796 3.33485 36.644 3.76622 36.644 4.37607C36.644 4.79256 36.7913 5.14955 37.0858 5.43217C37.3804 5.71478 37.9253 5.9974 38.7059 6.25027L40.7972 6.91962C41.8576 7.26174 42.6235 7.73772 43.0801 8.34758C43.5366 8.95744 43.7575 9.65654 43.7575 10.43C43.7575 11.0696 43.625 11.6497 43.3746 12.1555C43.1095 12.6612 42.756 13.1074 42.2995 13.4644C41.8429 13.8363 41.298 14.104 40.6647 14.2974C40.0019 14.5056 39.3097 14.6098 38.5586 14.6098Z" fill="#F5F5FF"/>
<path fill-rule="evenodd" clip-rule="evenodd" d="M41.3422 21.839C36.4967 25.4536 29.4568 27.3724 23.4036 27.3724C14.9204 27.3724 7.27662 24.2041 1.5033 18.9385C1.04674 18.522 1.45912 17.9568 2.00405 18.284C8.24866 21.9432 15.9513 24.1595 23.9191 24.1595C29.2948 24.1595 35.2007 23.029 40.6352 20.7086C41.4453 20.3367 42.1375 21.244 41.3422 21.839Z" fill="#FF9900"/>
<path fill-rule="evenodd" clip-rule="evenodd" d="M43.3599 19.5185C42.7413 18.7153 39.2655 19.1317 37.6897 19.3251C37.2184 19.3846 37.1447 18.9681 37.5718 18.6558C40.3407 16.6923 44.8916 17.2576 45.4218 17.912C45.952 18.5814 45.2745 23.1776 42.6824 25.3791C42.2848 25.7212 41.9018 25.5427 42.0786 25.0964C42.6677 23.6239 43.9785 20.3068 43.3599 19.5185Z" fill="#FF9900"/>
</g>
<defs>
<clipPath id="clip0_2699:37684">
<rect width="45.1889" height="26.7444" fill="white" transform="translate(0.905556 0.627686)"/>
</clipPath>
</defs>
</svg>
