<svg width="34" height="32" viewBox="0 0 34 32" fill="none" xmlns="http://www.w3.org/2000/svg">
<path d="M28.6667 6.83329H23.6667V5.16663C23.6667 3.84054 23.1399 2.56877 22.2022 1.63109C21.2646 0.69341 19.9928 0.166626 18.6667 0.166626H15.3334C14.0073 0.166626 12.7355 0.69341 11.7978 1.63109C10.8602 2.56877 10.3334 3.84054 10.3334 5.16663V6.83329H5.33337C4.00729 6.83329 2.73552 7.36008 1.79784 8.29776C0.860158 9.23544 0.333374 10.5072 0.333374 11.8333V26.8333C0.333374 28.1594 0.860158 29.4311 1.79784 30.3688C2.73552 31.3065 4.00729 31.8333 5.33337 31.8333H28.6667C29.9928 31.8333 31.2646 31.3065 32.2022 30.3688C33.1399 29.4311 33.6667 28.1594 33.6667 26.8333V11.8333C33.6667 10.5072 33.1399 9.23544 32.2022 8.29776C31.2646 7.36008 29.9928 6.83329 28.6667 6.83329ZM13.6667 5.16663C13.6667 4.7246 13.8423 4.30068 14.1549 3.98811C14.4674 3.67555 14.8913 3.49996 15.3334 3.49996H18.6667C19.1087 3.49996 19.5327 3.67555 19.8452 3.98811C20.1578 4.30068 20.3334 4.7246 20.3334 5.16663V6.83329H13.6667V5.16663ZM30.3334 26.8333C30.3334 27.2753 30.1578 27.6992 29.8452 28.0118C29.5327 28.3244 29.1087 28.5 28.6667 28.5H5.33337C4.89135 28.5 4.46742 28.3244 4.15486 28.0118C3.8423 27.6992 3.66671 27.2753 3.66671 26.8333V17.6666C7.91047 19.3502 12.4345 20.2154 17 20.2166C21.5654 20.2138 26.0892 19.3486 30.3334 17.6666V26.8333ZM30.3334 14.0166C26.1307 15.8629 21.5904 16.8163 17 16.8163C12.4097 16.8163 7.86938 15.8629 3.66671 14.0166V11.8333C3.66671 11.3913 3.8423 10.9673 4.15486 10.6548C4.46742 10.3422 4.89135 10.1666 5.33337 10.1666H28.6667C29.1087 10.1666 29.5327 10.3422 29.8452 10.6548C30.1578 10.9673 30.3334 11.3913 30.3334 11.8333V14.0166Z" fill="#FF8662"/>
</svg>
