<svg width="32" height="32" viewBox="0 0 32 32" fill="none" xmlns="http://www.w3.org/2000/svg">
<g clip-path="url(#clip0)">
<path d="M6.92138 17.3839C6.67231 17.2805 6.3855 17.3373 6.19469 17.5279L4.00006 19.7239L1.80538 17.5279C1.54538 17.2672 1.12325 17.2667 0.862563 17.5267C0.736876 17.6521 0.666376 17.8224 0.666688 17.9999V31.3332C0.666688 31.7014 0.965188 31.9999 1.33338 31.9999H6.66669C7.03488 31.9999 7.33338 31.7014 7.33338 31.3332V17.9999C7.33338 17.7301 7.17069 17.4869 6.92138 17.3839Z" fill="#9A95F3"/>
<path d="M12.4721 12.1947C12.2118 11.9344 11.7898 11.9344 11.5294 12.1947L8.86275 14.8614C8.73731 14.9864 8.66681 15.1563 8.66675 15.3334V31.3334C8.66675 31.7016 8.96525 32.0001 9.33344 32.0001H14.6667C15.0349 32.0001 15.3334 31.7016 15.3334 31.3334V15.3334C15.3337 15.1564 15.2637 14.9866 15.1387 14.8614L12.4721 12.1947Z" fill="#9A95F3"/>
<path d="M20.4721 9.52795C20.2118 9.2677 19.7898 9.2677 19.5294 9.52795L16.8627 12.1946C16.7373 12.3197 16.6668 12.4895 16.6667 12.6666V31.3333C16.6667 31.7015 16.9652 32 17.3334 32H22.6667C23.0349 32 23.3334 31.7015 23.3334 31.3333V12.6666C23.3337 12.4897 23.2637 12.3199 23.1387 12.1946L20.4721 9.52795Z" fill="#9A95F3"/>
<path d="M31.1388 8.19475L29.8054 6.86144C29.6802 6.7365 29.5104 6.66644 29.3334 6.66675H28.0001C27.8231 6.66644 27.6533 6.73644 27.5281 6.86144L24.8614 9.52812C24.7364 9.65337 24.6664 9.82319 24.6667 10.0001V31.3334C24.6667 31.7016 24.9652 32.0001 25.3334 32.0001H30.6667C31.0349 32.0001 31.3334 31.7016 31.3334 31.3334V8.66675C31.3337 8.48981 31.2637 8.32 31.1388 8.19475Z" fill="#9A95F3"/>
<path d="M30.6667 1.18718e-06H26.6667C26.2985 -0.000686313 25.9995 0.297314 25.9988 0.665501C25.9985 0.843001 26.069 1.01331 26.1947 1.13869L27.724 2.66669L22.6667 7.724L20.472 5.528C20.2117 5.26775 19.7897 5.26775 19.5293 5.528L14.6667 10.3907L12.472 8.19469C12.2117 7.93444 11.7897 7.93444 11.5293 8.19469L4.00004 15.724L1.80535 13.528C1.54054 13.2722 1.11847 13.2796 0.862662 13.5444C0.613162 13.8028 0.613162 14.2123 0.862662 14.4706L3.52935 17.1373C3.78966 17.3976 4.21166 17.3976 4.47204 17.1373L12 9.60931L14.1947 11.804C14.455 12.0643 14.877 12.0643 15.1374 11.804L20 6.94269L22.1947 9.13738C22.455 9.39763 22.877 9.39763 23.1374 9.13738L28.6667 3.60938L30.1947 5.13738C30.3198 5.26281 30.4896 5.33331 30.6667 5.33338C30.7542 5.33356 30.8407 5.31631 30.9214 5.28269C31.1707 5.17963 31.3333 4.9365 31.3334 4.66669V0.666689C31.3333 0.298501 31.0349 1.18718e-06 30.6667 1.18718e-06Z" fill="#FF8662"/>
</g>
<defs>
<clipPath id="clip0">
<rect width="32" height="32" fill="white"/>
</clipPath>
</defs>
</svg>
