<svg width="32" height="26" viewBox="0 0 32 26" fill="none" xmlns="http://www.w3.org/2000/svg">
<path d="M29.75 1H2.25C2.08583 0.999951 1.92327 1.03225 1.77159 1.09505C1.61991 1.15785 1.48209 1.24992 1.36601 1.36601C1.24992 1.48209 1.15785 1.61991 1.09505 1.77159C1.03225 1.92327 0.999951 2.08583 1 2.25V4H31V2.25C31 2.08583 30.9678 1.92327 30.9049 1.77159C30.8421 1.61991 30.7501 1.48209 30.634 1.36601C30.5179 1.24992 30.3801 1.15785 30.2284 1.09505C30.0767 1.03225 29.9142 0.999951 29.75 1Z" fill="#FF8662"/>
<path d="M24.9422 9.37386L16.4572 17.8589L18.5785 19.9801L27.0635 11.4951L28.1241 10.4345L26.0028 8.31323L24.9422 9.37386Z" fill="#FF8662"/>
<path d="M29.75 0.5H2.25C1.78603 0.500513 1.34121 0.685052 1.01313 1.01313C0.685052 1.34121 0.500513 1.78603 0.5 2.25V23.75C0.500513 24.214 0.685052 24.6588 1.01313 24.9869C1.34121 25.3149 1.78603 25.4995 2.25 25.5H29.75C30.214 25.4995 30.6588 25.3149 30.9869 24.9869C31.3149 24.6588 31.4995 24.214 31.5 23.75V2.25C31.4995 1.78603 31.3149 1.34121 30.9869 1.01313C30.6588 0.685052 30.214 0.500513 29.75 0.5ZM30.5 23.75C30.4998 23.9489 30.4208 24.1395 30.2801 24.2801C30.1395 24.4208 29.9489 24.4998 29.75 24.5H2.25C2.05114 24.4998 1.86047 24.4208 1.71985 24.2801C1.57924 24.1395 1.50017 23.9489 1.5 23.75V4.5H30.5V23.75ZM30.5 3.5H1.5V2.25C1.50017 2.05114 1.57924 1.86047 1.71985 1.71985C1.86047 1.57924 2.05114 1.50017 2.25 1.5H29.75C29.9489 1.50017 30.1395 1.57924 30.2801 1.71985C30.4208 1.86047 30.4998 2.05114 30.5 2.25V3.5Z" fill="#9A95F3"/>
<path d="M2.5 3H3C3.13261 3 3.25979 2.94732 3.35355 2.85355C3.44732 2.75979 3.5 2.63261 3.5 2.5C3.5 2.36739 3.44732 2.24021 3.35355 2.14645C3.25979 2.05268 3.13261 2 3 2H2.5C2.36739 2 2.24021 2.05268 2.14645 2.14645C2.05268 2.24021 2 2.36739 2 2.5C2 2.63261 2.05268 2.75979 2.14645 2.85355C2.24021 2.94732 2.36739 3 2.5 3Z" fill="#9A95F3"/>
<path d="M4.5 3H5C5.13261 3 5.25979 2.94732 5.35355 2.85355C5.44732 2.75979 5.5 2.63261 5.5 2.5C5.5 2.36739 5.44732 2.24021 5.35355 2.14645C5.25979 2.05268 5.13261 2 5 2H4.5C4.36739 2 4.24021 2.05268 4.14645 2.14645C4.05268 2.24021 4 2.36739 4 2.5C4 2.63261 4.05268 2.75979 4.14645 2.85355C4.24021 2.94732 4.36739 3 4.5 3Z" fill="#9A95F3"/>
<path d="M6.5 3H7C7.13261 3 7.25979 2.94732 7.35355 2.85355C7.44732 2.75979 7.5 2.63261 7.5 2.5C7.5 2.36739 7.44732 2.24021 7.35355 2.14645C7.25979 2.05268 7.13261 2 7 2H6.5C6.36739 2 6.24021 2.05268 6.14645 2.14645C6.05268 2.24021 6 2.36739 6 2.5C6 2.63261 6.05268 2.75979 6.14645 2.85355C6.24021 2.94732 6.36739 3 6.5 3Z" fill="#9A95F3"/>
<path d="M29.0086 7.78264L28.6549 7.42889C28.3263 7.10138 27.8813 6.91748 27.4174 6.91748C26.9534 6.91748 26.5084 7.10138 26.1799 7.42889L25.6499 7.95952L24.5892 9.02014L16.1036 17.5051C16.0499 17.5592 16.0093 17.6249 15.9849 17.697L15.983 17.7008L14.9224 20.8826C14.8972 20.9578 14.8903 21.0379 14.9022 21.1162C14.9141 21.1946 14.9445 21.269 14.9909 21.3333C15.0372 21.3976 15.0982 21.4499 15.1688 21.486C15.2393 21.5221 15.3175 21.5409 15.3967 21.5408C15.4505 21.5409 15.5039 21.5323 15.5549 21.5151L18.7367 20.4545C18.7394 20.4539 18.7419 20.4528 18.7442 20.4514C18.8148 20.4265 18.879 20.3864 18.9324 20.3339L27.4174 11.8483L28.478 10.7876L29.0086 10.2576C29.3361 9.92907 29.52 9.48407 29.52 9.02014C29.52 8.55622 29.3361 8.11122 29.0086 7.78264ZM16.1874 20.2501L16.6755 18.7845L17.653 19.762L16.1874 20.2501ZM18.5786 19.2733L17.1642 17.8589L24.9424 10.0808L26.3567 11.4951L18.5786 19.2733ZM27.0636 10.7876L25.6499 9.37389L26.003 9.02014L27.4174 10.4345L27.0636 10.7876ZM28.3011 9.55014L28.1249 9.72702L26.7105 8.31264L26.8874 8.13639C27.0281 7.99592 27.2188 7.91702 27.4177 7.91702C27.6165 7.91702 27.8072 7.99592 27.948 8.13639L28.3011 8.48952C28.4416 8.63026 28.5205 8.82098 28.5205 9.01983C28.5205 9.21868 28.4416 9.4094 28.3011 9.55014Z" fill="#9A95F3"/>
<path d="M13 8H3C2.86739 8 2.74021 8.05268 2.64645 8.14645C2.55268 8.24021 2.5 8.36739 2.5 8.5C2.5 8.63261 2.55268 8.75979 2.64645 8.85355C2.74021 8.94732 2.86739 9 3 9H13C13.1326 9 13.2598 8.94732 13.3536 8.85355C13.4473 8.75979 13.5 8.63261 13.5 8.5C13.5 8.36739 13.4473 8.24021 13.3536 8.14645C13.2598 8.05268 13.1326 8 13 8Z" fill="#9A95F3"/>
<path d="M13 9.5H3C2.86739 9.5 2.74021 9.55268 2.64645 9.64645C2.55268 9.74021 2.5 9.86739 2.5 10C2.5 10.1326 2.55268 10.2598 2.64645 10.3536C2.74021 10.4473 2.86739 10.5 3 10.5H13C13.1326 10.5 13.2598 10.4473 13.3536 10.3536C13.4473 10.2598 13.5 10.1326 13.5 10C13.5 9.86739 13.4473 9.74021 13.3536 9.64645C13.2598 9.55268 13.1326 9.5 13 9.5Z" fill="#9A95F3"/>
<path d="M13 11H3C2.86739 11 2.74021 11.0527 2.64645 11.1464C2.55268 11.2402 2.5 11.3674 2.5 11.5C2.5 11.6326 2.55268 11.7598 2.64645 11.8536C2.74021 11.9473 2.86739 12 3 12H13C13.1326 12 13.2598 11.9473 13.3536 11.8536C13.4473 11.7598 13.5 11.6326 13.5 11.5C13.5 11.3674 13.4473 11.2402 13.3536 11.1464C13.2598 11.0527 13.1326 11 13 11Z" fill="#9A95F3"/>
<path d="M3 13.5H7.9375C8.07011 13.5 8.19729 13.4473 8.29105 13.3536C8.38482 13.2598 8.4375 13.1326 8.4375 13C8.4375 12.8674 8.38482 12.7402 8.29105 12.6464C8.19729 12.5527 8.07011 12.5 7.9375 12.5H3C2.86739 12.5 2.74021 12.5527 2.64645 12.6464C2.55268 12.7402 2.5 12.8674 2.5 13C2.5 13.1326 2.55268 13.2598 2.64645 13.3536C2.74021 13.4473 2.86739 13.5 3 13.5Z" fill="#9A95F3"/>
<path d="M13 15H3C2.86739 15 2.74021 15.0527 2.64645 15.1464C2.55268 15.2402 2.5 15.3674 2.5 15.5C2.5 15.6326 2.55268 15.7598 2.64645 15.8536C2.74021 15.9473 2.86739 16 3 16H13C13.1326 16 13.2598 15.9473 13.3536 15.8536C13.4473 15.7598 13.5 15.6326 13.5 15.5C13.5 15.3674 13.4473 15.2402 13.3536 15.1464C13.2598 15.0527 13.1326 15 13 15Z" fill="#9A95F3"/>
<path d="M13 16.5H3C2.86739 16.5 2.74021 16.5527 2.64645 16.6464C2.55268 16.7402 2.5 16.8674 2.5 17C2.5 17.1326 2.55268 17.2598 2.64645 17.3536C2.74021 17.4473 2.86739 17.5 3 17.5H13C13.1326 17.5 13.2598 17.4473 13.3536 17.3536C13.4473 17.2598 13.5 17.1326 13.5 17C13.5 16.8674 13.4473 16.7402 13.3536 16.6464C13.2598 16.5527 13.1326 16.5 13 16.5Z" fill="#9A95F3"/>
<path d="M13 18H3C2.86739 18 2.74021 18.0527 2.64645 18.1464C2.55268 18.2402 2.5 18.3674 2.5 18.5C2.5 18.6326 2.55268 18.7598 2.64645 18.8536C2.74021 18.9473 2.86739 19 3 19H13C13.1326 19 13.2598 18.9473 13.3536 18.8536C13.4473 18.7598 13.5 18.6326 13.5 18.5C13.5 18.3674 13.4473 18.2402 13.3536 18.1464C13.2598 18.0527 13.1326 18 13 18Z" fill="#9A95F3"/>
<path d="M7.9375 19.5H3C2.86739 19.5 2.74021 19.5527 2.64645 19.6464C2.55268 19.7402 2.5 19.8674 2.5 20C2.5 20.1326 2.55268 20.2598 2.64645 20.3536C2.74021 20.4473 2.86739 20.5 3 20.5H7.9375C8.07011 20.5 8.19729 20.4473 8.29105 20.3536C8.38482 20.2598 8.4375 20.1326 8.4375 20C8.4375 19.8674 8.38482 19.7402 8.29105 19.6464C8.19729 19.5527 8.07011 19.5 7.9375 19.5Z" fill="#9A95F3"/>
</svg>
