<svg width="64" height="64" viewBox="0 0 64 64" fill="none" xmlns="http://www.w3.org/2000/svg">
<g clip-path="url(#clip0)">
<path d="M62.9338 31.4664C62.9369 33.7148 62.1 35.8832 60.5872 37.5464C60.5872 37.5523 60.5824 37.5571 60.5765 37.5571C59.786 41.8114 56.8955 45.3763 52.8965 47.0291C56.6085 50.3571 57.3978 57.0238 57.5578 59.6798C57.5724 59.9718 57.4665 60.257 57.2649 60.4687C57.0633 60.6804 56.7835 60.8001 56.4912 60.7998H53.2378C52.7222 60.8015 52.2765 60.4405 52.1712 59.9358C51.8618 58.3358 50.6672 54.9331 45.8672 53.3331C39.4672 51.1998 38.4005 49.0664 38.4005 44.7998C36.5541 44.7995 34.7239 44.4559 33.0032 43.7864C30.8882 46.2414 27.6231 47.3799 24.4403 46.7724C21.2574 46.1649 18.6412 43.9038 17.5792 40.8424C12.4864 42.726 6.76127 41.035 3.50922 36.6866C0.257167 32.3382 0.253071 26.3686 3.49915 22.0158C3.30169 21.4536 3.20071 20.8622 3.20049 20.2664C3.20212 17.7193 5.00122 15.5273 7.49915 15.0291C7.47785 14.82 7.46717 14.6099 7.46715 14.3998C7.46715 10.5706 10.5713 7.46642 14.4005 7.46642C15.4431 7.463 16.4725 7.70027 17.4085 8.15975C18.9466 5.56723 21.5591 3.79408 24.5363 3.32193C27.5135 2.84978 30.5464 3.72765 32.8112 5.71708C33.8666 4.02203 35.7804 3.05851 37.7706 3.22024C39.7608 3.38197 41.4939 4.64187 42.2618 6.48509C42.7505 6.42947 43.242 6.40098 43.7338 6.39975C50.3902 6.39879 55.9365 11.4998 56.4912 18.1331H56.5338C58.4332 18.1321 60.1897 19.1412 61.1455 20.7826C62.1013 22.4239 62.1121 24.4497 61.1738 26.1011C62.3205 27.6546 62.9375 29.5355 62.9338 31.4664Z" fill="#9A95F3"/>
<path d="M61.1732 26.1011C62.1115 24.4497 62.1007 22.4239 61.1449 20.7826C60.1891 19.1413 58.4325 18.1321 56.5332 18.1331H56.4905C55.9358 11.4998 50.3896 6.39882 43.7332 6.39978C43.2413 6.40101 42.7499 6.4295 42.2612 6.48512C41.2101 3.93273 38.3775 2.61268 35.7471 3.44938C37.2445 3.92461 38.4568 5.03502 39.0612 6.48512C39.5499 6.4295 40.0413 6.40101 40.5332 6.39978C47.1896 6.39882 52.7358 11.4998 53.2905 18.1331H53.3332C55.2325 18.1321 56.9891 19.1413 57.9449 20.7826C58.9007 22.4239 58.9115 24.4497 57.9732 26.1011C60.5244 29.5703 60.279 34.3563 57.3865 37.5465C57.3865 37.5523 57.3818 37.5571 57.3759 37.5571C56.5853 41.8114 53.6949 45.3763 49.6959 47.0291C53.4079 50.3571 54.1972 57.0238 54.3572 59.6798C54.3718 59.9718 54.2659 60.257 54.0643 60.4688C53.8626 60.6805 53.5829 60.8002 53.2905 60.7998H56.4905C56.7829 60.8002 57.0626 60.6805 57.2643 60.4688C57.4659 60.257 57.5718 59.9718 57.5572 59.6798C57.3972 57.0238 56.6079 50.3571 52.8959 47.0291C56.8949 45.3763 59.7853 41.8114 60.5759 37.5571C60.5818 37.5571 60.5865 37.5523 60.5865 37.5465C63.479 34.3563 63.7244 29.5703 61.1732 26.1011Z" fill="#5D55FF"/>
<path d="M27.7327 38.3998V27.7331H22.3994L33.0661 12.7998V23.4665H38.3994L27.7327 38.3998Z" fill="#FF8662"/>
<path d="M29.8662 23.4665H33.0662V12.7998L29.8662 17.2798V23.4665Z" fill="#FF8662"/>
<path d="M35.2001 23.4668L27.7334 33.9201V38.4001L38.4001 23.4668H35.2001Z" fill="#FF8662"/>
<path d="M62.9334 23.4666C62.9269 20.2852 60.5844 17.5915 57.4347 17.1434C56.3875 10.3762 50.581 5.37116 43.7334 5.3333C43.4614 5.3333 43.1755 5.3653 42.8971 5.3813C41.8919 3.59781 40.092 2.40494 38.0578 2.17411C36.0236 1.94328 34.0022 2.70252 32.623 4.21543C30.7299 2.86138 28.4608 2.13335 26.1334 2.1333C22.516 2.15137 19.1271 3.90416 17.0219 6.84583C14.6047 6.00227 11.9295 6.36906 9.82859 7.83212C7.72765 9.29518 6.45576 11.677 6.40855 14.2368C3.26721 15.2926 1.48843 18.6091 2.34668 21.8101C0.814739 24.0194 -0.00417254 26.6448 1.59875e-05 29.3333C-0.00395486 33.5129 1.95405 37.452 5.2883 39.9723C8.62255 42.4926 12.9464 43.3018 16.9664 42.1578C18.3601 45.1554 21.132 47.2816 24.3883 47.8508C27.6446 48.42 30.9734 47.3603 33.3013 45.0133C34.6131 45.459 35.9776 45.7304 37.36 45.8208C37.5574 49.8101 39.0912 52.2016 45.5296 54.3477C49.7099 55.7408 50.8256 58.5696 51.1179 60.1322C51.3165 61.1437 52.2055 61.8716 53.2363 61.8666H56.4907C57.0788 61.8676 57.6412 61.6258 58.0451 61.1983C58.4489 60.7708 58.6584 60.1956 58.624 59.6085C58.4651 57.0485 57.7558 51.121 54.6656 47.3578C58.2221 45.4142 60.7451 42.0063 61.5659 38.0373C64.4727 34.6531 64.8119 29.7616 62.4 26.0085C62.7488 25.2063 62.9303 24.3414 62.9334 23.4666ZM59.8123 36.8128L59.7878 36.8384C58.27 38.5061 56.1216 39.4597 53.8667 39.4666C52.6044 39.471 51.3599 39.169 50.24 38.5866C49.7318 38.3243 49.2548 38.0055 48.8181 37.6362C50.2433 36.0091 50.5418 33.6812 49.5733 31.7472C49.4019 31.4065 49.0616 31.1832 48.6809 31.1613C48.3001 31.1395 47.9366 31.3225 47.7273 31.6413C47.518 31.9602 47.4947 32.3665 47.6662 32.7072C47.8877 33.1498 48.0021 33.6383 48 34.1333C48.0014 35.6187 46.9804 36.9098 45.5347 37.2508C44.0889 37.5918 42.5986 36.8932 41.936 35.5637C41.7645 35.223 41.4243 34.9997 41.0435 34.9779C40.6627 34.956 40.2992 35.139 40.0899 35.4579C39.8806 35.7767 39.8573 36.183 40.0288 36.5237C41.3138 39.115 44.4381 40.1988 47.0518 38.96C47.716 39.5716 48.4624 40.0876 49.2694 40.4928C52.1615 41.9834 55.598 41.9742 58.4822 40.4682C56.8124 43.8208 53.6315 46.1652 49.935 46.768C49.3841 46.8541 48.9924 47.35 49.0363 47.9058C49.0802 48.4617 49.5448 48.8899 50.1024 48.8885C50.1596 48.8887 50.2167 48.884 50.2731 48.8746C51.0739 48.7435 51.8614 48.5411 52.6262 48.2698C55.6555 51.4538 56.3403 57.296 56.4907 59.7376H53.215C52.9099 58.1088 51.615 54.1258 46.2038 52.3221C40.703 50.4885 39.6469 48.8234 39.4923 45.825H39.5499C40.7564 45.742 41.9496 45.5215 43.1062 45.168C43.6693 44.9951 43.9857 44.3984 43.8128 43.8352C43.6399 43.272 43.0432 42.9556 42.48 43.1285C41.4717 43.4367 40.4312 43.6278 39.3792 43.6981C37.3398 43.8571 35.2909 43.5485 33.3888 42.7957C32.9677 42.6356 32.4915 42.7538 32.1941 43.0922C30.3266 45.2612 27.4419 46.2661 24.631 45.727C21.82 45.1879 19.5118 43.187 18.5792 40.481V40.4746C17.8007 38.2426 18.0556 35.7799 19.2747 33.7546C19.5784 33.2498 19.4153 32.5943 18.9104 32.2906C18.4056 31.987 17.7501 32.15 17.4464 32.6549C16.9738 33.4424 16.6109 34.2908 16.368 35.1765C15.4585 35.2974 14.5414 35.016 13.8561 34.4059C13.1707 33.7958 12.7852 32.9174 12.8 32V31.9573C12.7992 31.6766 12.6859 31.4079 12.4854 31.2115C12.2849 31.015 12.014 30.9071 11.7333 30.912C11.1403 30.9225 10.6654 31.4069 10.6667 32C10.6702 34.944 13.056 37.3298 16 37.3333H16.0363C16.0267 37.5125 16 37.6896 16 37.8666C16.0023 38.6335 16.0922 39.3975 16.2678 40.144C12.9011 41.0553 9.30202 40.3471 6.53162 38.2281C3.76122 36.1092 2.13536 32.8211 2.13335 29.3333C2.13015 27.5105 2.57716 25.7151 3.43468 24.1066C3.92479 24.7685 4.53839 25.3292 5.24162 25.7578C5.5684 25.9539 5.97495 25.9607 6.30814 25.7758C6.64133 25.5908 6.85053 25.2421 6.85694 24.8611C6.86335 24.4801 6.666 24.1246 6.33922 23.9285C4.69158 22.9432 3.90486 20.9789 4.41689 19.1287C4.92892 17.2784 6.61359 15.998 8.53335 16C9.87947 15.995 11.1473 16.6321 11.9467 17.7152C12.3001 18.1865 12.9687 18.282 13.44 17.9285C13.9113 17.575 14.0068 16.9065 13.6534 16.4352C12.4589 14.8198 10.569 13.8667 8.56002 13.8666C8.83859 10.8481 11.3687 8.53754 14.4 8.5333C14.9157 8.53641 15.4286 8.60815 15.9254 8.74663C15.6682 9.30755 15.4577 9.88872 15.296 10.4842C15.2243 10.7581 15.2644 11.0492 15.4074 11.2935C15.5505 11.5378 15.7848 11.7152 16.0587 11.7866C16.3325 11.8584 16.6237 11.8183 16.868 11.6752C17.1122 11.5322 17.2896 11.2979 17.3611 11.024C17.5719 10.2115 17.8951 9.43249 18.3211 8.7093C19.9676 5.96266 22.931 4.27746 26.1334 4.26663C28.0475 4.26551 29.9124 4.87248 31.4592 5.99997C31.112 6.79939 30.933 7.66172 30.9334 8.5333C30.9334 9.12241 31.4109 9.59997 32 9.59997C32.5891 9.59997 33.0667 9.12241 33.0667 8.5333C33.0667 6.17689 34.9769 4.26663 37.3334 4.26663C39.6898 4.26663 41.6 6.17689 41.6 8.5333C41.6 9.12241 42.0776 9.59997 42.6667 9.59997C43.2558 9.59997 43.7334 9.12241 43.7334 8.5333C43.7315 8.17567 43.6994 7.81884 43.6374 7.46663H43.7334C49.4301 7.49656 54.2927 11.5906 55.2928 17.1989C54.3507 17.38 53.4619 17.7724 52.6934 18.3466C52.2221 18.7001 52.1266 19.3687 52.48 19.84C52.8335 20.3113 53.5021 20.4068 53.9734 20.0533C55.5889 18.84 57.834 18.9262 59.3518 20.2598C60.8695 21.5933 61.2439 23.8087 60.2486 25.5669C59.8055 26.3387 59.135 26.9548 58.3286 27.3312C57.7948 27.5809 57.5646 28.2161 57.8144 28.7498C58.0642 29.2836 58.6994 29.5137 59.2331 29.264C59.9081 28.9418 60.5218 28.5043 61.0464 27.9712C62.4811 30.8942 61.9897 34.3964 59.8059 36.8117L59.8123 36.8128Z" fill="#212121"/>
<path d="M38.3998 22.3998H34.1331V12.7998C34.1332 12.336 33.8335 11.9253 33.3918 11.7838C32.9501 11.6423 32.4676 11.8025 32.1982 12.1801L21.5315 27.1134C21.2994 27.4386 21.2684 27.8662 21.4513 28.2214C21.6342 28.5766 22.0003 28.7998 22.3998 28.7998H26.6664V38.3998C26.6664 38.8636 26.966 39.2743 27.4078 39.4158C27.8495 39.5573 28.332 39.3971 28.6014 39.0195L39.268 24.0862C39.5002 23.761 39.5311 23.3334 39.3482 22.9782C39.1654 22.623 38.7993 22.3998 38.3998 22.3998ZM28.7998 35.0707V27.7331C28.7998 27.144 28.3222 26.6665 27.7331 26.6665H24.4723L31.9998 16.1289V23.4665C31.9998 24.0556 32.4773 24.5331 33.0665 24.5331H36.3272L28.7998 35.0707Z" fill="#212121"/>
</g>
<defs>
<clipPath id="clip0">
<rect width="64" height="64" fill="white"/>
</clipPath>
</defs>
</svg>
