<svg width="160" height="160" viewBox="0 0 160 160" fill="none" xmlns="http://www.w3.org/2000/svg">
<path d="M79.9983 152.613C82.6934 152.613 85.2782 151.542 87.184 149.637C89.0898 147.731 90.1604 145.146 90.1604 142.451V140.163H69.8361V142.442C69.835 143.777 70.097 145.1 70.6072 146.334C71.1174 147.568 71.8657 148.689 72.8095 149.634C73.7532 150.578 74.8739 151.327 76.1074 151.839C77.3409 152.35 78.663 152.613 79.9983 152.613V152.613Z" fill="#FF8662"/>
<path d="M80.0005 153.692C77.0187 153.685 74.161 152.497 72.0535 150.388C69.9461 148.278 68.7608 145.419 68.7573 142.438V139.08H91.2438V142.44C91.2398 145.421 90.0542 148.28 87.9468 150.389C85.8394 152.498 82.982 153.685 80.0005 153.692V153.692ZM70.9195 141.24V142.438C70.9195 144.849 71.8773 147.161 73.5821 148.866C75.287 150.571 77.5993 151.528 80.0103 151.528C82.4213 151.528 84.7336 150.571 86.4384 148.866C88.1433 147.161 89.1011 144.849 89.1011 142.438V141.24H70.9195Z" fill="#F5F5FF"/>
<path d="M57.8299 111.211H102.167V132.893C102.167 135.314 101.205 137.636 99.4935 139.348C97.7815 141.06 95.4596 142.022 93.0386 142.022H66.9564C64.5353 142.022 62.2134 141.06 60.5015 139.348C58.7895 137.636 57.8278 135.314 57.8278 132.893V111.211H57.8299V111.211Z" fill="#FF8662"/>
<path d="M102.164 111.199V132.885C102.164 135.307 101.204 137.631 99.493 139.346C97.7824 141.06 95.4613 142.026 93.0392 142.031H86.7256C89.1477 142.026 91.4688 141.06 93.1795 139.346C94.8901 137.631 95.8506 135.307 95.85 132.885V111.199H102.164Z" fill="#FF8662"/>
<path d="M57.8302 120.369H102.17V122.531H57.8302V120.369Z" fill="#F5F5FF"/>
<path d="M57.8302 130.7H102.17V132.863H57.8302V130.7Z" fill="#F5F5FF"/>
<path d="M41.2742 6.93579L43.2442 6.04483L48.3521 17.3392L46.3821 18.2301L41.2742 6.93579Z" fill="#F5F5FF"/>
<path d="M24.872 20.239L26.232 18.559L35.8634 26.3559L34.5034 28.0359L24.872 20.239Z" fill="#F5F5FF"/>
<path d="M16.1843 39.458L16.6444 37.3477L28.755 39.988L28.2949 42.0983L16.1843 39.458Z" fill="#F5F5FF"/>
<path d="M111.624 17.3462L116.732 6.05183L118.702 6.94279L113.594 18.2372L111.624 17.3462Z" fill="#F5F5FF"/>
<path d="M124.07 26.333L133.701 18.5361L135.061 20.2161L125.43 28.013L124.07 26.333Z" fill="#F5F5FF"/>
<path d="M131.225 39.9998L143.336 37.3595L143.796 39.4698L131.685 42.1101L131.225 39.9998Z" fill="#F5F5FF"/>
<path d="M76.4105 96.5916H85.5305V98.7537H76.4105V96.5916Z" fill="#F5F5FF"/>
<path d="M76.4105 32.7026H85.5305V34.8648H76.4105V32.7026Z" fill="#F5F5FF"/>
<path d="M110.11 29.1359C113.649 29.9598 116.821 31.9207 119.14 34.7185C121.459 37.5164 122.798 40.997 122.951 44.6278C122.97 45.348 122.904 46.0679 122.754 46.7727C124.878 48.2769 126.616 50.2623 127.826 52.5665C129.036 54.8708 129.684 57.4286 129.716 60.0311C129.697 62.3068 129.196 64.5526 128.245 66.62C127.294 68.6875 125.914 70.5296 124.199 72.0246C125.576 74.3873 126.301 77.0734 126.3 79.8084C126.214 83.0589 125.175 86.2125 123.312 88.8777C121.45 91.543 118.845 93.6026 115.822 94.8008C115.001 104.061 106.33 111.322 95.7877 111.322H95.6407C92.3523 111.385 89.1702 110.157 86.778 107.9C84.3859 105.642 82.9745 102.537 82.8471 99.2505V21.3803C83.6839 16.71 87.6536 14.5435 92.9531 14.5954C103.329 15.3003 107.974 23.4343 110.11 29.1359V29.1359Z" fill="#9A95F3"/>
<path d="M109.861 99.6118C112.061 98.6503 114.057 97.278 115.742 95.5686C115.294 98.3962 114.175 101.075 112.478 103.381C110.782 105.687 108.557 107.553 105.991 108.823C108.197 106.223 109.548 103.007 109.861 99.6118Z" fill="#5D55FF"/>
<path d="M124.195 72.0203C125.566 74.3853 126.29 77.0702 126.292 79.8041C126.223 82.8733 125.298 85.8622 123.621 88.4334C121.944 91.0047 119.581 93.0559 116.8 94.3554C118.806 91.9313 120.019 88.949 120.275 85.8126C120.53 82.6762 119.815 79.537 118.227 76.8203C119.943 75.3243 121.322 73.481 122.272 71.4124C123.223 69.3437 123.723 67.0968 123.74 64.8203C123.711 62.2178 123.065 59.6594 121.855 57.3552C120.645 55.0511 118.905 53.0671 116.778 51.5663C116.932 50.8636 116.997 50.1446 116.973 49.4258C116.824 45.7921 115.487 42.3077 113.167 39.5073C110.847 36.7068 107.672 34.745 104.13 33.9231C102.011 28.215 97.3621 20.0852 86.9838 19.3933C85.7482 19.3664 84.5139 19.4898 83.3081 19.7609C84.6919 16.215 88.3027 14.5501 92.9513 14.5934C103.33 15.3069 107.978 23.4366 110.119 29.1447C113.655 29.9668 116.825 31.9263 119.141 34.7227C121.457 37.519 122.792 40.9979 122.94 44.6258C122.965 45.3446 122.899 46.0636 122.746 46.7663C124.87 48.2688 126.609 50.2532 127.819 52.557C129.029 54.8607 129.677 57.4183 129.708 60.0203C129.691 62.2968 129.19 64.5437 128.24 66.6124C127.289 68.681 125.911 70.5243 124.195 72.0203V72.0203Z" fill="#5D55FF"/>
<path d="M103.528 73.1322C103.321 73.1327 103.119 73.074 102.945 72.9629C102.77 72.8519 102.631 72.6933 102.545 72.5058C102.458 72.3184 102.426 72.1099 102.454 71.9052C102.482 71.7004 102.568 71.508 102.702 71.3506C103.948 69.6354 105.564 68.2221 107.429 67.2151C109.295 66.208 111.363 65.6329 113.48 65.5322C120.032 65.5322 124.825 71.1128 125.024 71.3506C125.202 71.5703 125.286 71.8507 125.26 72.1319C125.233 72.4132 125.098 72.6728 124.882 72.8553C124.666 73.0378 124.388 73.1287 124.106 73.1086C123.824 73.0884 123.562 72.9587 123.374 72.7473C123.331 72.6976 119.016 67.6944 113.48 67.6944H113.467C111.668 67.8058 109.917 68.317 108.34 69.1908C106.764 70.0645 105.402 71.2788 104.354 72.7452C104.253 72.866 104.126 72.9632 103.984 73.0301C103.841 73.0969 103.685 73.1318 103.528 73.1322V73.1322Z" fill="#F5F5FF"/>
<path d="M111.922 67.8126C111.802 67.8131 111.682 67.7934 111.568 67.7542C109.635 67.0472 107.89 65.9087 106.464 64.4253C105.038 62.942 103.969 61.1529 103.338 59.1943C103.302 59.0568 103.294 58.9137 103.313 58.773C103.333 58.6323 103.38 58.4967 103.451 58.3742C103.523 58.2516 103.618 58.1444 103.732 58.0586C103.845 57.9728 103.974 57.9102 104.111 57.8743C104.249 57.8383 104.392 57.8298 104.533 57.8493C104.673 57.8687 104.809 57.9156 104.931 57.9874C105.054 58.0591 105.161 58.1544 105.247 58.2676C105.333 58.3808 105.395 58.5098 105.431 58.6472C105.981 60.257 106.879 61.7253 108.063 62.9469C109.246 64.1685 110.685 65.1132 112.277 65.7132C112.518 65.7974 112.721 65.9643 112.851 66.1842C112.981 66.4041 113.029 66.6629 112.986 66.9146C112.943 67.1664 112.813 67.3949 112.618 67.5597C112.423 67.7244 112.175 67.8148 111.92 67.8148L111.922 67.8126Z" fill="#F5F5FF"/>
<path d="M100.31 31.5684C100.067 31.5685 99.8314 31.4868 99.6408 31.3367C99.4502 31.1866 99.3156 30.9768 99.2587 30.7409C99.2018 30.5051 99.2259 30.2569 99.3271 30.0364C99.4283 29.8159 99.6007 29.6358 99.8167 29.5252C103.074 27.8203 106.829 27.3188 110.42 28.109C110.692 28.1898 110.921 28.3742 111.058 28.6224C111.195 28.8707 111.23 29.1629 111.153 29.4361C111.077 29.7093 110.896 29.9416 110.65 30.0828C110.404 30.224 110.113 30.263 109.838 30.1911C106.769 29.568 103.579 30.0144 100.798 31.456C100.646 31.5313 100.479 31.5698 100.31 31.5684V31.5684Z" fill="#F5F5FF"/>
<path d="M115.489 95.886C113.073 96.0433 110.651 95.6794 108.388 94.8192C106.126 93.959 104.074 92.6224 102.373 90.9001C102.277 90.7953 102.203 90.6727 102.154 90.5392C102.106 90.4057 102.084 90.264 102.09 90.1222C102.097 89.9803 102.131 89.8411 102.191 89.7125C102.251 89.5839 102.336 89.4683 102.441 89.3725C102.546 89.2767 102.668 89.2024 102.802 89.154C102.935 89.1055 103.077 89.0839 103.219 89.0902C103.361 89.0965 103.5 89.1307 103.628 89.1908C103.757 89.251 103.873 89.3358 103.968 89.4406C105.793 91.4385 109.305 93.8233 115.815 93.7217H115.828C116.115 93.72 116.39 93.8322 116.594 94.0338C116.798 94.2353 116.914 94.5096 116.916 94.7963C116.917 95.083 116.805 95.3587 116.603 95.5626C116.402 95.7666 116.128 95.8821 115.841 95.8839L115.489 95.886Z" fill="#F5F5FF"/>
<path d="M96.4027 37.3584C98.9187 37.3584 100.958 35.3188 100.958 32.8027C100.958 30.2867 98.9187 28.2471 96.4027 28.2471C93.8867 28.2471 91.8471 30.2867 91.8471 32.8027C91.8471 35.3188 93.8867 37.3584 96.4027 37.3584Z" fill="#F5F5FF"/>
<path d="M96.405 38.439C95.2901 38.439 94.2002 38.1084 93.2732 37.4889C92.3462 36.8694 91.6237 35.989 91.1971 34.9589C90.7706 33.9288 90.6591 32.7953 90.8767 31.7018C91.0944 30.6083 91.6315 29.604 92.42 28.8157C93.2085 28.0275 94.2131 27.4908 95.3067 27.2736C96.4002 27.0563 97.5337 27.1683 98.5636 27.5952C99.5936 28.0222 100.474 28.745 101.093 29.6722C101.712 30.5995 102.042 31.6895 102.042 32.8044C102.039 34.2985 101.445 35.7307 100.388 36.7869C99.3315 37.8432 97.8991 38.4373 96.405 38.439V38.439ZM96.405 29.3298C95.7178 29.3298 95.046 29.5336 94.4746 29.9154C93.9033 30.2972 93.4579 30.8399 93.1949 31.4748C92.9319 32.1097 92.8631 32.8083 92.9972 33.4823C93.1313 34.1563 93.4622 34.7754 93.9481 35.2613C94.434 35.7473 95.0532 36.0782 95.7272 36.2123C96.4012 36.3463 97.0998 36.2775 97.7347 36.0145C98.3696 35.7516 98.9122 35.3062 99.294 34.7348C99.6758 34.1634 99.8796 33.4916 99.8796 32.8044C99.8796 31.8827 99.5136 30.9987 98.8621 30.3468C98.2105 29.6948 97.3267 29.3283 96.405 29.3277V29.3298Z" fill="#F5F5FF"/>
<path d="M103.329 59.0574C105.845 59.0574 107.884 57.0178 107.884 54.5017C107.884 51.9857 105.845 49.946 103.329 49.946C100.813 49.946 98.7732 51.9857 98.7732 54.5017C98.7732 57.0178 100.813 59.0574 103.329 59.0574Z" fill="#F5F5FF"/>
<path d="M103.328 60.136C102.213 60.1348 101.124 59.803 100.198 59.1828C99.2716 58.5625 98.5502 57.6816 98.1246 56.6514C97.699 55.6212 97.5885 54.4879 97.8069 53.3949C98.0253 52.3018 98.5628 51.298 99.3516 50.5105C100.14 49.7229 101.145 49.1868 102.238 48.9701C103.332 48.7534 104.465 48.8657 105.494 49.2929C106.524 49.72 107.404 50.4428 108.023 51.3699C108.641 52.297 108.972 53.3868 108.971 54.5015C108.969 55.9966 108.373 57.4298 107.315 58.4862C106.257 59.5427 104.823 60.136 103.328 60.136V60.136ZM103.328 51.0269C102.641 51.0282 101.97 51.233 101.399 51.6156C100.829 51.9982 100.384 52.5413 100.122 53.1763C99.8604 53.8113 99.7925 54.5097 99.9273 55.1833C100.062 55.8569 100.394 56.4754 100.88 56.9606C101.366 57.4459 101.985 57.7762 102.659 57.9098C103.333 58.0433 104.031 57.9741 104.666 57.7109C105.3 57.4478 105.842 57.0024 106.224 56.4312C106.605 55.8599 106.809 55.1884 106.809 54.5015C106.809 54.0447 106.718 53.5925 106.543 53.1706C106.368 52.7488 106.112 52.3656 105.788 52.0429C105.465 51.7202 105.081 51.4644 104.659 51.2901C104.237 51.1157 103.785 51.0263 103.328 51.0269Z" fill="#F5F5FF"/>
<path d="M100.959 90.7348C103.475 90.7348 105.514 88.6952 105.514 86.1792C105.514 83.6632 103.475 81.6235 100.959 81.6235C98.4427 81.6235 96.403 83.6632 96.403 86.1792C96.403 88.6952 98.4427 90.7348 100.959 90.7348Z" fill="#F5F5FF"/>
<path d="M100.96 91.8157C99.8455 91.8161 98.7555 91.4859 97.8282 90.8668C96.901 90.2477 96.1782 89.3675 95.7512 88.3376C95.3242 87.3076 95.2123 86.1742 95.4296 85.0806C95.6468 83.9871 96.1835 82.9825 96.9717 82.194C97.7599 81.4054 98.7643 80.8684 99.8578 80.6507C100.951 80.433 102.085 80.5445 103.115 80.9711C104.145 81.3977 105.025 82.1201 105.645 83.0471C106.264 83.9741 106.595 85.064 106.595 86.179C106.593 87.673 105.999 89.1054 104.943 90.1621C103.887 91.2188 102.454 91.8134 100.96 91.8157V91.8157ZM100.96 82.7066C100.273 82.7061 99.6009 82.9096 99.0292 83.2912C98.4575 83.6729 98.0118 84.2155 97.7486 84.8505C97.4853 85.4855 97.4163 86.1843 97.5503 86.8585C97.6843 87.5327 98.0153 88.152 98.5013 88.638C98.9874 89.1241 99.6067 89.4551 100.281 89.5891C100.955 89.7231 101.654 89.6541 102.289 89.3908C102.924 89.1276 103.467 88.6819 103.848 88.1102C104.23 87.5384 104.433 86.8664 104.433 86.179C104.432 85.2582 104.066 84.3754 103.415 83.7241C102.764 83.0728 101.881 82.7061 100.96 82.7044V82.7066Z" fill="#F5F5FF"/>
<path d="M49.8903 29.1359C46.3509 29.9598 43.1789 31.9207 40.8598 34.7185C38.5407 37.5164 37.2023 40.997 37.0492 44.6278C37.0306 45.348 37.0966 46.0679 37.246 46.7727C35.122 48.2769 33.3841 50.2623 32.1741 52.5665C30.9641 54.8708 30.3164 57.4286 30.2838 60.0311C30.3027 62.3068 30.8043 64.5526 31.7555 66.62C32.7067 68.6875 34.0858 70.5296 35.8017 72.0246C34.4241 74.3873 33.6988 77.0734 33.7 79.8084C33.7863 83.0589 34.8253 86.2125 36.6879 88.8777C38.5506 91.543 41.155 93.6026 44.1779 94.8008C44.9995 104.061 53.6698 111.322 64.2125 111.322H64.3595C67.6478 111.385 70.8299 110.157 73.2221 107.9C75.6143 105.642 77.0257 102.537 77.153 99.2505V21.3803C76.3162 16.71 72.3465 14.5435 67.0471 14.5954C56.6708 15.3003 52.0265 23.4343 49.8903 29.1359V29.1359Z" fill="#9A95F3"/>
<path d="M38.7444 76.8215C37.37 79.1853 36.6464 81.871 36.6471 84.6053C36.6432 86.5011 37.0029 88.38 37.7065 90.1404C35.1529 87.3012 33.7296 83.6238 33.7065 79.8053C33.7023 77.3527 34.2882 74.9351 35.4146 72.7566C36.3078 74.2755 37.4311 75.6467 38.7444 76.8215V76.8215Z" fill="#5D55FF"/>
<path d="M77.1265 21.2762C75.0107 19.9016 72.5097 19.2423 69.9913 19.3951C59.6346 20.087 54.9859 28.2167 52.8454 33.9249C49.3057 34.7524 46.1342 36.7158 43.8151 39.5151C41.4961 42.3144 40.1569 45.7957 40.0021 49.4276C39.9888 50.146 40.054 50.8638 40.1967 51.5681C38.0738 53.0723 36.3365 55.057 35.1265 57.3604C33.9166 59.6638 33.2683 62.2205 33.2346 64.8222C33.2322 66.7439 33.584 68.6496 34.2724 70.4438C31.7163 67.5734 30.3009 63.8657 30.294 60.0222C30.3255 57.4201 30.9728 54.8625 32.1829 52.5588C33.3931 50.255 35.1316 48.2707 37.2562 46.7681C37.1029 46.0654 37.0375 45.3464 37.0616 44.6276C37.2105 40.9997 38.5453 37.5208 40.8613 34.7245C43.1773 31.9281 46.3466 29.9686 49.8832 29.1465C52.0238 23.4384 56.6724 15.3086 67.0508 14.5951C72.3048 14.5519 76.24 16.6708 77.1265 21.2762Z" fill="#5D55FF"/>
<path d="M56.4715 73.1322C56.3143 73.1323 56.1589 73.0982 56.0163 73.0321C55.8736 72.966 55.7471 72.8695 55.6455 72.7495C54.5975 71.2831 53.2356 70.0688 51.6591 69.1951C50.0826 68.3214 48.331 67.8102 46.532 67.6987H46.5191C40.9839 67.6987 36.6682 72.6998 36.625 72.7517C36.4392 72.9707 36.174 73.107 35.8877 73.1305C35.6015 73.1541 35.3176 73.0629 35.0985 72.8771C34.8795 72.6913 34.7432 72.4261 34.7197 72.1398C34.6962 71.8536 34.7873 71.5697 34.9731 71.3506C35.1742 71.1128 39.9655 65.5322 46.5169 65.5322C48.6349 65.6326 50.7033 66.2075 52.5693 67.2146C54.4353 68.2217 56.0511 69.6352 57.2974 71.3506C57.4306 71.5079 57.5159 71.6999 57.5435 71.9041C57.5712 72.1083 57.5398 72.3162 57.4533 72.5032C57.3667 72.6901 57.2285 72.8485 57.0549 72.9596C56.8814 73.0706 56.6797 73.1298 56.4737 73.1301L56.4715 73.1322Z" fill="#F5F5FF"/>
<path d="M48.0768 67.8124C47.8214 67.8124 47.5743 67.722 47.3792 67.5572C47.1841 67.3925 47.0536 67.164 47.0109 66.9122C46.9681 66.6605 47.0159 66.4017 47.1457 66.1818C47.2755 65.9619 47.4789 65.795 47.72 65.7107C49.3115 65.1107 50.7506 64.1661 51.9341 62.9445C53.1176 61.7228 54.0162 60.2545 54.5654 58.6448C54.6013 58.5074 54.664 58.3784 54.7497 58.2651C54.8355 58.1519 54.9427 58.0567 55.0653 57.9849C55.1879 57.9132 55.3234 57.8662 55.4641 57.8468C55.6048 57.8274 55.748 57.8359 55.8854 57.8718C56.0228 57.9077 56.1518 57.9704 56.2651 58.0562C56.3783 58.1419 56.4735 58.2492 56.5453 58.3717C56.617 58.4943 56.664 58.6298 56.6834 58.7705C56.7028 58.9112 56.6943 59.0544 56.6584 59.1918C56.0282 61.1503 54.9597 62.9392 53.534 64.4225C52.1084 65.9058 50.3633 67.0445 48.4314 67.7518C48.3174 67.7917 48.1975 67.8121 48.0768 67.8124V67.8124Z" fill="#F5F5FF"/>
<path d="M59.6892 31.5682C59.5185 31.5679 59.3503 31.5271 59.1984 31.4493C56.4237 29.9948 53.2305 29.547 50.1627 30.1823C49.8969 30.2329 49.6218 30.182 49.3917 30.0396C49.1615 29.8972 48.9932 29.6737 48.9199 29.4133C48.8465 29.1528 48.8735 28.8743 48.9956 28.6328C49.1176 28.3912 49.3258 28.2043 49.579 28.1088C53.1679 27.3222 56.9193 27.8259 60.1736 29.5315C60.3895 29.6421 60.562 29.8222 60.6632 30.0427C60.7644 30.2632 60.7885 30.5113 60.7316 30.7472C60.6747 30.9831 60.5401 31.1929 60.3494 31.343C60.1588 31.4931 59.9232 31.5747 59.6806 31.5747L59.6892 31.5682Z" fill="#F5F5FF"/>
<path d="M44.5103 95.886H44.1557C44.0138 95.8852 43.8734 95.8564 43.7425 95.8012C43.6117 95.7461 43.493 95.6658 43.3932 95.5648C43.1917 95.3608 43.0794 95.0852 43.0812 94.7985C43.0829 94.5117 43.1984 94.2374 43.4024 94.0359C43.6063 93.8344 43.882 93.7221 44.1687 93.7239H44.5082C46.6234 93.8763 48.7467 93.5728 50.7345 92.8339C52.7224 92.0949 54.5283 90.9377 56.0304 89.4406C56.2239 89.229 56.4936 89.103 56.78 89.0902C57.0665 89.0774 57.3463 89.179 57.5579 89.3725C57.7695 89.566 57.8956 89.8357 57.9084 90.1222C57.9211 90.4087 57.8196 90.6885 57.626 90.9001C55.9247 92.6223 53.8731 93.9588 51.6103 94.819C49.3474 95.6792 46.9261 96.0431 44.5103 95.886V95.886Z" fill="#F5F5FF"/>
<path d="M63.5968 37.3584C66.1129 37.3584 68.1525 35.3188 68.1525 32.8027C68.1525 30.2867 66.1129 28.2471 63.5968 28.2471C61.0808 28.2471 59.0412 30.2867 59.0412 32.8027C59.0412 35.3188 61.0808 37.3584 63.5968 37.3584Z" fill="#F5F5FF"/>
<path d="M63.5943 38.439C62.4792 38.4395 61.3891 38.1092 60.4618 37.49C59.5345 36.8708 58.8117 35.9904 58.3848 34.9604C57.9579 33.9303 57.8461 32.7968 58.0635 31.7031C58.281 30.6095 58.8179 29.6049 59.6063 28.8165C60.3947 28.0281 61.3993 27.4912 62.493 27.2737C63.5866 27.0563 64.7201 27.1681 65.7502 27.595C66.7803 28.0219 67.6606 28.7447 68.2798 29.672C68.899 30.5993 69.2293 31.6894 69.2289 32.8044C69.2266 34.2981 68.6322 35.73 67.576 36.7862C66.5198 37.8424 65.088 38.4367 63.5943 38.439V38.439ZM63.5943 29.3298C62.907 29.3294 62.235 29.5328 61.6633 29.9144C61.0916 30.2959 60.6459 30.8384 60.3826 31.4733C60.1193 32.1081 60.0502 32.8068 60.184 33.481C60.3178 34.1551 60.6486 34.7744 61.1344 35.2606C61.6203 35.7467 62.2394 36.0779 62.9134 36.2121C63.5875 36.3464 64.2862 36.2777 64.9213 36.0148C65.5563 35.7518 66.0991 35.3065 66.481 34.735C66.8629 34.1636 67.0667 33.4917 67.0667 32.8044C67.0661 31.8833 66.7002 30.9999 66.0493 30.3482C65.3983 29.6964 64.5154 29.3294 63.5943 29.3277V29.3298Z" fill="#F5F5FF"/>
<path d="M56.6708 59.0574C59.1868 59.0574 61.2265 57.0178 61.2265 54.5017C61.2265 51.9857 59.1868 49.946 56.6708 49.946C54.1547 49.946 52.1151 51.9857 52.1151 54.5017C52.1151 57.0178 54.1547 59.0574 56.6708 59.0574Z" fill="#F5F5FF"/>
<path d="M56.6681 60.1358C55.5532 60.1362 54.4632 59.806 53.5359 59.1869C52.6087 58.5678 51.8859 57.6876 51.4589 56.6576C51.0319 55.6277 50.92 54.4943 51.1373 53.4007C51.3545 52.3071 51.8912 51.3026 52.6794 50.514C53.4676 49.7255 54.472 49.1884 55.5655 48.9708C56.659 48.7531 57.7925 48.8646 58.8226 49.2912C59.8527 49.7177 60.7332 50.4402 61.3526 51.3672C61.9721 52.2942 62.3027 53.3841 62.3027 54.4991C62.301 55.9931 61.7069 57.4255 60.6506 58.4822C59.5944 59.5388 58.1622 60.1335 56.6681 60.1358V60.1358ZM56.6681 51.0266C55.9807 51.0262 55.3087 51.2297 54.7369 51.6113C54.1652 51.9929 53.7195 52.5356 53.4563 53.1706C53.193 53.8055 53.124 54.5043 53.258 55.1785C53.392 55.8528 53.723 56.4721 54.2091 56.9581C54.6951 57.4442 55.3144 57.7751 55.9886 57.9091C56.6628 58.0431 57.3617 57.9742 57.9966 57.7109C58.6316 57.4477 59.1743 57.002 59.5559 56.4302C59.9375 55.8585 60.141 55.1864 60.1406 54.4991C60.1394 53.5785 59.7732 52.6959 59.1223 52.0449C58.4713 51.394 57.5887 51.0278 56.6681 51.0266V51.0266Z" fill="#F5F5FF"/>
<path d="M59.0411 90.7348C61.5571 90.7348 63.5968 88.6952 63.5968 86.1792C63.5968 83.6632 61.5571 81.6235 59.0411 81.6235C56.525 81.6235 54.4854 83.6632 54.4854 86.1792C54.4854 88.6952 56.525 90.7348 59.0411 90.7348Z" fill="#F5F5FF"/>
<path d="M59.0388 91.8157C57.9238 91.8157 56.8339 91.485 55.9069 90.8656C54.9799 90.2461 54.2575 89.3657 53.8309 88.3355C53.4043 87.3054 53.2928 86.172 53.5105 85.0785C53.7282 83.985 54.2652 82.9807 55.0538 82.1924C55.8423 81.4042 56.8469 80.8675 57.9404 80.6503C59.034 80.433 60.1674 80.545 61.1974 80.9719C62.2273 81.3989 63.1075 82.1217 63.7266 83.0489C64.3457 83.9762 64.6759 85.0662 64.6755 86.1811C64.6732 87.6752 64.0786 89.1074 63.0219 90.1636C61.9652 91.2199 60.5328 91.814 59.0388 91.8157V91.8157ZM59.0388 82.7065C58.3516 82.7065 57.6798 82.9103 57.1084 83.2921C56.537 83.6739 56.0917 84.2166 55.8287 84.8515C55.5657 85.4864 55.4969 86.185 55.6309 86.859C55.765 87.533 56.0959 88.1521 56.5819 88.638C57.0678 89.124 57.6869 89.4549 58.3609 89.5889C59.0349 89.723 59.7335 89.6542 60.3684 89.3912C61.0033 89.1282 61.546 88.6829 61.9278 88.1115C62.3096 87.5401 62.5134 86.8683 62.5134 86.1811C62.5128 85.2596 62.1466 84.3759 61.4952 83.7241C60.8438 83.0723 59.9603 82.7055 59.0388 82.7044V82.7065Z" fill="#F5F5FF"/>
<path d="M95.856 149.324C95.586 149.324 95.3258 149.223 95.1266 149.041C94.9274 148.858 94.8035 148.608 94.7794 148.339C94.7553 148.07 94.8326 147.802 94.9963 147.588C95.1599 147.373 95.3979 147.227 95.6636 147.179C98.9148 146.568 101.862 144.87 104.023 142.365C106.183 139.859 107.429 136.695 107.555 133.389C107.56 133.247 107.593 133.107 107.652 132.978C107.711 132.848 107.794 132.732 107.898 132.635C108.108 132.439 108.387 132.335 108.673 132.344C108.815 132.349 108.955 132.382 109.084 132.441C109.213 132.5 109.33 132.583 109.427 132.687C109.524 132.791 109.599 132.913 109.649 133.046C109.699 133.179 109.722 133.32 109.718 133.462C109.572 137.26 108.142 140.896 105.66 143.775C103.178 146.653 99.7923 148.604 96.0571 149.307C95.9908 149.319 95.9234 149.325 95.856 149.324V149.324Z" fill="#F5F5FF"/>
<path d="M108.654 129.6C108.367 129.6 108.092 129.486 107.889 129.284C107.686 129.081 107.572 128.806 107.572 128.519V127.568C107.572 127.281 107.686 127.006 107.889 126.803C108.092 126.601 108.367 126.487 108.654 126.487C108.94 126.487 109.215 126.601 109.418 126.803C109.621 127.006 109.735 127.281 109.735 127.568V128.519C109.735 128.806 109.621 129.081 109.418 129.284C109.215 129.486 108.94 129.6 108.654 129.6Z" fill="#F5F5FF"/>
<path d="M54.3227 13.5228C54.0933 13.5227 53.8698 13.4498 53.6846 13.3144C53.4995 13.179 53.3621 12.9882 53.2926 12.7696C53.223 12.551 53.2248 12.3159 53.2976 12.0984C53.3705 11.8808 53.5106 11.6921 53.6978 11.5595L53.9248 11.3952C54.1605 11.2265 54.3962 11.0579 54.6405 10.9022C54.8822 10.748 55.1753 10.696 55.4553 10.7579C55.7353 10.8197 55.9792 10.9902 56.1335 11.2319C56.2877 11.4736 56.3397 11.7667 56.2778 12.0467C56.216 12.3267 56.0455 12.5707 55.8038 12.7249C55.5875 12.859 55.3908 13.006 55.1854 13.1573L54.9454 13.3282C54.7628 13.4556 54.5453 13.5236 54.3227 13.5228V13.5228Z" fill="#F5F5FF"/>
<path d="M76.2179 11.2671C76.0423 11.2669 75.8694 11.2238 75.7141 11.1417C73.0912 9.80802 70.1805 9.13975 67.2385 9.19578L66.6374 9.21092C64.5601 9.35451 62.5108 9.77106 60.5422 10.4498C60.4071 10.5005 60.2631 10.5236 60.1188 10.5177C59.9746 10.5119 59.833 10.4771 59.7023 10.4157C59.5717 10.3542 59.4547 10.2671 59.3583 10.1597C59.2618 10.0522 59.1879 9.92657 59.1408 9.79009C59.0937 9.65361 59.0745 9.50908 59.0841 9.36503C59.0938 9.22098 59.1323 9.08033 59.1972 8.95137C59.2621 8.82242 59.3522 8.70778 59.4622 8.61421C59.5721 8.52064 59.6997 8.45005 59.8374 8.40659C62.0017 7.65875 64.2555 7.20071 66.5401 7.04443L67.2147 7.02713C70.5188 6.96813 73.7864 7.72489 76.7282 9.23038C76.9417 9.34326 77.1112 9.52436 77.2097 9.7448C77.3083 9.96524 77.3302 10.2123 77.272 10.4467C77.2138 10.681 77.0788 10.8891 76.8885 11.0378C76.6983 11.1865 76.4637 11.2673 76.2223 11.2671H76.2179Z" fill="#F5F5FF"/>
<path d="M95.7849 112.409C92.1851 112.511 88.6912 111.185 86.0646 108.722C83.4381 106.258 81.892 102.856 81.7633 99.2568V21.3801C82.6714 16.2514 86.7601 13.4471 92.9741 13.5141C101.19 14.0698 107.381 19.1617 110.937 28.2471C114.58 29.2279 117.815 31.3453 120.172 34.2913C122.529 37.2372 123.885 40.8582 124.042 44.6276C124.049 45.192 124.018 45.7561 123.949 46.3163C126.061 47.9291 127.777 50.003 128.966 52.3797C130.155 54.7565 130.786 57.3734 130.81 60.0309C130.797 62.3136 130.326 64.5704 129.424 66.6674C128.522 68.7644 127.208 70.6589 125.56 72.2384C126.772 74.5765 127.402 77.1725 127.396 79.806C127.308 83.157 126.269 86.414 124.402 89.1977C122.534 91.9814 119.914 94.1772 116.847 95.5292C115.629 105.049 106.52 112.409 95.7849 112.409V112.409ZM92.7298 15.6741C89.7957 15.6741 84.8293 16.4633 83.9147 21.5725L83.932 99.259C84.0492 102.263 85.3445 105.101 87.5375 107.157C89.7306 109.214 92.6452 110.325 95.6509 110.249C105.649 110.249 113.977 103.425 114.749 94.7141C114.766 94.52 114.836 94.3341 114.95 94.1761C115.064 94.0182 115.219 93.894 115.398 93.8168C118.22 92.6928 120.654 90.7694 122.399 88.2825C124.144 85.7957 125.126 82.8534 125.223 79.8168C125.229 77.2696 124.553 74.7672 123.266 72.5693C123.142 72.3543 123.096 72.1033 123.136 71.8585C123.175 71.6136 123.297 71.3898 123.482 71.2244C125.085 69.8304 126.374 68.112 127.264 66.1828C128.154 64.2535 128.624 62.1574 128.643 60.033C128.613 57.5996 128.006 55.2081 126.872 53.0549C125.738 50.9016 124.109 49.0479 122.12 47.646C121.949 47.5196 121.819 47.3455 121.746 47.1455C121.673 46.9455 121.661 46.7285 121.711 46.5217C121.839 45.8994 121.894 45.2647 121.878 44.6298C121.71 41.2397 120.444 37.9963 118.27 35.3895C116.096 32.7827 113.133 30.9542 109.828 30.1801C109.664 30.1342 109.513 30.0501 109.387 29.9348C109.262 29.8194 109.165 29.676 109.106 29.5163C105.863 20.8417 100.401 16.1865 92.8898 15.6784L92.7298 15.6741Z" fill="#F5F5FF"/>
<path d="M64.3657 112.409C53.4835 112.409 44.3722 105.057 43.1765 95.5437C40.1091 94.1917 37.489 91.9959 35.6213 89.2122C33.7537 86.4285 32.7154 83.1715 32.6273 79.8205C32.6213 77.187 33.251 74.591 34.463 72.2529C32.815 70.6734 31.5011 68.7789 30.5993 66.6819C29.6975 64.5849 29.2261 62.328 29.2133 60.0454C29.2372 57.3879 29.8676 54.771 31.0566 52.3942C32.2455 50.0174 33.9616 47.9436 36.0738 46.3308C36.0048 45.7706 35.9738 45.2064 35.9808 44.6421C36.1348 40.8706 37.4884 37.2466 39.8446 34.2977C42.2009 31.3488 45.4368 29.2289 49.0814 28.2464C52.6381 19.1654 58.8111 14.0691 66.9819 13.5156H67.1981C73.3603 13.5156 77.3603 16.3048 78.2251 21.1891L78.2424 99.2562C78.1238 102.833 76.6008 106.219 74.0035 108.68C71.4062 111.142 67.9435 112.482 64.3657 112.409V112.409ZM67.2262 15.6756H67.0554C59.6068 16.1837 54.1516 20.8389 50.9019 29.5135C50.8424 29.6732 50.7459 29.8166 50.6204 29.932C50.4949 30.0473 50.3439 30.1314 50.1797 30.1772C46.875 30.9514 43.9119 32.7799 41.7381 35.3867C39.5642 37.9935 38.2978 41.2369 38.13 44.627C38.1134 45.2619 38.1692 45.8966 38.2965 46.5189C38.3466 46.7257 38.3346 46.9427 38.2619 47.1427C38.1892 47.3427 38.0591 47.5168 37.8879 47.6432C35.8986 49.0451 34.2702 50.8988 33.1362 53.0521C32.0023 55.2053 31.3951 57.5968 31.3646 60.0302C31.384 62.1546 31.8541 64.2507 32.7438 66.1799C33.6335 68.1092 34.9225 69.8276 36.5257 71.2216C36.7105 71.3869 36.8329 71.6108 36.8722 71.8557C36.9116 72.1005 36.8656 72.3515 36.7419 72.5664C35.4545 74.7644 34.7789 77.2668 34.7851 79.814C34.8816 82.8505 35.8621 85.7928 37.6066 88.2801C39.3511 90.7674 41.7836 92.6914 44.6057 93.8162C44.7847 93.8934 44.9394 94.0175 45.0536 94.1755C45.1678 94.3334 45.2371 94.5193 45.2543 94.7135C46.0262 103.425 54.3549 110.249 64.2122 110.249C67.2391 110.352 70.1844 109.255 72.4059 107.196C74.6274 105.138 75.945 102.284 76.0716 99.2583V21.3794C75.1722 16.467 70.2208 15.6756 67.2262 15.6756V15.6756Z" fill="#F5F5FF"/>
<path d="M93.043 143.103H66.9587C64.2518 143.1 61.6566 142.023 59.7425 140.109C57.8284 138.195 56.7518 135.6 56.749 132.893V110.13H103.251V132.893C103.248 135.599 102.171 138.194 100.258 140.108C98.3442 142.022 95.7496 143.099 93.043 143.103ZM58.9133 112.292V132.895C58.9156 135.029 59.7642 137.074 61.2729 138.583C62.7816 140.092 64.8272 140.94 66.9609 140.943H93.043C95.1767 140.94 97.2223 140.092 98.731 138.583C100.24 137.074 101.088 135.029 101.091 132.895V112.292H58.9133Z" fill="#F5F5FF"/>
<path d="M70.2408 61.9849C70.6114 61.9843 70.9671 62.1308 71.2298 62.3923C71.4925 62.6538 71.6407 63.0088 71.6418 63.3795L71.67 78.1254C71.67 78.4961 71.5227 78.8517 71.2605 79.1138C70.9984 79.376 70.6428 79.5232 70.2721 79.5232C69.9014 79.5232 69.5458 79.376 69.2837 79.1138C69.0215 78.8517 68.8743 78.4961 68.8743 78.1254L68.8461 63.3795C68.8473 63.0099 68.9946 62.6559 69.2559 62.3946C69.5172 62.1333 69.8712 61.986 70.2408 61.9849V61.9849Z" fill="#F5F5FF"/>
<path d="M70.2326 56.7407C70.6033 56.7401 70.959 56.8867 71.2217 57.1482C71.4844 57.4096 71.6326 57.7647 71.6337 58.1353V58.8683C71.6337 59.239 71.4865 59.5946 71.2243 59.8567C70.9622 60.1188 70.6066 60.2661 70.2359 60.2661C69.8652 60.2661 69.5096 60.1188 69.2475 59.8567C68.9853 59.5946 68.838 59.239 68.838 58.8683V58.1353C68.8392 57.7658 68.9865 57.4117 69.2478 57.1505C69.5091 56.8892 69.8631 56.7419 70.2326 56.7407V56.7407Z" fill="#F5F5FF"/>
</svg>
