<svg width="32" height="32" viewBox="0 0 32 32" fill="none" xmlns="http://www.w3.org/2000/svg">
<path d="M15.9997 30.5224C16.5387 30.5224 17.0557 30.3083 17.4369 29.9271C17.818 29.546 18.0321 29.029 18.0321 28.49V28.0325H13.9673V28.4883C13.9671 28.7553 14.0195 29.0198 14.1215 29.2666C14.2235 29.5133 14.3732 29.7376 14.562 29.9265C14.7507 30.1154 14.9748 30.2653 15.2215 30.3675C15.4682 30.4698 15.7327 30.5224 15.9997 30.5224Z" fill="#FF8662"/>
<path d="M16.0001 30.7385C15.4037 30.7373 14.8322 30.4997 14.4107 30.0778C13.9892 29.6559 13.7522 29.0841 13.7515 28.4877V27.8162H18.2487V28.4882C18.2479 29.0845 18.0108 29.6561 17.5894 30.0779C17.1679 30.4997 16.5964 30.7373 16.0001 30.7385ZM14.1839 28.2482V28.4877C14.1839 28.9699 14.3755 29.4324 14.7164 29.7734C15.0574 30.1143 15.5198 30.3059 16.0021 30.3059C16.4843 30.3059 16.9467 30.1143 17.2877 29.7734C17.6287 29.4324 17.8202 28.9699 17.8202 28.4877V28.2482H14.1839Z" fill="#F5F5FF"/>
<path d="M11.5659 22.2422H20.4333V26.5786C20.4333 27.0628 20.241 27.5272 19.8986 27.8696C19.5562 28.212 19.0918 28.4043 18.6076 28.4043H13.3912C12.9069 28.4043 12.4426 28.212 12.1002 27.8696C11.7578 27.5272 11.5654 27.0628 11.5654 26.5786V22.2422H11.5659Z" fill="#FF8662"/>
<path d="M20.4328 22.24V26.5773C20.4329 27.0617 20.2408 27.5264 19.8987 27.8693C19.5566 28.2122 19.0923 28.4054 18.6079 28.4065H17.3452C17.8296 28.4054 18.2939 28.2122 18.636 27.8693C18.9781 27.5264 19.1702 27.0617 19.1701 26.5773V22.24H20.4328Z" fill="#FF8662"/>
<path d="M11.5659 24.0737H20.4338V24.5062H11.5659V24.0737Z" fill="#F5F5FF"/>
<path d="M11.5659 26.1399H20.4338V26.5723H11.5659V26.1399Z" fill="#F5F5FF"/>
<path d="M8.25488 1.38721L8.6489 1.20902L9.67047 3.46788L9.27646 3.64608L8.25488 1.38721Z" fill="#F5F5FF"/>
<path d="M4.97437 4.04785L5.24637 3.71185L7.17266 5.27123L6.90065 5.60723L4.97437 4.04785Z" fill="#F5F5FF"/>
<path d="M3.23682 7.8916L3.32883 7.46954L5.75095 7.99759L5.65893 8.41965L3.23682 7.8916Z" fill="#F5F5FF"/>
<path d="M22.3247 3.46948L23.3463 1.21061L23.7403 1.3888L22.7187 3.64767L22.3247 3.46948Z" fill="#F5F5FF"/>
<path d="M24.814 5.26685L26.7403 3.70747L27.0123 4.04347L25.086 5.60285L24.814 5.26685Z" fill="#F5F5FF"/>
<path d="M26.2449 7.99976L28.667 7.4717L28.759 7.89376L26.3369 8.42182L26.2449 7.99976Z" fill="#F5F5FF"/>
<path d="M15.282 19.3181H17.106V19.7506H15.282V19.3181Z" fill="#F5F5FF"/>
<path d="M15.282 6.54053H17.106V6.97296H15.282V6.54053Z" fill="#F5F5FF"/>
<path d="M22.0219 5.82699C22.7298 5.99177 23.3642 6.38394 23.828 6.94351C24.2918 7.50308 24.5595 8.19921 24.5901 8.92537C24.5938 9.06941 24.5806 9.21339 24.5508 9.35434C24.9755 9.65519 25.3231 10.0523 25.5651 10.5131C25.8071 10.974 25.9367 11.4855 25.9432 12.006C25.9394 12.4612 25.8391 12.9103 25.6488 13.3238C25.4586 13.7373 25.1828 14.1057 24.8396 14.4047C25.1151 14.8773 25.2602 15.4145 25.2599 15.9615C25.2427 16.6116 25.0349 17.2423 24.6624 17.7754C24.2898 18.3084 23.7689 18.7203 23.1644 18.96C23 20.8121 21.266 22.2642 19.1574 22.2642H19.128C18.4704 22.2769 17.834 22.0311 17.3555 21.5797C16.8771 21.1283 16.5948 20.5072 16.5693 19.8499V4.27586C16.7367 3.3418 17.5306 2.9085 18.5905 2.91888C20.6658 3.05986 21.5946 4.68667 22.0219 5.82699Z" fill="#9A95F3"/>
<path d="M21.9723 19.9222C22.4122 19.7299 22.8114 19.4554 23.1485 19.1135C23.0589 19.6791 22.835 20.2149 22.4957 20.6761C22.1564 21.1373 21.7115 21.5105 21.1982 21.7643C21.6394 21.2444 21.9096 20.6012 21.9723 19.9222Z" fill="#5D55FF"/>
<path d="M24.8389 14.4043C25.1132 14.8772 25.2579 15.4142 25.2584 15.961C25.2447 16.5748 25.0597 17.1726 24.7242 17.6869C24.3888 18.2011 23.9162 18.6114 23.36 18.8713C23.7613 18.3864 24.0039 17.79 24.0549 17.1627C24.106 16.5354 23.963 15.9076 23.6454 15.3643C23.9886 15.0651 24.2644 14.6964 24.4545 14.2827C24.6445 13.8689 24.7446 13.4196 24.7481 12.9643C24.7423 12.4438 24.613 11.9321 24.371 11.4712C24.1289 11.0104 23.7809 10.6136 23.3557 10.3135C23.3863 10.1729 23.3994 10.0291 23.3946 9.88535C23.3648 9.15863 23.0974 8.46174 22.6334 7.90165C22.1694 7.34156 21.5344 6.9492 20.8259 6.78481C20.4022 5.64319 19.4724 4.01724 17.3968 3.87886C17.1496 3.87347 16.9028 3.89816 16.6616 3.95238C16.9384 3.24319 17.6605 2.91022 18.5903 2.91887C20.6659 3.06157 21.5957 4.68751 22.0238 5.82913C22.7311 5.99355 23.365 6.38545 23.8282 6.94473C24.2914 7.504 24.5583 8.19978 24.5881 8.92535C24.5929 9.06911 24.5798 9.21291 24.5492 9.35345C24.9741 9.65396 25.3218 10.0508 25.5638 10.5116C25.8059 10.9723 25.9353 11.4839 25.9416 12.0043C25.9381 12.4596 25.8381 12.9089 25.648 13.3227C25.4579 13.7364 25.1821 14.1051 24.8389 14.4043Z" fill="#5D55FF"/>
<path d="M20.7055 14.6264C20.6642 14.6265 20.6237 14.6148 20.5888 14.5926C20.554 14.5704 20.5262 14.5387 20.5088 14.5012C20.4914 14.4637 20.4852 14.422 20.4907 14.381C20.4963 14.3401 20.5135 14.3016 20.5403 14.2701C20.7895 13.9271 21.1126 13.6444 21.4857 13.443C21.8589 13.2416 22.2725 13.1266 22.696 13.1064C24.0063 13.1064 24.965 14.2226 25.0047 14.2701C25.0403 14.3141 25.0572 14.3701 25.0519 14.4264C25.0465 14.4826 25.0194 14.5346 24.9763 14.5711C24.9332 14.6076 24.8775 14.6257 24.8212 14.6217C24.7648 14.6177 24.7123 14.5917 24.6748 14.5495C24.6662 14.5395 23.803 13.5389 22.696 13.5389H22.6934C22.3336 13.5612 21.9833 13.6634 21.668 13.8382C21.3527 14.0129 21.0803 14.2558 20.8707 14.549C20.8505 14.5732 20.8252 14.5926 20.7967 14.606C20.7681 14.6194 20.737 14.6264 20.7055 14.6264Z" fill="#F5F5FF"/>
<path d="M22.3844 13.5623C22.3603 13.5624 22.3363 13.5585 22.3135 13.5507C21.9271 13.4092 21.5779 13.1815 21.2927 12.8849C21.0075 12.5882 20.7938 12.2304 20.6677 11.8387C20.6605 11.8112 20.6588 11.7825 20.6627 11.7544C20.6666 11.7263 20.6759 11.6992 20.6903 11.6746C20.7047 11.6501 20.7237 11.6287 20.7463 11.6115C20.769 11.5944 20.7948 11.5818 20.8223 11.5747C20.8498 11.5675 20.8784 11.5658 20.9065 11.5697C20.9347 11.5735 20.9618 11.5829 20.9863 11.5973C21.0108 11.6116 21.0322 11.6307 21.0494 11.6533C21.0666 11.676 21.0791 11.7018 21.0863 11.7293C21.1961 12.0512 21.3758 12.3449 21.6125 12.5892C21.8492 12.8335 22.137 13.0224 22.4554 13.1424C22.5036 13.1593 22.5443 13.1927 22.5702 13.2366C22.5962 13.2806 22.6057 13.3324 22.5972 13.3827C22.5886 13.4331 22.5625 13.4788 22.5235 13.5117C22.4845 13.5447 22.4351 13.5628 22.384 13.5628L22.3844 13.5623Z" fill="#F5F5FF"/>
<path d="M20.0619 6.31349C20.0134 6.3135 19.9663 6.29717 19.9282 6.26715C19.89 6.23713 19.8631 6.19516 19.8517 6.14799C19.8404 6.10082 19.8452 6.05119 19.8654 6.00708C19.8857 5.96298 19.9201 5.92697 19.9633 5.90484C20.6149 5.56387 21.3658 5.46357 22.084 5.6216C22.1384 5.63776 22.1842 5.67464 22.2116 5.72429C22.2391 5.77395 22.2459 5.83239 22.2306 5.88703C22.2154 5.94167 22.1793 5.98812 22.1301 6.01637C22.0809 6.04461 22.0225 6.0524 21.9677 6.03803C21.3538 5.91341 20.7157 6.00268 20.1597 6.29101C20.1293 6.30606 20.0958 6.31376 20.0619 6.31349Z" fill="#F5F5FF"/>
<path d="M23.0978 19.177C22.6146 19.2085 22.1304 19.1357 21.6778 18.9636C21.2252 18.7916 20.8149 18.5243 20.4746 18.1798C20.4555 18.1589 20.4406 18.1343 20.4309 18.1076C20.4213 18.081 20.4169 18.0526 20.4182 18.0242C20.4194 17.9959 20.4263 17.968 20.4383 17.9423C20.4503 17.9166 20.4673 17.8935 20.4883 17.8743C20.5092 17.8551 20.5337 17.8403 20.5604 17.8306C20.5871 17.8209 20.6155 17.8166 20.6438 17.8178C20.6722 17.8191 20.7001 17.8259 20.7258 17.838C20.7515 17.85 20.7746 17.867 20.7938 17.8879C21.1588 18.2875 21.861 18.7645 23.1631 18.7441H23.1657C23.223 18.7438 23.2782 18.7663 23.319 18.8066C23.3597 18.8469 23.3829 18.9017 23.3832 18.9591C23.3835 19.0164 23.3611 19.0715 23.3208 19.1123C23.2805 19.1531 23.2256 19.1762 23.1683 19.1766L23.0978 19.177Z" fill="#F5F5FF"/>
<path d="M19.2805 7.47168C19.7837 7.47168 20.1916 7.06375 20.1916 6.56055C20.1916 6.05734 19.7837 5.64941 19.2805 5.64941C18.7773 5.64941 18.3694 6.05734 18.3694 6.56055C18.3694 7.06375 18.7773 7.47168 19.2805 7.47168Z" fill="#F5F5FF"/>
<path d="M19.2809 7.68781C19.0579 7.68781 18.8399 7.62168 18.6545 7.49778C18.4691 7.37389 18.3247 7.1978 18.2393 6.99177C18.154 6.78575 18.1317 6.55906 18.1753 6.34036C18.2188 6.12167 18.3262 5.92079 18.4839 5.76315C18.6416 5.6055 18.8425 5.49817 19.0612 5.45471C19.28 5.41126 19.5066 5.43365 19.7126 5.51904C19.9186 5.60444 20.0947 5.749 20.2185 5.93445C20.3423 6.1199 20.4083 6.3379 20.4083 6.56089C20.4078 6.8597 20.2889 7.14613 20.0775 7.35739C19.8662 7.56864 19.5797 7.68746 19.2809 7.68781ZM19.2809 5.86597C19.1435 5.86597 19.0091 5.90673 18.8948 5.98309C18.7806 6.05944 18.6915 6.16797 18.6389 6.29495C18.5863 6.42193 18.5725 6.56166 18.5993 6.69646C18.6262 6.83126 18.6923 6.95508 18.7895 7.05227C18.8867 7.14946 19.0105 7.21564 19.1453 7.24245C19.2801 7.26927 19.4199 7.25551 19.5468 7.20291C19.6738 7.15031 19.7824 7.06124 19.8587 6.94696C19.9351 6.83269 19.9758 6.69833 19.9758 6.56089C19.9758 6.37654 19.9026 6.19975 19.7723 6.06935C19.642 5.93896 19.4653 5.86565 19.2809 5.86554V5.86597Z" fill="#F5F5FF"/>
<path d="M20.6658 11.8113C21.169 11.8113 21.5769 11.4034 21.5769 10.9002C21.5769 10.3969 21.169 9.98901 20.6658 9.98901C20.1626 9.98901 19.7546 10.3969 19.7546 10.9002C19.7546 11.4034 20.1626 11.8113 20.6658 11.8113Z" fill="#F5F5FF"/>
<path d="M20.6656 12.0274C20.4427 12.0271 20.2248 11.9608 20.0396 11.8368C19.8544 11.7127 19.7101 11.5365 19.625 11.3305C19.5398 11.1244 19.5177 10.8978 19.5614 10.6792C19.6051 10.4606 19.7126 10.2598 19.8704 10.1023C20.0281 9.94477 20.229 9.83757 20.4477 9.79422C20.6664 9.75087 20.893 9.77334 21.0989 9.85877C21.3048 9.9442 21.4808 10.0888 21.6046 10.2742C21.7283 10.4596 21.7943 10.6776 21.7943 10.9005C21.7938 11.1995 21.6747 11.4862 21.4631 11.6974C21.2515 11.9087 20.9646 12.0274 20.6656 12.0274ZM20.6656 10.2056C20.5282 10.2058 20.394 10.2468 20.2799 10.3233C20.1658 10.3998 20.0769 10.5084 20.0245 10.6355C19.9721 10.7625 19.9585 10.9021 19.9855 11.0369C20.0125 11.1716 20.0787 11.2953 20.176 11.3923C20.2732 11.4894 20.397 11.5554 20.5318 11.5821C20.6666 11.6089 20.8062 11.595 20.9331 11.5424C21.06 11.4897 21.1685 11.4007 21.2448 11.2864C21.3211 11.1722 21.3618 11.0379 21.3618 10.9005C21.3618 10.8091 21.3437 10.7187 21.3087 10.6343C21.2737 10.55 21.2224 10.4733 21.1577 10.4088C21.093 10.3442 21.0163 10.2931 20.9319 10.2582C20.8474 10.2233 20.757 10.2055 20.6656 10.2056Z" fill="#F5F5FF"/>
<path d="M20.1916 18.147C20.6949 18.147 21.1028 17.739 21.1028 17.2358C21.1028 16.7326 20.6949 16.3247 20.1916 16.3247C19.6884 16.3247 19.2805 16.7326 19.2805 17.2358C19.2805 17.739 19.6884 18.147 20.1916 18.147Z" fill="#F5F5FF"/>
<path d="M20.192 18.3633C19.969 18.3634 19.751 18.2974 19.5656 18.1736C19.3801 18.0497 19.2355 17.8737 19.1501 17.6677C19.0648 17.4617 19.0424 17.235 19.0858 17.0163C19.1293 16.7976 19.2366 16.5967 19.3942 16.439C19.5519 16.2813 19.7528 16.1739 19.9715 16.1303C20.1902 16.0868 20.4169 16.1091 20.6229 16.1944C20.8289 16.2797 21.005 16.4242 21.1289 16.6096C21.2528 16.795 21.3189 17.013 21.3189 17.236C21.3186 17.5348 21.1997 17.8213 20.9885 18.0326C20.7772 18.2439 20.4908 18.3629 20.192 18.3633ZM20.192 16.5415C20.0545 16.5414 19.9201 16.5821 19.8058 16.6584C19.6914 16.7348 19.6023 16.8433 19.5496 16.9703C19.497 17.0973 19.4832 17.237 19.51 17.3719C19.5368 17.5067 19.603 17.6306 19.7002 17.7278C19.7974 17.825 19.9212 17.8912 20.0561 17.918C20.1909 17.9448 20.3307 17.931 20.4577 17.8784C20.5847 17.8257 20.6932 17.7366 20.7695 17.6222C20.8459 17.5079 20.8866 17.3735 20.8865 17.236C20.8862 17.0518 20.813 16.8753 20.6828 16.745C20.5527 16.6148 20.3761 16.5414 20.192 16.5411V16.5415Z" fill="#F5F5FF"/>
<path d="M9.97794 5.82699C9.27006 5.99177 8.63567 6.38394 8.17185 6.94351C7.70803 7.50308 7.44033 8.19921 7.40972 8.92537C7.40599 9.06941 7.4192 9.21339 7.44907 9.35434C7.02429 9.65519 6.6767 10.0523 6.43469 10.5131C6.19269 10.974 6.06315 11.4855 6.05664 12.006C6.06042 12.4612 6.16074 12.9103 6.35098 13.3238C6.54122 13.7373 6.81703 14.1057 7.16021 14.4047C6.8847 14.8773 6.73964 15.4145 6.73988 15.9615C6.75714 16.6116 6.96493 17.2423 7.33747 17.7754C7.71 18.3084 8.23088 18.7203 8.83545 18.96C8.99978 20.8121 10.7338 22.2642 12.8424 22.2642H12.8718C13.5294 22.2769 14.1659 22.0311 14.6443 21.5797C15.1227 21.1283 15.405 20.5072 15.4305 19.8499V4.27586C15.2631 3.3418 14.4692 2.9085 13.4093 2.91888C11.334 3.05986 10.4052 4.68667 9.97794 5.82699Z" fill="#9A95F3"/>
<path d="M7.74878 15.3645C7.47392 15.8373 7.32919 16.3744 7.32932 16.9212C7.32856 17.3004 7.40049 17.6762 7.54121 18.0283C7.03048 17.4604 6.74583 16.725 6.74122 15.9612C6.74037 15.4707 6.85754 14.9872 7.08284 14.5515C7.26147 14.8553 7.48612 15.1295 7.74878 15.3645Z" fill="#5D55FF"/>
<path d="M15.4253 4.25505C15.0022 3.98013 14.502 3.84826 13.9983 3.87883C11.9269 4.01721 10.9972 5.64315 10.5691 6.78478C9.86118 6.95029 9.22687 7.34296 8.76306 7.90282C8.29924 8.46268 8.03141 9.15895 8.00046 9.88532C7.99779 10.029 8.01084 10.1726 8.03938 10.3134C7.61478 10.6143 7.26732 11.0112 7.02534 11.4719C6.78335 11.9326 6.65369 12.4439 6.64695 12.9642C6.64647 13.3486 6.71683 13.7297 6.85451 14.0886C6.34328 13.5145 6.0602 12.7729 6.05884 12.0042C6.06513 11.4838 6.19459 10.9723 6.43662 10.5116C6.67864 10.0508 7.02635 9.65394 7.45127 9.35342C7.42061 9.21288 7.40754 9.06908 7.41235 8.92532C7.44213 8.19974 7.70909 7.50397 8.17229 6.9447C8.63549 6.38542 9.26935 5.99352 9.97668 5.8291C10.4048 4.68748 11.3345 3.06153 13.4102 2.91883C14.461 2.91018 15.248 3.33397 15.4253 4.25505Z" fill="#5D55FF"/>
<path d="M11.2942 14.6264C11.2628 14.6265 11.2317 14.6196 11.2032 14.6064C11.1746 14.5932 11.1493 14.5739 11.129 14.5499C10.9194 14.2566 10.647 14.0138 10.3317 13.839C10.0164 13.6643 9.66612 13.562 9.30632 13.5397H9.30372C8.19669 13.5397 7.33356 14.54 7.32491 14.5503C7.28775 14.5941 7.23471 14.6214 7.17746 14.6261C7.1202 14.6308 7.06342 14.6126 7.01961 14.5754C6.9758 14.5383 6.94855 14.4852 6.94384 14.428C6.93914 14.3707 6.95737 14.3139 6.99453 14.2701C7.03475 14.2226 7.99302 13.1064 9.30329 13.1064C9.72689 13.1265 10.1406 13.2415 10.5138 13.4429C10.887 13.6443 11.2101 13.927 11.4594 14.2701C11.486 14.3016 11.5031 14.34 11.5086 14.3808C11.5141 14.4217 11.5079 14.4632 11.4906 14.5006C11.4732 14.538 11.4456 14.5697 11.4109 14.5919C11.3762 14.6141 11.3358 14.626 11.2946 14.626L11.2942 14.6264Z" fill="#F5F5FF"/>
<path d="M9.6154 13.5623C9.56433 13.5623 9.5149 13.5442 9.47588 13.5113C9.43686 13.4783 9.41077 13.4326 9.40222 13.3822C9.39367 13.3319 9.40322 13.2801 9.42918 13.2362C9.45514 13.1922 9.49583 13.1588 9.54405 13.142C9.86235 13.022 10.1502 12.833 10.3869 12.5887C10.6236 12.3444 10.8033 12.0507 10.9131 11.7288C10.9203 11.7013 10.9328 11.6755 10.95 11.6528C10.9671 11.6302 10.9886 11.6111 11.0131 11.5968C11.0376 11.5824 11.0647 11.573 11.0929 11.5692C11.121 11.5653 11.1496 11.567 11.1771 11.5742C11.2046 11.5814 11.2304 11.5939 11.2531 11.611C11.2757 11.6282 11.2947 11.6496 11.3091 11.6742C11.3235 11.6987 11.3328 11.7258 11.3367 11.7539C11.3406 11.7821 11.3389 11.8107 11.3317 11.8382C11.2057 12.2299 10.992 12.5876 10.7069 12.8843C10.4217 13.181 10.0727 13.4087 9.68632 13.5502C9.66352 13.5581 9.63955 13.5622 9.6154 13.5623Z" fill="#F5F5FF"/>
<path d="M11.9378 6.31365C11.9037 6.31358 11.8701 6.30543 11.8397 6.28986C11.2847 5.99896 10.6461 5.90941 10.0325 6.03646C9.97938 6.04658 9.92435 6.0364 9.87833 6.00793C9.83231 5.97945 9.79864 5.93475 9.78397 5.88265C9.7693 5.83056 9.77471 5.77486 9.79911 5.72655C9.82352 5.67825 9.86515 5.64085 9.91579 5.62175C10.6336 5.46443 11.3839 5.56518 12.0347 5.90629C12.0779 5.92842 12.1124 5.96443 12.1326 6.00853C12.1529 6.05264 12.1577 6.10227 12.1463 6.14944C12.1349 6.19661 12.108 6.23858 12.0699 6.2686C12.0318 6.29862 11.9846 6.31495 11.9361 6.31494L11.9378 6.31365Z" fill="#F5F5FF"/>
<path d="M8.90205 19.177H8.83113C8.80274 19.1768 8.77466 19.1711 8.74849 19.1601C8.72232 19.149 8.69858 19.133 8.67863 19.1128C8.63832 19.072 8.61587 19.0168 8.61621 18.9595C8.61656 18.9022 8.63967 18.8473 8.68046 18.807C8.72125 18.7667 8.77638 18.7442 8.83373 18.7446H8.90162C9.32467 18.7751 9.74933 18.7144 10.1469 18.5666C10.5445 18.4188 10.9057 18.1874 11.2061 17.8879C11.2448 17.8456 11.2987 17.8204 11.356 17.8178C11.4133 17.8153 11.4693 17.8356 11.5116 17.8743C11.5539 17.913 11.5791 17.9669 11.5817 18.0242C11.5842 18.0815 11.5639 18.1375 11.5252 18.1798C11.1849 18.5243 10.7746 18.7916 10.322 18.9636C9.86947 19.1356 9.3852 19.2084 8.90205 19.177Z" fill="#F5F5FF"/>
<path d="M12.7195 7.47168C13.2227 7.47168 13.6306 7.06375 13.6306 6.56055C13.6306 6.05734 13.2227 5.64941 12.7195 5.64941C12.2163 5.64941 11.8083 6.05734 11.8083 6.56055C11.8083 7.06375 12.2163 7.47168 12.7195 7.47168Z" fill="#F5F5FF"/>
<path d="M12.7189 7.68781C12.4958 7.68789 12.2778 7.62183 12.0924 7.49799C11.9069 7.37415 11.7623 7.19809 11.677 6.99207C11.5916 6.78606 11.5692 6.55935 11.6127 6.34063C11.6562 6.1219 11.7636 5.92099 11.9213 5.7633C12.0789 5.60561 12.2799 5.49823 12.4986 5.45475C12.7173 5.41126 12.944 5.43362 13.15 5.519C13.3561 5.60438 13.5321 5.74895 13.656 5.9344C13.7798 6.11986 13.8459 6.33788 13.8458 6.56089C13.8453 6.85962 13.7264 7.14599 13.5152 7.35723C13.304 7.56847 13.0176 7.68735 12.7189 7.68781ZM12.7189 5.86597C12.5814 5.86588 12.447 5.90657 12.3327 5.98287C12.2183 6.05918 12.1292 6.16768 12.0765 6.29465C12.0239 6.42163 12.01 6.56137 12.0368 6.69619C12.0636 6.83102 12.1297 6.95489 12.2269 7.05212C12.3241 7.14935 12.4479 7.21557 12.5827 7.24242C12.7175 7.26927 12.8572 7.25553 12.9843 7.20295C13.1113 7.15037 13.2198 7.0613 13.2962 6.94701C13.3726 6.83272 13.4133 6.69835 13.4133 6.56089C13.4132 6.37665 13.34 6.19999 13.2099 6.06963C13.0797 5.93928 12.9031 5.86588 12.7189 5.86554V5.86597Z" fill="#F5F5FF"/>
<path d="M11.3342 11.8113C11.8374 11.8113 12.2454 11.4034 12.2454 10.9002C12.2454 10.3969 11.8374 9.98901 11.3342 9.98901C10.831 9.98901 10.4231 10.3969 10.4231 10.9002C10.4231 11.4034 10.831 11.8113 11.3342 11.8113Z" fill="#F5F5FF"/>
<path d="M11.3336 12.0272C11.1106 12.0272 10.8926 11.9612 10.7072 11.8374C10.5217 11.7136 10.3771 11.5375 10.2917 11.3315C10.2064 11.1255 10.184 10.8989 10.2274 10.6801C10.2709 10.4614 10.3782 10.2605 10.5359 10.1028C10.6935 9.9451 10.8944 9.83769 11.1131 9.79415C11.3318 9.75062 11.5585 9.77292 11.7645 9.85823C11.9705 9.94355 12.1466 10.088 12.2705 10.2734C12.3944 10.4588 12.4605 10.6768 12.4605 10.8998C12.4602 11.1986 12.3413 11.4851 12.1301 11.6964C11.9188 11.9078 11.6324 12.0267 11.3336 12.0272ZM11.3336 10.2053C11.1961 10.2052 11.0617 10.2459 10.9474 10.3223C10.833 10.3986 10.7439 10.5071 10.6912 10.6341C10.6386 10.7611 10.6248 10.9009 10.6516 11.0357C10.6784 11.1706 10.7446 11.2944 10.8418 11.3916C10.939 11.4888 11.0629 11.555 11.1977 11.5818C11.3325 11.6086 11.4723 11.5948 11.5993 11.5422C11.7263 11.4895 11.8348 11.4004 11.9111 11.286C11.9875 11.1717 12.0282 11.0373 12.0281 10.8998C12.0279 10.7157 11.9546 10.5392 11.8244 10.409C11.6942 10.2788 11.5177 10.2056 11.3336 10.2053Z" fill="#F5F5FF"/>
<path d="M11.8081 18.147C12.3113 18.147 12.7192 17.739 12.7192 17.2358C12.7192 16.7326 12.3113 16.3247 11.8081 16.3247C11.3049 16.3247 10.897 16.7326 10.897 17.2358C10.897 17.739 11.3049 18.147 11.8081 18.147Z" fill="#F5F5FF"/>
<path d="M11.8078 18.3633C11.5848 18.3633 11.3668 18.2972 11.1814 18.1733C10.996 18.0494 10.8515 17.8733 10.7662 17.6673C10.6809 17.4613 10.6586 17.2346 10.7021 17.0159C10.7456 16.7972 10.8531 16.5963 11.0108 16.4387C11.1685 16.281 11.3694 16.1737 11.5881 16.1303C11.8068 16.0868 12.0335 16.1092 12.2395 16.1946C12.4455 16.28 12.6215 16.4245 12.7453 16.61C12.8692 16.7954 12.9352 17.0134 12.9351 17.2364C12.9347 17.5352 12.8157 17.8217 12.6044 18.0329C12.3931 18.2442 12.1066 18.363 11.8078 18.3633ZM11.8078 16.5415C11.6703 16.5415 11.536 16.5823 11.4217 16.6586C11.3074 16.735 11.2183 16.8435 11.1657 16.9705C11.1132 17.0975 11.0994 17.2372 11.1262 17.372C11.153 17.5068 11.2192 17.6306 11.3164 17.7278C11.4136 17.825 11.5374 17.8912 11.6722 17.918C11.807 17.9448 11.9467 17.931 12.0737 17.8784C12.2007 17.8258 12.3092 17.7368 12.3856 17.6225C12.4619 17.5082 12.5027 17.3739 12.5027 17.2364C12.5026 17.0521 12.4293 16.8754 12.2991 16.745C12.1688 16.6146 11.9921 16.5413 11.8078 16.5411V16.5415Z" fill="#F5F5FF"/>
<path d="M19.1713 29.8648C19.1173 29.8648 19.0652 29.8445 19.0254 29.8081C18.9855 29.7717 18.9608 29.7216 18.9559 29.6679C18.9511 29.6141 18.9666 29.5605 18.9993 29.5175C19.032 29.4746 19.0796 29.4454 19.1328 29.4358C19.783 29.3135 20.3725 28.974 20.8046 28.4729C21.2367 27.9719 21.4858 27.3389 21.5111 26.6777C21.5121 26.6493 21.5187 26.6214 21.5304 26.5956C21.5422 26.5697 21.5589 26.5464 21.5797 26.527C21.6216 26.4878 21.6774 26.4669 21.7347 26.4689C21.7631 26.4698 21.791 26.4764 21.8169 26.4881C21.8428 26.4999 21.8661 26.5166 21.8854 26.5374C21.9048 26.5582 21.92 26.5825 21.9299 26.6091C21.9399 26.6357 21.9445 26.664 21.9436 26.6924C21.9146 27.452 21.6284 28.1793 21.1321 28.755C20.6357 29.3307 19.9585 29.7208 19.2115 29.8613C19.1982 29.8638 19.1847 29.8649 19.1713 29.8648Z" fill="#F5F5FF"/>
<path d="M21.7306 25.9201C21.6733 25.9201 21.6183 25.8973 21.5777 25.8567C21.5372 25.8162 21.5144 25.7612 21.5144 25.7039V25.5136C21.5144 25.4562 21.5372 25.4012 21.5777 25.3607C21.6183 25.3201 21.6733 25.2974 21.7306 25.2974C21.788 25.2974 21.843 25.3201 21.8835 25.3607C21.9241 25.4012 21.9468 25.4562 21.9468 25.5136V25.7039C21.9468 25.7612 21.9241 25.8162 21.8835 25.8567C21.843 25.8973 21.788 25.9201 21.7306 25.9201Z" fill="#F5F5FF"/>
<path d="M10.8646 2.70455C10.8188 2.70455 10.7741 2.68995 10.737 2.66287C10.7 2.63579 10.6725 2.59763 10.6586 2.55391C10.6447 2.51019 10.6451 2.46318 10.6596 2.41967C10.6742 2.37617 10.7022 2.33842 10.7397 2.3119L10.7851 2.27904C10.8322 2.24531 10.8793 2.21158 10.9282 2.18044C10.9766 2.14959 11.0352 2.13921 11.0912 2.15157C11.1472 2.16394 11.196 2.19805 11.2268 2.24639C11.2577 2.29473 11.268 2.35335 11.2557 2.40934C11.2433 2.46534 11.2092 2.51413 11.1609 2.54498C11.1176 2.57179 11.0783 2.6012 11.0372 2.63147L10.9892 2.66563C10.9527 2.69112 10.9092 2.70471 10.8646 2.70455Z" fill="#F5F5FF"/>
<path d="M15.2437 2.25343C15.2085 2.25337 15.1739 2.24477 15.1429 2.22835C14.6183 1.9616 14.0362 1.82795 13.4478 1.83916L13.3275 1.84218C12.9121 1.8709 12.5022 1.95421 12.1085 2.08997C12.0815 2.1001 12.0527 2.10472 12.0238 2.10354C11.995 2.10237 11.9667 2.09543 11.9405 2.08313C11.9144 2.07083 11.891 2.05342 11.8717 2.03194C11.8524 2.01045 11.8376 1.98531 11.8282 1.95802C11.8188 1.93072 11.815 1.90182 11.8169 1.87301C11.8188 1.8442 11.8265 1.81607 11.8395 1.79027C11.8525 1.76448 11.8705 1.74156 11.8925 1.72284C11.9145 1.70413 11.94 1.69001 11.9675 1.68132C12.4004 1.53175 12.8512 1.44014 13.3081 1.40889L13.443 1.40543C14.1038 1.39363 14.7574 1.54498 15.3457 1.84608C15.3884 1.86865 15.4223 1.90487 15.442 1.94896C15.4617 1.99305 15.4661 2.04247 15.4545 2.08934C15.4428 2.13621 15.4158 2.17783 15.3778 2.20757C15.3397 2.23731 15.2928 2.25345 15.2445 2.25343H15.2437Z" fill="#F5F5FF"/>
<path d="M19.1569 22.4817C18.4369 22.502 17.7381 22.2369 17.2128 21.7441C16.6875 21.2514 16.3783 20.5709 16.3525 19.8512V4.27582C16.5342 3.25009 17.3519 2.68922 18.5947 2.70263C20.2379 2.81376 21.476 3.83214 22.1873 5.64922C22.9159 5.84539 23.563 6.26886 24.0343 6.85805C24.5057 7.44725 24.7768 8.17144 24.8083 8.92533C24.8097 9.0382 24.8035 9.15103 24.7897 9.26306C25.2122 9.58562 25.5554 10.0004 25.7932 10.4758C26.0309 10.9511 26.157 11.4745 26.1618 12.006C26.1592 12.4625 26.065 12.9139 25.8846 13.3333C25.7043 13.7527 25.4415 14.1316 25.1119 14.4475C25.3543 14.9151 25.4802 15.4343 25.479 15.961C25.4614 16.6312 25.2537 17.2826 24.8802 17.8393C24.5067 18.3961 23.9827 18.8352 23.3692 19.1057C23.1257 21.0097 21.3039 22.4817 19.1569 22.4817ZM18.5458 3.13463C17.959 3.13463 16.9657 3.29247 16.7828 4.3143L16.7863 19.8516C16.8097 20.4525 17.0688 21.0199 17.5074 21.4313C17.946 21.8426 18.5289 22.0648 19.13 22.0497C21.1296 22.0497 22.7953 20.6849 22.9497 18.9426C22.9532 18.9038 22.967 18.8666 22.9899 18.835C23.0127 18.8034 23.0437 18.7786 23.0794 18.7632C23.644 18.5384 24.1306 18.1537 24.4797 17.6563C24.8287 17.1589 25.025 16.5705 25.0444 15.9632C25.0457 15.4537 24.9105 14.9532 24.6531 14.5137C24.6283 14.4707 24.6191 14.4205 24.627 14.3715C24.6349 14.3225 24.6593 14.2778 24.6963 14.2447C25.0169 13.9659 25.2748 13.6222 25.4527 13.2364C25.6306 12.8505 25.7247 12.4313 25.7285 12.0064C25.7224 11.5197 25.601 11.0414 25.3742 10.6108C25.1474 10.1801 24.8217 9.80939 24.4239 9.52901C24.3896 9.50373 24.3636 9.46891 24.3491 9.42891C24.3345 9.38891 24.3321 9.34551 24.3422 9.30414C24.3676 9.17969 24.3788 9.05275 24.3754 8.92576C24.3419 8.24775 24.0886 7.59907 23.6538 7.07771C23.2191 6.55635 22.6265 6.19064 21.9655 6.03582C21.9327 6.02664 21.9025 6.00983 21.8774 5.98676C21.8523 5.96369 21.833 5.93501 21.8211 5.90306C21.1724 4.16814 20.0801 3.23711 18.5778 3.13549L18.5458 3.13463Z" fill="#F5F5FF"/>
<path d="M12.8733 22.4817C10.6968 22.4817 8.87456 21.0114 8.63542 19.1087C8.02194 18.8383 7.49792 18.3992 7.12439 17.8424C6.75086 17.2857 6.54319 16.6343 6.52558 15.9641C6.52439 15.4374 6.65033 14.9182 6.89272 14.4506C6.56312 14.1347 6.30034 13.7558 6.11997 13.3364C5.93961 12.917 5.84535 12.4656 5.84277 12.0091C5.84756 11.4776 5.97365 10.9542 6.21144 10.4788C6.44923 10.0035 6.79244 9.58871 7.21488 9.26615C7.20109 9.15412 7.19488 9.04129 7.19629 8.92842C7.22707 8.17412 7.49779 7.44933 7.96905 6.85954C8.4403 6.26976 9.08748 5.84577 9.8164 5.64929C10.5277 3.83307 11.7623 2.81383 13.3965 2.70312H13.4397C14.6722 2.70312 15.4722 3.26096 15.6452 4.23783L15.6486 19.8512C15.6249 20.5666 15.3203 21.2437 14.8008 21.7361C14.2814 22.2284 13.5888 22.4963 12.8733 22.4817ZM13.4454 3.13513H13.4112C11.9215 3.23675 10.8304 4.16777 10.1805 5.90269C10.1686 5.93464 10.1493 5.96332 10.1242 5.98639C10.0991 6.00947 10.0689 6.02628 10.0361 6.03545C9.37512 6.19027 8.7825 6.55598 8.34773 7.07734C7.91297 7.5987 7.65968 8.24738 7.62613 8.9254C7.62279 9.05238 7.63397 9.17933 7.65942 9.30377C7.66944 9.34514 7.66703 9.38854 7.65249 9.42854C7.63796 9.46854 7.61194 9.50336 7.57769 9.52864C7.17985 9.80902 6.85416 10.1798 6.62737 10.6104C6.40058 11.0411 6.27915 11.5194 6.27304 12.006C6.27692 12.4309 6.37094 12.8501 6.54887 13.236C6.72681 13.6218 6.98462 13.9655 7.30526 14.2443C7.34223 14.2774 7.3667 14.3222 7.37457 14.3711C7.38244 14.4201 7.37324 14.4703 7.3485 14.5133C7.09102 14.9529 6.9559 15.4534 6.95715 15.9628C6.97643 16.5701 7.17255 17.1586 7.52144 17.656C7.87034 18.1535 8.35683 18.5383 8.92126 18.7632C8.95705 18.7787 8.98801 18.8035 9.01084 18.8351C9.03368 18.8667 9.04755 18.9039 9.05099 18.9427C9.20537 20.685 10.8711 22.0497 12.8426 22.0497C13.448 22.0704 14.037 21.851 14.4813 21.4393C14.9256 21.0276 15.1891 20.4569 15.2144 19.8517V4.27588C15.0346 3.2934 14.0443 3.13513 13.4454 3.13513Z" fill="#F5F5FF"/>
<path d="M18.6087 28.6207H13.3918C12.8504 28.6201 12.3314 28.4048 11.9486 28.022C11.5657 27.6392 11.3504 27.1202 11.3499 26.5788V22.0261H20.6502V26.5788C20.6496 27.1201 20.4343 27.6391 20.0516 28.0219C19.6689 28.4047 19.15 28.62 18.6087 28.6207ZM11.7827 22.4586V26.5792C11.7832 27.0059 11.9529 27.4151 12.2546 27.7168C12.5564 28.0185 12.9655 28.1883 13.3922 28.1887H18.6087C19.0354 28.1883 19.4445 28.0185 19.7463 27.7168C20.048 27.4151 20.2177 27.0059 20.2182 26.5792V22.4586H11.7827Z" fill="#F5F5FF"/>
<path d="M14.0482 12.397C14.1223 12.3969 14.1935 12.4262 14.246 12.4785C14.2986 12.5308 14.3282 12.6018 14.3284 12.6759L14.334 15.6251C14.334 15.6992 14.3046 15.7703 14.2522 15.8228C14.1997 15.8752 14.1286 15.9046 14.0545 15.9046C13.9803 15.9046 13.9092 15.8752 13.8568 15.8228C13.8044 15.7703 13.7749 15.6992 13.7749 15.6251L13.7693 12.6759C13.7695 12.602 13.799 12.5312 13.8512 12.4789C13.9035 12.4267 13.9743 12.3972 14.0482 12.397Z" fill="#F5F5FF"/>
<path d="M14.0465 11.3481C14.1206 11.348 14.1918 11.3773 14.2443 11.4296C14.2968 11.4819 14.3265 11.5529 14.3267 11.6271V11.7737C14.3267 11.8478 14.2973 11.9189 14.2448 11.9713C14.1924 12.0238 14.1213 12.0532 14.0471 12.0532C13.973 12.0532 13.9019 12.0238 13.8495 11.9713C13.797 11.9189 13.7676 11.8478 13.7676 11.7737V11.6271C13.7678 11.5532 13.7973 11.4823 13.8495 11.4301C13.9018 11.3778 13.9726 11.3484 14.0465 11.3481Z" fill="#F5F5FF"/>
</svg>
