<svg width="32" height="28" viewBox="0 0 32 28" fill="none" xmlns="http://www.w3.org/2000/svg">
<path d="M27.3333 11.875C26.9576 11.875 26.5972 12.0243 26.3316 12.29C26.0659 12.5556 25.9166 12.916 25.9166 13.2917V23.2084C25.9166 23.5841 25.7674 23.9444 25.5017 24.2101C25.236 24.4758 24.8757 24.625 24.5 24.625H4.66663C4.2909 24.625 3.93057 24.4758 3.66489 24.2101C3.39921 23.9444 3.24996 23.5841 3.24996 23.2084V11.875C3.24996 11.4993 3.39921 11.139 3.66489 10.8733C3.93057 10.6076 4.2909 10.4584 4.66663 10.4584H7.49996C7.80889 10.4745 8.1146 10.389 8.37041 10.2151C8.62621 10.0411 8.81806 9.78824 8.91663 9.49502L9.68163 7.17169C9.77666 6.89031 9.95773 6.64591 10.1992 6.47305C10.4407 6.30018 10.7305 6.20759 11.0275 6.20835H18.8333C19.209 6.20835 19.5693 6.0591 19.835 5.79342C20.1007 5.52774 20.25 5.16741 20.25 4.79169C20.25 4.41596 20.1007 4.05563 19.835 3.78995C19.5693 3.52428 19.209 3.37502 18.8333 3.37502H10.9566C10.0663 3.37669 9.19902 3.6579 8.47713 4.17899C7.75524 4.70007 7.21522 5.4347 6.93329 6.27919L6.47996 7.69585H4.66663C3.53946 7.69585 2.45845 8.14362 1.66142 8.94065C0.864392 9.73768 0.416626 10.8187 0.416626 11.9459V23.2792C0.416626 24.4064 0.864392 25.4874 1.66142 26.2844C2.45845 27.0814 3.53946 27.5292 4.66663 27.5292H24.5C25.6271 27.5292 26.7081 27.0814 27.5052 26.2844C28.3022 25.4874 28.75 24.4064 28.75 23.2792V13.3625C28.7596 13.1706 28.73 12.9787 28.6632 12.7986C28.5963 12.6185 28.4934 12.4538 28.3609 12.3147C28.2284 12.1755 28.069 12.0648 27.8923 11.9892C27.7156 11.9136 27.5254 11.8748 27.3333 11.875ZM14.5833 10.4584C13.4625 10.4584 12.3669 10.7907 11.4351 11.4134C10.5032 12.036 9.77687 12.921 9.34797 13.9565C8.91908 14.9919 8.80686 16.1313 9.02551 17.2305C9.24416 18.3298 9.78386 19.3395 10.5764 20.132C11.3689 20.9245 12.3786 21.4642 13.4778 21.6828C14.577 21.9015 15.7164 21.7892 16.7518 21.3603C17.7873 20.9314 18.6723 20.2051 19.295 19.2733C19.9176 18.3414 20.25 17.2458 20.25 16.125C20.25 14.6221 19.6529 13.1808 18.5902 12.1181C17.5275 11.0554 16.0862 10.4584 14.5833 10.4584ZM14.5833 18.9584C14.0229 18.9584 13.4751 18.7922 13.0092 18.4809C12.5432 18.1695 12.1801 17.727 11.9656 17.2093C11.7512 16.6916 11.6951 16.1219 11.8044 15.5723C11.9137 15.0227 12.1836 14.5178 12.5798 14.1216C12.9761 13.7253 13.4809 13.4555 14.0305 13.3461C14.5801 13.2368 15.1498 13.2929 15.6676 13.5074C16.1853 13.7218 16.6278 14.085 16.9391 14.5509C17.2505 15.0168 17.4166 15.5646 17.4166 16.125C17.4166 16.8765 17.1181 17.5971 16.5868 18.1285C16.0554 18.6598 15.3347 18.9584 14.5833 18.9584ZM30.1666 3.37502H28.75V1.95835C28.75 1.58263 28.6007 1.2223 28.335 0.956619C28.0694 0.690942 27.709 0.541687 27.3333 0.541687C26.9576 0.541687 26.5972 0.690942 26.3316 0.956619C26.0659 1.2223 25.9166 1.58263 25.9166 1.95835V3.37502H24.5C24.1242 3.37502 23.7639 3.52428 23.4982 3.78995C23.2325 4.05563 23.0833 4.41596 23.0833 4.79169C23.0833 5.16741 23.2325 5.52774 23.4982 5.79342C23.7639 6.0591 24.1242 6.20835 24.5 6.20835H25.9166V7.62502C25.9166 8.00074 26.0659 8.36108 26.3316 8.62675C26.5972 8.89243 26.9576 9.04169 27.3333 9.04169C27.709 9.04169 28.0694 8.89243 28.335 8.62675C28.6007 8.36108 28.75 8.00074 28.75 7.62502V6.20835H30.1666C30.5423 6.20835 30.9027 6.0591 31.1684 5.79342C31.434 5.52774 31.5833 5.16741 31.5833 4.79169C31.5833 4.41596 31.434 4.05563 31.1684 3.78995C30.9027 3.52428 30.5423 3.37502 30.1666 3.37502Z" fill="#F5F5FF"/>
</svg>
