<svg width="576" height="422" viewBox="0 0 576 422" fill="none" xmlns="http://www.w3.org/2000/svg">
<path fill-rule="evenodd" clip-rule="evenodd" d="M456.664 129.169L448.897 153.072H358.761L431.683 206.053L421.944 236.026C395.877 265.715 357.641 284.455 315.027 284.455C236.477 284.455 172.8 220.778 172.8 142.228C172.8 63.6775 236.477 0 315.027 0C389.175 0 450.071 56.7398 456.664 129.169Z" fill="#FF8662"/>
<path d="M476.751 92.1602L499.034 160.74H571.142L512.805 203.124L535.088 271.704L476.751 229.319L418.413 271.704L440.696 203.124L382.359 160.74H454.468L476.751 92.1602Z" fill="#9A95F3"/>
<path d="M190.523 40.7632L355.521 326.548H25.5253L190.523 40.7632Z" fill="#181818"/>
<path d="M190.523 60.2583L338.638 316.8H42.409L190.523 60.2583Z" fill="#5D55FF"/>
</svg>
