<svg width="27" height="32" viewBox="0 0 27 32" fill="none" xmlns="http://www.w3.org/2000/svg">
<path d="M22.914 25.1482H8.41057C7.82266 25.1482 7.3461 24.6717 7.3461 24.0838V1.06447C7.3461 0.476563 7.82266 0 8.41057 0H22.914C23.5019 0 23.9785 0.476563 23.9785 1.06447V24.0838C23.9785 24.6717 23.5019 25.1482 22.914 25.1482Z" fill="#FF8662"/>
<path d="M19.7763 22.742H5.27275C4.68485 22.742 4.20828 22.2654 4.20828 21.6775V3.24879C4.20828 2.66089 4.68485 2.18433 5.27275 2.18433H19.7762C20.3641 2.18433 20.8407 2.66089 20.8407 3.24879V21.6775C20.8408 22.2653 20.3641 22.742 19.7763 22.742Z" fill="#5D55FF"/>
<path d="M18.8444 5.3168H6.20366C5.90667 5.3168 5.66574 5.07601 5.66574 4.77889C5.66574 4.48176 5.90653 4.24097 6.20366 4.24097H18.8442C19.1412 4.24097 19.3821 4.48176 19.3821 4.77889C19.3821 5.07601 19.1413 5.3168 18.8444 5.3168Z" fill="#9A95F3"/>
<path d="M18.8444 7.71182H6.20366C5.90667 7.71182 5.66574 7.47103 5.66574 7.17391C5.66574 6.87691 5.90653 6.63599 6.20366 6.63599H18.8442C19.1412 6.63599 19.3821 6.87678 19.3821 7.17391C19.3821 7.47103 19.1413 7.71182 18.8444 7.71182Z" fill="#9A95F3"/>
<path d="M18.8444 10.1068H6.20366C5.90667 10.1068 5.66574 9.86605 5.66574 9.56892C5.66574 9.27193 5.90653 9.03101 6.20366 9.03101H18.8442C19.1412 9.03101 19.3821 9.2718 19.3821 9.56892C19.3821 9.86605 19.1413 10.1068 18.8444 10.1068Z" fill="#9A95F3"/>
<path d="M18.8444 12.5019H6.20366C5.90667 12.5019 5.66574 12.2611 5.66574 11.9639C5.66574 11.667 5.90653 11.426 6.20366 11.426H18.8442C19.1412 11.426 19.3821 11.6668 19.3821 11.9639C19.3821 12.2611 19.1413 12.5019 18.8444 12.5019Z" fill="#9A95F3"/>
<path d="M12.7151 14.7411L11.4654 12.7306C11.2869 12.4435 10.9728 12.2688 10.6349 12.2688H1.24297C0.702803 12.2688 0.264984 12.7066 0.264984 13.2468V30.7574C0.264984 31.2976 0.702803 31.7354 1.24297 31.7354H25.5994C26.1396 31.7354 26.5774 31.2976 26.5774 30.7574V16.1807C26.5774 15.6406 26.1396 15.2028 25.5994 15.2028H13.5457C13.2077 15.2028 12.8936 15.0282 12.7151 14.7411Z" fill="#9A95F3"/>
<path d="M9.56026 23.9037C9.4677 23.8111 9.38122 23.7121 9.30294 23.6092C9.30294 23.6092 9.30294 23.6092 9.30281 23.6091C8.92396 23.1115 8.72297 22.5146 8.72138 21.8834V21.8758C8.72138 21.5082 8.78909 21.1521 8.92277 20.8173C8.97236 20.693 8.9118 20.552 8.7875 20.5024C8.66333 20.4528 8.52224 20.5134 8.47266 20.6377C8.31609 21.0299 8.23676 21.4466 8.23676 21.8759V21.8841C8.23861 22.6224 8.47385 23.3203 8.91709 23.9025C8.91709 23.9025 8.91709 23.9026 8.91722 23.9026C9.00872 24.0228 9.10975 24.1384 9.21765 24.2463C9.26486 24.2936 9.32701 24.3173 9.38889 24.3173C9.45077 24.3173 9.51292 24.2936 9.56013 24.2463C9.65494 24.1518 9.65494 23.9984 9.56026 23.9037Z" fill="#9A95F3"/>
<path d="M8.95308 20.2108C8.99685 20.244 9.04829 20.26 9.0992 20.26C9.17245 20.26 9.24478 20.227 9.29239 20.164C9.37067 20.0609 9.45702 19.9618 9.54918 19.8697C9.64386 19.7751 9.64386 19.6216 9.54918 19.5271C9.4545 19.4324 9.30111 19.4324 9.20657 19.5271C9.0988 19.6348 8.99778 19.7507 8.90627 19.8714C8.82561 19.978 8.8465 20.1299 8.95308 20.2108Z" fill="#9A95F3"/>
</svg>
