<svg width="24" height="24" viewBox="0 0 24 24" fill="none" xmlns="http://www.w3.org/2000/svg">
<circle cx="12" cy="12" r="12" fill="#01A325"/>
<path d="M16.4735 8.80663C16.4115 8.74415 16.3378 8.69455 16.2565 8.66071C16.1753 8.62686 16.0881 8.60944 16.0001 8.60944C15.9121 8.60944 15.825 8.62686 15.7437 8.66071C15.6625 8.69455 15.5888 8.74415 15.5268 8.80663L10.5601 13.78L8.47346 11.6866C8.40911 11.6245 8.33315 11.5756 8.24992 11.5428C8.16668 11.51 8.0778 11.4939 7.98834 11.4955C7.89889 11.497 7.81062 11.5162 7.72857 11.5518C7.64651 11.5875 7.57229 11.639 7.51013 11.7033C7.44797 11.7676 7.39909 11.8436 7.36629 11.9268C7.33349 12.0101 7.3174 12.099 7.31895 12.1884C7.3205 12.2779 7.33965 12.3661 7.37531 12.4482C7.41097 12.5303 7.46245 12.6045 7.5268 12.6666L10.0868 15.2266C10.1488 15.2891 10.2225 15.3387 10.3037 15.3726C10.385 15.4064 10.4721 15.4238 10.5601 15.4238C10.6481 15.4238 10.7353 15.4064 10.8165 15.3726C10.8978 15.3387 10.9715 15.2891 11.0335 15.2266L16.4735 9.78664C16.5411 9.72421 16.5951 9.64844 16.6321 9.56411C16.669 9.47977 16.6881 9.3887 16.6881 9.29664C16.6881 9.20457 16.669 9.1135 16.6321 9.02916C16.5951 8.94483 16.5411 8.86906 16.4735 8.80663Z" fill="#F5F5FF"/>
</svg>
