<svg width="170" height="39" viewBox="0 0 170 39" fill="none" xmlns="http://www.w3.org/2000/svg">
<path d="M68.2074 19.5705L64.8313 20.3467C64.4097 18.5327 63.563 16.8446 62.361 15.4214C61.1589 13.9981 59.6359 12.8804 57.917 12.1599C56.1981 11.4395 54.3325 11.1371 52.4738 11.2777C50.6152 11.4182 48.8164 11.9976 47.2256 12.9682L45.5582 13.9859L44.7474 12.2096C43.3486 9.13953 40.9514 6.63259 37.9454 5.09646C34.9395 3.56034 31.5017 3.08543 28.1914 3.74899C24.8811 4.41253 21.8928 6.17548 19.7127 8.75112C17.5325 11.3268 16.2888 14.5635 16.1836 17.935C17.1905 18.4738 18.109 19.1633 18.9074 19.9794C19.189 20.2657 19.3986 20.6144 19.5194 20.9971C19.6078 21.2572 19.6363 21.5337 19.6026 21.8062C19.5691 22.0788 19.4743 22.3403 19.3255 22.571L19.3091 22.5961C19.1422 22.8471 18.9183 23.0552 18.6558 23.2034C18.3932 23.3517 18.0992 23.4359 17.798 23.4491C17.509 23.4721 17.2183 23.4326 16.9461 23.3331C16.6737 23.2337 16.4261 23.0767 16.2201 22.8729C15.4721 22.2484 14.657 21.7087 13.7898 21.2639C12.9355 20.8165 11.9839 20.5866 11.0194 20.5946C10.0756 20.5856 9.14048 20.776 8.27542 21.1531C7.43468 21.5161 6.67229 22.0381 6.03021 22.6905C5.38916 23.3515 4.87672 24.1258 4.51907 24.9739C4.1571 25.8452 3.97076 26.7793 3.97076 27.7228C3.97076 28.6662 4.1571 29.6003 4.51907 30.4716C4.87135 31.3153 5.38164 32.0838 6.02259 32.7361C6.66546 33.3851 7.42791 33.9038 8.26787 34.2634C9.13437 34.6407 10.0704 34.8323 11.0156 34.8258C12.0037 34.834 12.9823 34.6324 13.8867 34.2345C14.7578 33.8556 15.541 33.3009 16.1874 32.6053C16.4913 32.2674 16.8925 32.0317 17.3358 31.931C17.5955 31.8647 17.8666 31.8556 18.1302 31.9044C18.3937 31.9534 18.6435 32.059 18.8621 32.214L18.9175 32.2543C19.1485 32.4409 19.3335 32.6781 19.4582 32.9475C19.5829 33.2168 19.6438 33.5114 19.6365 33.808C19.6475 34.3517 19.4538 34.8798 19.0938 35.2875C18.0821 36.3897 16.8528 37.2705 15.4835 37.8741C14.0747 38.4891 12.5528 38.8024 11.0156 38.7937C9.53659 38.8027 8.07168 38.5064 6.71271 37.9231C5.40371 37.3683 4.21642 36.5622 3.21823 35.5504C2.21833 34.5395 1.42118 33.3468 0.869729 32.0367C0.296475 30.6723 0.0012207 29.2075 0.0012207 27.7278C0.0012207 26.2482 0.296475 24.7833 0.869729 23.4189C1.98014 20.7726 4.07203 18.6579 6.70764 17.5173C8.06657 16.9273 9.53389 16.6274 11.0156 16.6367C11.6089 16.6359 12.2013 16.6822 12.7874 16.7751C13.1349 12.885 14.7123 9.20625 17.2913 6.27107C19.8701 3.33589 23.3169 1.29652 27.1327 0.447984C30.9487 -0.400545 34.9359 -0.0142146 38.5175 1.55107C42.099 3.11636 45.0893 5.77943 47.0556 9.155C49.11 8.22099 51.3464 7.75464 53.6033 7.78964C55.8601 7.82464 58.0811 8.36012 60.1054 9.3574C62.1298 10.3547 63.9072 11.7888 65.309 13.5562C66.7108 15.3235 67.7021 17.38 68.2112 19.5768L68.2074 19.5705Z" fill="#5D55FF"/>
<path d="M21.6683 35.6499V17.4809C21.6188 16.8 21.8179 16.1242 22.2286 15.5786C22.4163 15.3653 22.6495 15.1967 22.9109 15.0852C23.1724 14.9737 23.4556 14.9222 23.7397 14.9346C24.0266 14.9233 24.3126 14.9744 24.5778 15.0843C24.843 15.1942 25.0812 15.3603 25.276 15.5712C25.7038 16.1124 25.9123 16.7944 25.8602 17.4821V35.6499C25.9126 36.3388 25.701 37.0218 25.2685 37.5609C25.0743 37.7704 24.8373 37.9357 24.5735 38.0455C24.3097 38.1553 24.0253 38.2072 23.7397 38.1975C23.4567 38.2063 23.1752 38.1517 22.9162 38.0376C22.657 37.9235 22.4268 37.7529 22.2425 37.5381C21.8268 36.9998 21.6227 36.3283 21.6683 35.6499Z" fill="#5D55FF"/>
<path d="M44.5904 29.6791C44.6025 30.8554 44.4047 32.0244 44.0061 33.1313C43.6421 34.1459 43.0665 35.0717 42.3175 35.8474C41.571 36.6103 40.6691 37.2041 39.673 37.5886C38.5699 38.007 37.3974 38.2127 36.2176 38.195C35.047 38.213 33.8838 38.0045 32.7924 37.581C31.7967 37.1866 30.8965 36.5853 30.1511 35.8168C29.4059 35.0483 28.8326 34.1304 28.4694 33.1237C28.0736 32.019 27.8783 30.8524 27.8926 29.6791C27.8789 28.4925 28.0767 27.313 28.4769 26.1955C28.8378 25.1871 29.4087 24.2664 30.1518 23.4945C30.8982 22.7351 31.8003 22.1463 32.7962 21.7684C35.0184 20.9576 37.4565 20.9602 39.6768 21.776C40.679 22.1604 41.5858 22.7573 42.335 23.5254C43.0841 24.2936 43.6577 25.2149 44.0162 26.2257C44.4103 27.334 44.6048 28.5032 44.5904 29.6791ZM40.382 29.6791C40.4665 28.2597 40.0669 26.8534 39.2486 25.6898C38.893 25.2281 38.4323 24.8578 37.9046 24.6096C37.3771 24.3615 36.7979 24.2428 36.2151 24.2632C35.4449 24.2488 34.6889 24.471 34.0492 24.8997C33.3908 25.368 32.8881 26.0227 32.6061 26.7793C31.9332 28.6432 31.9306 30.6831 32.5985 32.5488C32.8806 33.3012 33.3771 33.9545 34.0265 34.4283C34.6693 34.87 35.4351 35.098 36.2151 35.08C36.7988 35.1005 37.3789 34.9809 37.9068 34.7311C38.4347 34.4814 38.8948 34.1088 39.2486 33.6445C40.0635 32.4884 40.4629 31.0908 40.382 29.6791Z" fill="#5D55FF"/>
<path d="M57.637 35.8326V35.2954C57.1759 35.8892 56.6449 36.4253 56.0553 36.8919C55.5128 37.3161 54.8993 37.6407 54.2433 37.8505C53.5164 38.0707 52.76 38.1767 52.0005 38.165C51.054 38.1806 50.118 37.9646 49.2742 37.536C48.5009 37.145 47.854 36.5436 47.408 35.8011C46.819 34.6119 46.5492 33.2902 46.6247 31.9653V23.6621C46.5721 22.9865 46.7752 22.3157 47.1939 21.7825C47.3855 21.5754 47.6198 21.4125 47.8808 21.3052C48.1419 21.1978 48.4231 21.1487 48.705 21.161C48.9914 21.1496 49.2767 21.1999 49.5418 21.3085C49.8069 21.4169 50.0455 21.5812 50.2413 21.7901C50.6672 22.3172 50.8761 22.9866 50.8256 23.6621V30.3676C50.8116 31.1903 50.8961 32.0118 51.0775 32.8145C51.2035 33.4099 51.5115 33.9515 51.959 34.3644C52.4452 34.7593 53.0612 34.9589 53.6867 34.9243C54.4009 34.9221 55.0975 34.7027 55.6838 34.2952C56.2914 33.8971 56.7673 33.328 57.0514 32.6597C57.3624 31.3846 57.4813 30.07 57.404 28.7597V23.6658C57.3535 22.9904 57.5624 22.321 57.9883 21.7938C58.1817 21.586 58.4177 21.4222 58.6802 21.3136C58.9427 21.2051 59.2255 21.1544 59.5095 21.1648C59.7904 21.1532 60.0705 21.2028 60.3304 21.3101C60.5902 21.4174 60.8235 21.58 61.0143 21.7863C61.4327 22.3196 61.6359 22.9903 61.5835 23.6658V35.8024C61.6328 36.4479 61.4383 37.0884 61.0382 37.5977C60.8552 37.7888 60.6351 37.9405 60.3913 38.0434C60.1474 38.1463 59.8851 38.1982 59.6204 38.1962C59.3557 38.1941 59.0943 38.1379 58.8521 38.0311C58.61 37.9242 58.3924 37.769 58.2124 37.575C57.8072 37.0878 57.6016 36.4653 57.637 35.8326Z" fill="#5D55FF"/>
<path d="M76.0547 35.801V35.3871C75.5577 35.9697 74.9992 36.497 74.3887 36.9597C73.8481 37.3602 73.2465 37.6712 72.6069 37.8806C71.9292 38.0961 71.2215 38.2023 70.5102 38.1951C69.5439 38.2035 68.5891 37.9855 67.7222 37.5585C66.8562 37.125 66.098 36.5034 65.5034 35.7394C64.8579 34.9123 64.3759 33.97 64.083 32.9628C63.7523 31.8422 63.5893 30.6789 63.5995 29.5107C63.4648 27.3033 64.1483 25.1237 65.5198 23.3877C66.1448 22.6683 66.923 22.0978 67.7974 21.7181C68.672 21.3385 69.6203 21.1593 70.5732 21.1936C71.6264 21.1608 72.6729 21.3735 73.6294 21.8151C74.548 22.2986 75.3705 22.9458 76.056 23.7248V17.5415C76.0079 16.8529 76.189 16.1678 76.571 15.5927C76.7451 15.3737 76.969 15.1996 77.2243 15.0848C77.4796 14.9701 77.7586 14.9183 78.0382 14.9335C78.3127 14.9171 78.5872 14.9633 78.8414 15.0683C79.0955 15.1734 79.3224 15.3346 79.5051 15.5399C79.8829 16.0563 80.065 16.6897 80.019 17.3276V35.801C80.0684 36.4478 79.8708 37.0891 79.4661 37.5963C79.2852 37.7929 79.0641 37.9483 78.8177 38.0517C78.5712 38.155 78.3053 38.2039 78.0382 38.1951C77.7702 38.2019 77.5041 38.1497 77.2587 38.0422C77.0133 37.9349 76.7943 37.7749 76.6176 37.5736C76.2138 37.0744 76.0129 36.4416 76.0547 35.801ZM67.8079 29.6478C67.7812 30.6408 67.9617 31.6284 68.3381 32.5476C68.6354 33.2771 69.1396 33.9037 69.7887 34.3505C70.3845 34.7494 71.0863 34.9606 71.8035 34.9568C72.5165 34.9624 73.2159 34.7628 73.8183 34.3819C74.4672 33.9509 74.9744 33.3382 75.2765 32.6206C75.6683 31.6812 75.8543 30.6689 75.8218 29.6516C75.847 28.6648 75.661 27.6838 75.2765 26.7744C74.9652 26.0359 74.4547 25.3983 73.8019 24.9326C73.2057 24.5157 72.4948 24.2934 71.767 24.296C71.0288 24.2867 70.3074 24.5152 69.7093 24.9477C69.0723 25.4255 68.5848 26.0749 68.304 26.8197C67.9576 27.722 67.7903 28.683 67.8116 29.6491L67.8079 29.6478Z" fill="#5D55FF"/>
<path d="M85.4533 21.4845V15.3665H83.33V37.9639H85.4533V23.3225H88.8166V21.4883L85.4533 21.4845Z" fill="#FF8662"/>
<path d="M93.5203 21.4841H91.3972V37.9635H93.5203V21.4841Z" fill="#FF8662"/>
<path d="M113.365 24.9077L111.682 25.9531C111.003 25.021 110.105 24.2697 109.067 23.7652C108.029 23.2606 106.883 23.0185 105.73 23.0596C104.809 23.0312 103.891 23.1879 103.031 23.5204C102.172 23.8531 101.388 24.3548 100.726 24.9958C100.084 25.5984 99.5756 26.328 99.2326 27.1382C98.8894 27.9484 98.7195 28.8213 98.7335 29.7009C98.731 30.892 99.0476 32.0623 99.6503 33.0901C100.243 34.1307 101.115 34.9849 102.169 35.5559C103.741 36.3845 105.553 36.6369 107.292 36.2691C109.031 35.9015 110.585 34.9368 111.686 33.543L113.369 34.6489C112.577 35.8374 111.481 36.7909 110.193 37.4091C108.775 38.0821 107.221 38.4177 105.652 38.3891C104.459 38.4271 103.271 38.2271 102.157 37.8007C101.043 37.3742 100.025 36.73 99.1629 35.9057C98.3342 35.1354 97.6766 34.1999 97.2326 33.1596C96.7886 32.1194 96.568 30.9977 96.5852 29.867C96.5765 28.3033 96.9931 26.7666 97.7903 25.421C98.5779 24.0684 99.7244 22.9598 101.103 22.2179C102.551 21.4398 104.174 21.0437 105.818 21.0668C106.892 21.0649 107.96 21.2348 108.98 21.57C109.907 21.8586 110.781 22.2986 111.564 22.8721C112.29 23.4282 112.902 24.1195 113.365 24.9077Z" fill="#FF8662"/>
<path d="M118.382 21.4841H116.259V37.9635H118.382V21.4841Z" fill="#FF8662"/>
<path d="M138.649 21.4845V37.9651H136.557V35.1332C135.746 36.1508 134.724 36.9822 133.562 37.5714C131.982 38.3262 130.204 38.5662 128.48 38.2576C126.755 37.9492 125.171 37.1075 123.951 35.8516C123.144 35.0418 122.508 34.0778 122.083 33.0174C121.657 31.957 121.449 30.8218 121.472 29.6795C121.455 28.5483 121.667 27.4252 122.097 26.3785C122.527 25.3318 123.165 24.3832 123.973 23.5905C124.748 22.7773 125.683 22.1328 126.718 21.6975C127.754 21.2621 128.869 21.0453 129.992 21.0605C131.27 21.0425 132.532 21.3389 133.668 21.9236C134.82 22.5489 135.81 23.4363 136.555 24.5139V21.4845H138.649ZM130.166 23.1061C129.012 23.0973 127.877 23.4008 126.88 23.9841C125.885 24.5675 125.066 25.4092 124.51 26.4199C123.928 27.433 123.622 28.581 123.624 29.7491C123.625 30.9171 123.933 32.0644 124.517 33.0763C125.08 34.1014 125.909 34.9558 126.917 35.5497C127.895 36.1311 129.014 36.4355 130.151 36.4303C131.309 36.4302 132.449 36.1265 133.453 35.5497C134.46 34.9975 135.291 34.1747 135.853 33.1744C136.422 32.1417 136.711 30.9787 136.693 29.8003C136.717 28.9174 136.562 28.0389 136.237 27.2174C135.912 26.3959 135.425 25.6483 134.804 25.0197C134.206 24.3978 133.484 23.9066 132.687 23.5773C131.889 23.2479 131.031 23.0875 130.167 23.1061H130.166Z" fill="#FF8662"/>
<path d="M141.984 21.4845H144.107V24.4384C144.853 23.3995 145.815 22.5338 146.927 21.9009C147.959 21.3404 149.118 21.0512 150.293 21.0605C151.456 21.0405 152.6 21.3677 153.576 22.0003C154.519 22.612 155.255 23.4931 155.69 24.529C156.226 26.1226 156.458 27.8029 156.372 29.482V37.9639H154.249V30.1022C154.296 28.8303 154.218 27.5569 154.014 26.3004C153.844 25.3398 153.344 24.4687 152.598 23.8383C151.81 23.2594 150.847 22.968 149.87 23.013C148.603 23.0066 147.377 23.4589 146.419 24.2862C145.428 25.092 144.722 26.1944 144.404 27.4314C144.15 28.9117 144.049 30.4142 144.102 31.9151V37.9538H141.979L141.984 21.4845Z" fill="#FF8662"/>
<path d="M168.925 23.2869L167.561 24.696C166.711 23.7309 165.516 23.1381 164.233 23.0454C163.577 23.0334 162.941 23.2781 162.462 23.7272C162.233 23.9239 162.048 24.1678 161.921 24.4422C161.793 24.7166 161.727 25.0151 161.725 25.3174C161.737 25.8837 161.953 26.4269 162.332 26.8472C163.07 27.5783 163.935 28.1688 164.885 28.5897C166.114 29.1411 167.212 29.9464 168.106 30.9523C168.658 31.7029 168.951 32.6117 168.942 33.5427C168.954 34.1831 168.833 34.8191 168.587 35.4106C168.342 36.0023 167.976 36.5369 167.514 36.981C167.046 37.4446 166.488 37.8084 165.875 38.0504C165.263 38.2924 164.607 38.4075 163.947 38.3887C163.004 38.3909 162.07 38.1789 161.22 37.7685C160.381 37.3741 159.644 36.7876 159.072 36.0563L160.406 34.5466C160.812 35.0845 161.333 35.5273 161.928 35.8438C162.525 36.1604 163.182 36.3432 163.856 36.3796C164.66 36.3981 165.439 36.105 166.03 35.5619C166.31 35.3255 166.536 35.0308 166.691 34.6987C166.846 34.3666 166.926 34.0048 166.926 33.6383C166.931 33.0446 166.721 32.4692 166.334 32.0179C165.55 31.2844 164.646 30.6889 163.661 30.2566C162.491 29.7359 161.452 28.9595 160.622 27.9845C160.086 27.2396 159.804 26.3421 159.816 25.4244C159.801 24.8437 159.907 24.2661 160.127 23.7288C160.349 23.1914 160.68 22.7062 161.1 22.3044C161.53 21.8919 162.039 21.5695 162.596 21.3563C163.152 21.1431 163.747 21.0432 164.342 21.0627C166.103 21.1743 167.748 21.9733 168.925 23.2869Z" fill="#FF8662"/>
<path d="M118.382 15.3653H116.259V19.5571H118.382V15.3653Z" fill="#FF8662"/>
<path d="M93.5203 15.3653H91.3972V19.5571H93.5203V15.3653Z" fill="#FF8662"/>
</svg>
