<svg width="32" height="32" viewBox="0 0 32 32" fill="none" xmlns="http://www.w3.org/2000/svg">
<g clip-path="url(#clip0)">
<path d="M26.0011 11.3349C24.1602 6.91749 19.0868 4.82883 14.6693 6.66978C11.6489 7.92851 9.59513 10.7814 9.3598 14.0451C6.80722 14.3981 5.02407 16.7536 5.37707 19.3063C5.69652 21.616 7.67201 23.3353 10.0037 23.333H26.0011C29.3142 23.333 32.0001 20.6471 32.0001 17.334C32.0001 14.0208 29.3143 11.3349 26.0011 11.3349Z" fill="#FF8662"/>
<path d="M20.6685 14.0014C18.8276 9.58399 13.7542 7.49533 9.33678 9.33628C6.31634 10.595 4.26261 13.4479 4.02728 16.7116C1.47469 17.0646 -0.30845 19.4201 0.0445545 21.9728C0.364002 24.2825 2.33949 26.0018 4.67117 25.9995H20.6685C23.9817 25.9995 26.6676 23.3136 26.6676 20.0005C26.6676 16.6873 23.9817 14.0014 20.6685 14.0014Z" fill="#9A95F3"/>
</g>
<defs>
<clipPath id="clip0">
<rect width="32" height="32" fill="white"/>
</clipPath>
</defs>
</svg>
