<svg width="37" height="33" viewBox="0 0 37 33" fill="none" xmlns="http://www.w3.org/2000/svg">
<path d="M28.8732 0H3.20023C1.42936 0 0 1.42936 0 3.20023V20.2681C0 22.0388 1.42936 23.4683 3.20023 23.4683H4.26697V28.802C4.26697 29.2287 4.52299 29.6128 4.92835 29.7834C5.31238 29.9541 5.78181 29.8688 6.08036 29.5487L12.2533 23.4683H28.8732C30.644 23.4683 32.0734 22.0388 32.0734 20.2681V3.20023C32.0734 1.42936 30.644 0 28.8732 0Z" fill="#9A95F3"/>
<path d="M32.0735 3.20023V20.2681C32.0735 22.0388 30.6441 23.4683 28.8732 23.4683H16.0723V0H28.8732C30.6441 0 32.0735 1.42936 32.0735 3.20023Z" fill="#9A95F3"/>
<path d="M33.1402 12.801H26.7397H20.3393C18.5746 12.801 17.139 14.2366 17.139 16.0013V24.5352C17.139 26.2999 18.5746 27.7354 20.3393 27.7354H26.298L26.7397 28.1771L30.2525 31.6899C30.5604 31.9978 31.022 32.0852 31.4151 31.9212C31.8141 31.7566 32.0735 31.367 32.0735 30.9357V27.7355H33.1402C34.9049 27.7355 36.4116 26.2999 36.4116 24.5353V16.0013C36.4115 14.2366 34.9048 12.801 33.1402 12.801Z" fill="#FF8662"/>
<path d="M31.4148 31.9211C31.8138 31.7565 32.0732 31.3669 32.0732 30.9356V27.7354H33.14C34.9046 27.7354 36.4113 26.2999 36.4113 24.5352V16.0013C36.4113 14.2366 34.9046 12.801 33.14 12.801H26.7395V28.1771L30.2523 31.6899C30.5602 31.9978 31.0217 32.0852 31.4148 31.9211Z" fill="#FF8662"/>
<path d="M13.9388 17.0678H7.53836C6.94874 17.0678 6.47162 16.5907 6.47162 16.0011C6.47162 15.4114 6.94874 14.9343 7.53836 14.9343H13.9388C14.5284 14.9343 15.0056 15.4114 15.0056 16.0011C15.0056 16.5907 14.5284 17.0678 13.9388 17.0678Z" fill="#F5F5FF"/>
<path d="M17.139 11.7342C17.139 12.3315 16.6697 12.801 16.0723 12.801H7.53836C6.94091 12.801 6.47162 12.3315 6.47162 11.7342C6.47162 11.1368 6.94091 10.6675 7.53836 10.6675H16.0723C16.6697 10.6675 17.139 11.1368 17.139 11.7342Z" fill="#F5F5FF"/>
<path d="M25.6729 7.46713C25.6729 8.06444 25.2036 8.53387 24.6061 8.53387H7.53824C6.94079 8.53387 6.4715 8.06444 6.4715 7.46713C6.4715 6.86969 6.94079 6.40039 7.53824 6.40039H24.6061C25.2036 6.40039 25.6729 6.86969 25.6729 7.46713Z" fill="#F5F5FF"/>
<path d="M29.6274 18.4473C29.2107 18.0306 28.5356 18.0306 28.1189 18.4473L26.7397 19.8265L25.673 20.8932L24.8271 20.0473C24.4104 19.6306 23.7353 19.6306 23.3186 20.0473C22.9019 20.464 22.9019 21.1391 23.3186 21.5558L24.9187 23.1559C25.1271 23.3642 25.4 23.4684 25.6729 23.4684C25.9458 23.4684 26.2188 23.3642 26.4271 23.1559L26.7397 22.8434L29.6274 19.9557C30.0441 19.539 30.0441 18.8639 29.6274 18.4473Z" fill="#F5F5FF"/>
<path d="M29.6272 18.4473C29.2105 18.0306 28.5354 18.0306 28.1187 18.4473L26.7395 19.8265V22.8434L29.6272 19.9557C30.0439 19.539 30.0439 18.8639 29.6272 18.4473Z" fill="#F5F5FF"/>
<path d="M17.1391 11.7342C17.1391 12.3315 16.6698 12.801 16.0723 12.801V10.6675C16.6698 10.6675 17.1391 11.1368 17.1391 11.7342Z" fill="#F5F5FF"/>
<path d="M25.673 7.46713C25.673 8.06444 25.2037 8.53387 24.6063 8.53387H16.0723V6.40039H24.6063C25.2037 6.40039 25.673 6.86969 25.673 7.46713Z" fill="#F5F5FF"/>
</svg>
