<svg width="30" height="30" viewBox="0 0 30 30" fill="none" xmlns="http://www.w3.org/2000/svg">
<path d="M3.12498 5H26.875C28.6008 5 29.9999 6.3991 29.9999 8.12498V21.875C29.9999 23.6009 28.6008 25 26.875 25H3.12498C1.3991 25 0 23.6009 0 21.875V8.12504C0 6.3991 1.3991 5 3.12498 5Z" fill="#FF8662"/>
<path d="M30 8.75H0V13.75H30V8.75Z" fill="#212121"/>
<path d="M9.375 18.75H4.37502C4.02984 18.75 3.75 18.4702 3.75 18.125C3.75 17.7798 4.02984 17.5 4.37502 17.5H9.375C9.72018 17.5 10 17.7798 10 18.125C10 18.4702 9.72018 18.75 9.375 18.75Z" fill="#FAFAFA"/>
<path d="M13.125 21.25H4.37502C4.02984 21.25 3.75 20.9702 3.75 20.625C3.75 20.2798 4.02984 20 4.37502 20H13.125C13.4702 20 13.75 20.2798 13.75 20.625C13.75 20.9702 13.4702 21.25 13.125 21.25Z" fill="#FAFAFA"/>
</svg>
