<svg width="21" height="22" viewBox="0 0 21 22" fill="none" xmlns="http://www.w3.org/2000/svg">
<path d="M1 7.86L10 13.06C10.152 13.1478 10.3245 13.194 10.5 13.194C10.6755 13.194 10.848 13.1478 11 13.06L20 7.86C20.1511 7.77275 20.2768 7.64746 20.3645 7.49659C20.4522 7.34572 20.4989 7.17452 20.5 7C20.5007 6.82379 20.4548 6.65053 20.367 6.49775C20.2792 6.34497 20.1526 6.21811 20 6.13L11 0.940005C10.848 0.852237 10.6755 0.80603 10.5 0.80603C10.3245 0.80603 10.152 0.852237 10 0.940005L1 6.13C0.847396 6.21811 0.720781 6.34497 0.632978 6.49775C0.545175 6.65053 0.4993 6.82379 0.5 7C0.501053 7.17452 0.547759 7.34572 0.635475 7.49659C0.72319 7.64746 0.848862 7.77275 1 7.86V7.86ZM10.5 3L17.5 7L10.5 11L3.5 7L10.5 3ZM19 10.17L10.5 15L2 10.13C1.88587 10.0639 1.75978 10.021 1.629 10.0038C1.49822 9.98663 1.36534 9.99549 1.238 10.0299C1.11066 10.0643 0.991378 10.1235 0.887031 10.2042C0.782684 10.2849 0.69533 10.3854 0.63 10.5C0.499628 10.7296 0.465361 11.0015 0.534678 11.2563C0.603995 11.5111 0.771268 11.7281 1 11.86L10 17.06C10.152 17.1478 10.3245 17.194 10.5 17.194C10.6755 17.194 10.848 17.1478 11 17.06L20 11.86C20.2287 11.7281 20.396 11.5111 20.4653 11.2563C20.5346 11.0015 20.5004 10.7296 20.37 10.5C20.3047 10.3854 20.2173 10.2849 20.113 10.2042C20.0086 10.1235 19.8893 10.0643 19.762 10.0299C19.6347 9.99549 19.5018 9.98663 19.371 10.0038C19.2402 10.021 19.1141 10.0639 19 10.13V10.17ZM19 14.17L10.5 19L2 14.13C1.88587 14.0639 1.75978 14.021 1.629 14.0038C1.49822 13.9866 1.36534 13.9955 1.238 14.0299C1.11066 14.0643 0.991378 14.1235 0.887031 14.2042C0.782684 14.2849 0.69533 14.3854 0.63 14.5C0.499628 14.7296 0.465361 15.0015 0.534678 15.2563C0.603995 15.5111 0.771268 15.7281 1 15.86L10 21.06C10.152 21.1478 10.3245 21.194 10.5 21.194C10.6755 21.194 10.848 21.1478 11 21.06L20 15.86C20.2287 15.7281 20.396 15.5111 20.4653 15.2563C20.5346 15.0015 20.5004 14.7296 20.37 14.5C20.3047 14.3854 20.2173 14.2849 20.113 14.2042C20.0086 14.1235 19.8893 14.0643 19.762 14.0299C19.6347 13.9955 19.5018 13.9866 19.371 14.0038C19.2402 14.021 19.1141 14.0639 19 14.13V14.17Z" fill="#F4F4F4" fill-opacity="0.8"/>
</svg>
