<svg width="32" height="32" viewBox="0 0 32 32" fill="none" xmlns="http://www.w3.org/2000/svg">
<g clip-path="url(#clip0)">
<path d="M8.05974 0L9.10393 11.8744L8.05974 23.8619H7.95162C6.04912 23.8619 4.50662 25.4044 4.50662 27.3062V2.25375C4.50662 1.00875 5.516 0 6.76037 0L8.05974 0Z" fill="#5D55FF"/>
<path d="M26.9993 25.8226V30.0394H7.52557C6.72344 30.0394 6.07263 29.3886 6.07263 28.5864V27.2754C6.07263 26.4733 6.72338 25.8225 7.52557 25.8225H26.9993V25.8226Z" fill="#FF8662"/>
<path d="M26.9993 27.9312V30.0396H7.52557C6.72344 30.0396 6.07263 29.3888 6.07263 28.5867V27.9312H26.9993Z" fill="#FF8662"/>
<path d="M27.042 0H8.05965V23.8619H7.95146C6.04902 23.8619 4.50677 25.4041 4.50677 27.3066V28.5554C4.50677 30.4578 6.04902 32.0001 7.95146 32.0001H27.042C27.291 32.0001 27.4927 31.7983 27.4927 31.5494V30.3904C27.4927 30.1415 27.2909 29.9398 27.042 29.9398H7.95152C7.18702 29.9398 6.56721 29.32 6.56721 28.5554V27.3066C6.56721 26.5421 7.18702 25.9223 7.95152 25.9223H27.0421C27.291 25.9223 27.4928 25.7205 27.4928 25.4716V23.8619V0.450687C27.4928 0.201812 27.291 0 27.042 0V0Z" fill="#9A95F3"/>
<path d="M7.95155 23.8618C6.04912 23.8618 4.50687 25.4041 4.50687 27.3065V28.5553C4.50687 30.4578 6.04912 32 7.95155 32H27.0421C27.2911 32 27.4928 31.7982 27.4928 31.5493V30.3904C27.4928 30.1414 27.291 29.9397 27.0421 29.9397H7.95155C7.18705 29.9397 6.56724 29.3199 6.56724 28.5554V27.3066C6.56724 26.542 7.18699 25.9223 7.95155 25.9223H27.0421C27.2911 25.9223 27.4928 25.7204 27.4928 25.4716V23.8619H7.95155V23.8618Z" fill="#5D55FF"/>
<path d="M23.1504 8.77715H12.4113C12.1696 8.77715 11.9738 8.58127 11.9738 8.33965V4.01733C11.9738 3.77571 12.1696 3.57983 12.4113 3.57983H23.1504C23.392 3.57983 23.5879 3.77571 23.5879 4.01733V8.33958C23.5879 8.58127 23.392 8.77715 23.1504 8.77715Z" fill="#FF8662"/>
<path d="M21.5148 16.038H14.046C13.7792 16.038 13.5631 15.8218 13.5631 15.5551C13.5631 15.2885 13.7793 15.0723 14.046 15.0723H21.5148C21.7815 15.0723 21.9977 15.2885 21.9977 15.5551C21.9977 15.8218 21.7815 16.038 21.5148 16.038Z" fill="#FF8662"/>
<path d="M21.5148 18.3442H14.046C13.7792 18.3442 13.5631 18.128 13.5631 17.8613C13.5631 17.5946 13.7793 17.3784 14.046 17.3784H21.5148C21.7815 17.3784 21.9977 17.5946 21.9977 17.8613C21.9977 18.128 21.7815 18.3442 21.5148 18.3442Z" fill="#FF8662"/>
</g>
<defs>
<clipPath id="clip0">
<rect width="32" height="32" fill="white"/>
</clipPath>
</defs>
</svg>
