<svg width="45" height="36" viewBox="0 0 45 36" fill="none" xmlns="http://www.w3.org/2000/svg">
<g clip-path="url(#clip0_2699:39410)">
<path d="M29.6738 10.2136L33.4522 6.45337L33.7032 4.87074C26.8188 -1.36066 15.8743 -0.653244 9.66626 6.34469C7.94181 8.28771 6.6638 10.7112 5.98168 13.2149L7.33442 13.0242L14.8914 11.7848L15.4738 11.1918C18.8346 7.51736 24.5196 7.02351 28.3996 10.1487L29.6738 10.2136Z" fill="#EA4335"/>
<path d="M38.8363 13.1024C37.9683 9.92 36.1845 7.0579 33.7051 4.8689L28.4015 10.1469C30.6413 11.9679 31.9155 14.7099 31.8619 17.5872V18.5235C34.4677 18.5235 36.5811 20.6266 36.5811 23.2199C36.5811 25.8131 34.4677 27.8648 31.8619 27.8648H22.4099L21.4826 28.8678V34.5024L22.4099 35.3872H31.8619C38.6409 35.4405 44.1802 30.0653 44.2339 23.319C44.2664 19.229 42.2392 15.3944 38.8363 13.1024Z" fill="#4285F4"/>
<path d="M12.9695 35.3871H22.4099V27.8667H12.9695C12.3008 27.8667 11.6417 27.7218 11.0343 27.4453L9.69494 27.8534L5.88964 31.6136L5.55817 32.893C7.69266 34.4966 10.2966 35.3986 12.9695 35.3871Z" fill="#34A853"/>
<path d="M12.9696 10.9913C6.18865 11.0313 0.72596 16.5343 0.766197 23.2825C0.78919 27.0503 2.55771 30.5969 5.55826 32.8946L11.0344 27.445C8.65845 26.3772 7.6027 23.5952 8.67569 21.2308C9.74868 18.8663 12.5442 17.8157 14.9201 18.8835C15.9663 19.3545 16.8055 20.1878 17.2788 21.2308L22.7549 15.7812C20.425 12.7493 16.8036 10.9779 12.9696 10.9913Z" fill="#FBBC05"/>
</g>
<defs>
<clipPath id="clip0_2699:39410">
<rect width="43.4677" height="34.7742" fill="white" transform="translate(0.766129 0.612793)"/>
</clipPath>
</defs>
</svg>
