<svg width="20" height="24" viewBox="0 0 20 24" fill="none" xmlns="http://www.w3.org/2000/svg">
<path d="M16 5V1H4V5H16Z" stroke="#F4F4F4" stroke-opacity="0.8" stroke-width="2" stroke-miterlimit="10" stroke-linecap="square"/>
<path d="M7 8V13L2.249 18.938C1.9548 19.3056 1.77041 19.7489 1.71706 20.2167C1.66371 20.6846 1.74356 21.1579 1.94742 21.5824C2.15128 22.0068 2.47087 22.3651 2.86938 22.6159C3.2679 22.8667 3.72913 22.9998 4.2 23H15.8C16.271 23.0002 16.7325 22.8673 17.1313 22.6167C17.5302 22.366 17.85 22.0078 18.0541 21.5833C18.2582 21.1588 18.3383 20.6852 18.285 20.2172C18.2317 19.7492 18.0473 19.3058 17.753 18.938L13 13V8" stroke="#F4F4F4" stroke-opacity="0.8" stroke-width="2" stroke-miterlimit="10" stroke-linecap="square"/>
</svg>
