<svg width="32" height="32" viewBox="0 0 32 32" fill="none" xmlns="http://www.w3.org/2000/svg">
<path d="M13.9678 31.9989C21.6821 31.9989 27.9357 25.7453 27.9357 18.0311C27.9357 10.3168 21.6821 4.06323 13.9678 4.06323C6.25362 4.06323 0 10.3168 0 18.0311C0 25.7453 6.25362 31.9989 13.9678 31.9989Z" fill="#9A95F3"/>
<path d="M27.9361 18.031C27.9361 25.745 21.6823 31.9989 13.9683 31.9989C9.78247 31.9989 6.02603 30.1572 3.46655 27.2395C5.92515 29.3974 9.14745 30.7056 12.675 30.7056C20.389 30.7056 26.6428 24.4517 26.6428 16.7377C26.6428 13.2102 25.3346 9.9879 23.1767 7.5293C26.0945 10.0888 27.9361 13.8452 27.9361 18.031Z" fill="#9A95F3"/>
<path d="M13.9675 28.5716C19.7889 28.5716 24.5081 23.8524 24.5081 18.031C24.5081 12.2096 19.7889 7.49048 13.9675 7.49048C8.14617 7.49048 3.427 12.2096 3.427 18.031C3.427 23.8524 8.14617 28.5716 13.9675 28.5716Z" fill="#F5F5FF"/>
<path d="M24.5088 18.031C24.5088 23.8522 19.7895 28.5715 13.9682 28.5715C10.7285 28.5715 7.83015 27.1094 5.896 24.8099C7.72863 26.3503 10.0935 27.2782 12.6749 27.2782C18.4962 27.2782 23.2155 22.5589 23.2155 16.7377C23.2155 14.1562 22.2875 11.7914 20.7472 9.95874C23.0467 11.8929 24.5088 14.7912 24.5088 18.031Z" fill="#E6E6E6"/>
<path d="M13.9675 25.144C17.896 25.144 21.0807 21.9593 21.0807 18.0307C21.0807 14.1022 17.896 10.9175 13.9675 10.9175C10.039 10.9175 6.85425 14.1022 6.85425 18.0307C6.85425 21.9593 10.039 25.144 13.9675 25.144Z" fill="#9A95F3"/>
<path d="M21.0815 18.031C21.0815 21.9595 17.8967 25.1443 13.9682 25.1443C11.6745 25.1443 9.63368 24.0585 8.33325 22.3727C9.5341 23.3 11.0402 23.8509 12.6749 23.8509C16.6034 23.8509 19.7882 20.6661 19.7882 16.7377C19.7882 15.1029 19.2372 13.5968 18.3099 12.396C19.9958 13.6964 21.0815 15.7373 21.0815 18.031Z" fill="#9A95F3"/>
<path d="M13.9677 21.6523C15.9677 21.6523 17.589 20.031 17.589 18.031C17.589 16.031 15.9677 14.4097 13.9677 14.4097C11.9677 14.4097 10.3464 16.031 10.3464 18.031C10.3464 20.031 11.9677 21.6523 13.9677 21.6523Z" fill="#F5F5FF"/>
<path d="M27.1838 22.5633C26.9083 23.3664 26.5623 24.1359 26.1524 24.8647L23.0342 23.4104C23.4616 22.6926 23.8056 21.9192 24.0533 21.1038L27.1838 22.5633Z" fill="#9A95F3"/>
<path d="M24.0534 21.1038C23.8057 21.9192 23.4617 22.6926 23.0343 23.4104L19.9038 21.9509C20.3655 21.2545 20.707 20.4727 20.8997 19.6333L24.0534 21.1038Z" fill="#E6E6E6"/>
<path d="M20.8991 19.6333C20.7064 20.4727 20.365 21.2545 19.9033 21.951L16.6687 20.443C17.2287 19.8157 17.574 18.9925 17.5883 18.0891L20.8991 19.6333Z" fill="#9A95F3"/>
<path d="M17.5885 18.0892C17.5743 18.9926 17.2289 19.8158 16.6689 20.443L13.6393 19.0301C13.047 18.7546 12.7702 18.0769 12.9817 17.4729C12.9959 17.4335 13.0114 17.394 13.0295 17.3546C13.177 17.039 13.4376 16.8133 13.7415 16.7028C14.0441 16.5928 14.3901 16.5973 14.705 16.7448L17.5885 18.0892Z" fill="#E6E6E6"/>
<path d="M31.8923 5.83266C31.9959 5.84993 32.0367 5.977 31.9626 6.05149L30.5945 7.4259L29.7551 8.26915L27.4616 10.5727C27.3142 10.7207 27.1043 10.7884 26.8982 10.7545L23.4773 10.191L26.0394 7.64965L26.8884 6.8077L28.4501 5.2583L31.8923 5.83266Z" fill="#FF8662"/>
<path d="M30.5946 7.42582L29.7553 8.26907L26.0396 7.64957L26.8886 6.80762L30.5946 7.42582Z" fill="#F5F5FF"/>
<path d="M26.8128 3.765L25.2589 5.2853L24.4137 6.11238L21.8607 8.61042L21.2906 5.14575C21.2568 4.94024 21.324 4.73105 21.4712 4.58374L23.7742 2.27833L24.6168 1.43444L26.0109 0.0392762C26.0855 -0.0354776 26.2135 0.00603789 26.2301 0.110344L26.8128 3.765Z" fill="#FF8662"/>
<path d="M25.2594 5.28518L24.4142 6.11226L23.7747 2.27822L24.6173 1.43433L25.2594 5.28518Z" fill="#F5F5FF"/>
<path d="M29.7685 3.55599C29.7685 3.87802 29.6456 4.20135 29.3992 4.44708L15.0635 18.7829C14.6017 19.2452 13.8704 19.2737 13.375 18.8682C13.3427 18.8417 13.311 18.8133 13.2806 18.7829C13.0342 18.5365 12.9114 18.2145 12.9114 17.8911C12.9114 17.5691 13.0342 17.2458 13.2806 17L27.6164 2.66424C28.1085 2.17149 28.9071 2.17149 29.3992 2.66424C29.4296 2.69464 29.4581 2.72632 29.4846 2.75866C29.6741 2.99016 29.7685 3.27275 29.7685 3.55599Z" fill="#5D55FF"/>
<path d="M29.768 3.55612C29.768 3.87816 29.6451 4.20149 29.3987 4.44722L15.0629 18.783C14.6012 19.2454 13.8699 19.2738 13.3745 18.8684L29.4841 2.75879C29.6736 2.99029 29.768 3.27288 29.768 3.55612Z" fill="#5D55FF"/>
</svg>
