<svg width="617" height="577" viewBox="0 0 617 577" fill="none" xmlns="http://www.w3.org/2000/svg">
<path fill-rule="evenodd" clip-rule="evenodd" d="M316.577 39.7131C389.276 40.0897 469.52 -23.3047 528.365 19.3779C587.203 62.0552 559.628 155.868 574.727 226.959C587.71 288.09 631.144 347.312 610.542 406.315C590.03 465.062 525.073 492.451 471.166 523.55C422.861 551.418 372.316 577.79 316.577 575.905C261.963 574.058 217.806 538.7 169.403 513.345C110.792 482.642 24.3547 475.307 4.22902 412.286C-15.9128 349.215 64.1186 298.258 80.2041 234.033C98.3077 161.751 45.6195 64.5009 103.187 17.175C159.82 -29.3826 243.258 39.3332 316.577 39.7131Z" stroke="#4C46D1" stroke-linecap="round" stroke-linejoin="round" stroke-dasharray="42 42"/>
</svg>
