<svg width="77" height="41" viewBox="0 0 77 41" fill="none" xmlns="http://www.w3.org/2000/svg">
<path d="M40.8849 13.244L45.2429 13.2944C50.0433 13.3615 52.4189 13.9485 54.6471 15.6426C60.4305 20.0706 60.7582 32.7677 55.2041 37.9002C52.9958 39.9317 51.1 40.475 45.7001 40.4991L40.6391 40.5L40.7702 26.8804L40.8849 13.244ZM75.0283 13.2273L75.1594 16.6154L75.2904 19.9867H69.3432V23.2407H74.8153V29.7989H69.3432V33.7405H75.0447L75.1757 37.1119L75.3068 40.4832H68.6714C63.74 40.5 61.9706 40.349 61.8067 39.9129C61.692 39.5943 61.6429 33.4554 61.7084 26.2766L61.8231 13.2273H75.0283ZM15.6213 17.7056C15.6213 19.7352 15.4739 21.3957 15.2773 21.3957C15.0971 21.3957 14.54 21.077 14.0485 20.6912C12.2627 19.2991 9.67409 20.2383 8.52723 22.6872C7.364 25.2031 7.7572 30.7382 9.21534 32.3316C10.5096 33.7405 13 33.9418 14.6383 32.7845C15.2117 32.3651 15.7196 32.1136 15.7852 32.1974C15.8343 32.2813 15.7688 34.0257 15.6377 36.072C15.4083 39.5439 15.31 39.7955 14.2451 40.0975C12.0989 40.7013 8.57638 40.5 6.74142 39.6446C2.21954 37.5312 -0.123311 32.5832 0.237129 25.874C0.646719 18.3766 4.93922 13.4789 11.1814 13.3615C15.4575 13.2776 15.6213 13.4453 15.6213 17.7056ZM36.5924 19.6345C37.4771 21.6808 37.6737 22.9052 37.6737 26.7798C37.6901 31.1407 37.5917 31.6607 36.1664 34.6127C34.184 38.7221 32.1524 40.1981 28.1876 40.3994C26.0905 40.4832 25.0091 40.2987 23.7476 39.5943C18.8817 36.8771 16.4241 29.8324 17.8659 22.7207C20.0613 11.9022 32.349 9.87269 36.5924 19.6345ZM48.175 26.6414L48.1756 26.9643C48.1756 32.8516 48.2575 33.5057 48.962 33.5057C49.4043 33.5225 50.1088 32.9522 50.5512 32.2477C51.7963 30.3021 51.698 23.7942 50.4037 21.9995C48.4518 19.3241 48.1676 19.8521 48.175 26.6414ZM25.4187 26.9978C25.4515 31.9961 26.0577 33.6399 27.778 33.4386C28.8101 33.3044 29.1706 32.9187 29.6621 31.4259C30.4649 28.977 30.1044 22.7543 29.0559 21.1273C27.2045 18.2424 25.386 21.1944 25.4187 26.9978ZM14.9539 0.5C16.177 0.5 17.1588 0.958404 17.883 1.85823C18.6072 2.75806 18.9774 3.9635 18.9774 5.49151C18.9774 7.0365 18.6072 8.27589 17.883 9.15874C17.1427 10.0586 16.1448 10.5 14.8895 10.5C13.6824 10.5 12.7168 10.0416 12.0086 9.14177C11.2844 8.22496 10.9303 7.01952 10.9303 5.50849C10.9303 3.98048 11.3005 2.75806 12.0247 1.85823C12.749 0.958404 13.7307 0.5 14.9539 0.5ZM72.1774 0.5C73.4006 0.5 74.3823 0.958404 75.1065 1.85823C75.8308 2.75806 76.2009 3.9635 76.2009 5.49151C76.2009 7.0365 75.8308 8.27589 75.1065 9.15874C74.3662 10.0586 73.3684 10.5 72.113 10.5C70.906 10.5 69.9403 10.0416 69.2322 9.14177C68.5079 8.22496 68.1539 7.01952 68.1539 5.50849C68.1539 3.98048 68.524 2.75806 69.2483 1.85823C69.9725 0.958404 70.9542 0.5 72.1774 0.5ZM61.0097 0.5V4.1947H64.5687V0.5H66.3656V9.59091H64.5687V5.44247H61.0097V9.59091H59.2127V0.5H61.0097ZM1.78306 0.5L3.25101 7.15584L4.63741 0.5H6.04012L7.36128 7.12338L8.91079 0.5H10.0362L7.93215 9.59091H6.33371L5.09411 3.34091L3.78926 9.59091H2.20713L0.200928 0.5H1.78306ZM22.9721 0.5L24.9027 6.8847L26.882 0.5H28.8127V9.59091H27.2714V2.72006L25.3246 8.97513H23.978L22.0798 2.62283V9.5747H20.7656V0.5H22.9721ZM50.0602 0.5L51.5233 7.14398L52.9051 0.5H54.3032L55.62 7.11157L57.1643 0.5H58.3186L56.2215 9.59091H54.6283L53.3928 3.35205L52.0923 9.59091H50.4829L48.4833 0.5H50.0602ZM35.685 0.5V1.74777H32.3011V4.27573H35.0908V5.49109H32.3176V8.29452H35.9656V9.59091H30.6009V0.5H35.685ZM39.1621 0.5L42.7296 6.70645V0.5H44.0127V9.59091H42.5732L39.0369 3.36825V9.5747H37.7539V0.5H39.1621ZM72.1452 1.8073C71.4532 1.8073 70.906 2.14686 70.4875 2.809C70.0691 3.47114 69.8759 4.37097 69.8759 5.49151C69.8759 6.59508 70.0852 7.49491 70.4875 8.17402C70.9221 8.85314 71.4532 9.1927 72.1291 9.1927C72.8372 9.1927 73.4006 8.85314 73.8029 8.191C74.2214 7.52886 74.4145 6.61205 74.4145 5.47453C74.4145 4.37097 74.2053 3.48812 73.7868 2.809C73.3684 2.14686 72.8212 1.8073 72.1452 1.8073ZM14.9378 1.8073C14.2457 1.8073 13.6985 2.14686 13.2801 2.809C12.8616 3.47114 12.6685 4.37097 12.6685 5.49151C12.6685 6.59508 12.8777 7.49491 13.2801 8.17402C13.6985 8.85314 14.2457 9.1927 14.9056 9.1927C15.6137 9.1927 16.177 8.85314 16.5794 8.191C16.9978 7.52886 17.191 6.61205 17.191 5.47453C17.191 4.37097 16.9817 3.48812 16.5633 2.809C16.1448 2.12988 15.6298 1.8073 14.9378 1.8073Z" fill="#6A6F73"/>
</svg>
