<svg width="88" height="24" viewBox="0 0 88 24" fill="none" xmlns="http://www.w3.org/2000/svg">
<path d="M12.1003 22.453C10.7765 22.6876 9.4294 22.7579 8.0359 22.9453L3.7856 10.3829V23.4844C2.46185 23.625 1.25417 23.8125 0 24V0H3.5303L8.361 13.6174V0H12.1003V22.453ZM19.4162 8.7891C20.8563 8.7891 23.0626 8.7187 24.3864 8.7187V12.4687C22.7373 12.4687 20.8098 12.4687 19.4162 12.539V18.1172C21.5994 17.9766 23.7826 17.789 25.9889 17.7186V21.3278L15.7001 22.1483V0H25.9889V3.75H19.4162V8.7891ZM39.8078 3.7501H35.9525V21.0001C34.6983 21.0001 33.4441 21.0001 32.2366 21.0468V3.7501H28.3813V0H39.808L39.8078 3.7501ZM45.8463 8.5313H50.9327V12.2812H45.8463V20.7892H42.1997V0H52.5816V3.75H45.8463V8.5313ZM58.6201 17.5078C60.7337 17.5545 62.8702 17.7189 64.9374 17.8359V21.5391C61.6162 21.328 58.295 21.1173 54.9042 21.0468V0H58.6201V17.5078ZM68.0727 21.7969C69.2572 21.8673 70.5114 21.9376 71.7191 22.078V0H68.0727V21.7969ZM88 0L83.2852 11.4141L88 24C86.6064 23.8125 85.2129 23.5547 83.8193 23.3203L81.1485 16.3829L78.4315 22.7579C77.0841 22.5234 75.7836 22.453 74.4367 22.2655L79.2211 11.2733L74.9011 0H78.8956L81.3343 6.3047L83.9356 0H88Z" fill="#6A6F73"/>
</svg>
