<svg width="24" height="18" viewBox="0 0 24 18" fill="none" xmlns="http://www.w3.org/2000/svg">
<path d="M23.1834 1.01643C23.0285 0.860221 22.8441 0.73623 22.641 0.651615C22.4379 0.567001 22.2201 0.523438 22.0001 0.523438C21.7801 0.523438 21.5622 0.567001 21.3591 0.651615C21.156 0.73623 20.9717 0.860221 20.8167 1.01643L8.40008 13.4498L3.18341 8.21643C3.02254 8.06104 2.83264 7.93885 2.62455 7.85684C2.41646 7.77483 2.19425 7.73462 1.97062 7.73849C1.74698 7.74236 1.5263 7.79023 1.32117 7.87939C1.11604 7.96855 0.930476 8.09723 0.775079 8.2581C0.619681 8.41897 0.497491 8.60887 0.415485 8.81697C0.333478 9.02506 0.293261 9.24726 0.29713 9.4709C0.300999 9.69453 0.348879 9.91521 0.438034 10.1203C0.52719 10.3255 0.655876 10.511 0.816746 10.6664L7.21675 17.0664C7.37168 17.2227 7.55602 17.3466 7.75912 17.4313C7.96222 17.5159 8.18006 17.5594 8.40008 17.5594C8.6201 17.5594 8.83794 17.5159 9.04104 17.4313C9.24414 17.3466 9.42847 17.2227 9.58341 17.0664L23.1834 3.46644C23.3526 3.31036 23.4876 3.12095 23.5799 2.91011C23.6723 2.69928 23.72 2.4716 23.72 2.24143C23.72 2.01127 23.6723 1.78359 23.5799 1.57276C23.4876 1.36192 23.3526 1.17251 23.1834 1.01643Z" fill="#FF8662"/>
</svg>
