<svg width="32" height="32" viewBox="0 0 32 32" fill="none" xmlns="http://www.w3.org/2000/svg">
<path d="M11.8634 20.1368L11.2005 19.4739L8.54883 22.1256L9.21177 22.7884L9.87464 23.4514L12.5263 20.7997L11.8634 20.1368Z" fill="#F5F5FF"/>
<path d="M9.2085 22.7871L11.8597 20.1359L12.5226 20.7987L9.87131 23.4499L9.2085 22.7871Z" fill="#F5F5FF"/>
<path d="M19.8184 24.3694C26.5493 24.3694 32.0059 18.9129 32.0059 12.1819C32.0059 5.45091 26.5493 -0.00561523 19.8184 -0.00561523C13.0874 -0.00561523 7.63086 5.45091 7.63086 12.1819C7.63086 18.9129 13.0874 24.3694 19.8184 24.3694Z" fill="#9A95F3"/>
<path d="M28.4364 20.7997C33.1881 16.048 33.1881 8.31571 28.4364 3.56396L11.2007 20.7997C15.9524 25.5515 23.6846 25.5515 28.4364 20.7997Z" fill="#9A95F3"/>
<path d="M19.8184 22.4944C25.5138 22.4944 30.1309 17.8773 30.1309 12.1819C30.1309 6.48645 25.5138 1.86938 19.8184 1.86938C14.1229 1.86938 9.50586 6.48645 9.50586 12.1819C9.50586 17.8773 14.1229 22.4944 19.8184 22.4944Z" fill="#FF8662"/>
<path d="M27.1104 19.474C31.1313 15.4531 31.1313 8.91071 27.1104 4.88989L12.5264 19.474C16.5472 23.4948 23.0896 23.4948 27.1104 19.474Z" fill="#FF8662"/>
<path d="M28.0169 11.5566C27.8686 11.3909 24.3274 7.49438 19.8184 7.49438C15.3094 7.49438 11.7682 11.3908 11.6199 11.5566L11.0596 12.1819L11.6199 12.8072C11.7682 12.9729 15.3094 16.8694 19.8184 16.8694C24.3274 16.8694 27.8687 12.9729 28.017 12.8072L28.5773 12.1819L28.0169 11.5566Z" fill="#F5F5FF"/>
<path d="M16.0117 15.9888C17.143 16.5021 18.4352 16.8693 19.8187 16.8693C24.3277 16.8693 27.869 12.9728 28.0173 12.8071L28.5776 12.1818L28.0173 11.5564C27.9145 11.4416 26.1812 9.53451 23.6257 8.37476L16.0117 15.9888Z" fill="#F5F5FF"/>
<path d="M9.87463 22.1257L8.54881 20.7998L0 29.3487L1.32581 30.6745L2.65162 32.0003L11.2005 23.4515L9.87463 22.1257Z" fill="#9A95F3"/>
<path d="M1.32324 30.6716L9.87078 22.1241L11.1964 23.4497L2.64887 31.9973L1.32324 30.6716Z" fill="#9A95F3"/>
<path d="M19.8184 14.9944C21.3717 14.9944 22.6309 13.7352 22.6309 12.1819C22.6309 10.6286 21.3717 9.36938 19.8184 9.36938C18.2651 9.36938 17.0059 10.6286 17.0059 12.1819C17.0059 13.7352 18.2651 14.9944 19.8184 14.9944Z" fill="#9A95F3"/>
<path d="M17.8296 14.1706C18.9263 15.2672 20.7104 15.2672 21.8071 14.1706C22.9037 13.0739 22.9037 11.2898 21.8071 10.1931L17.8296 14.1706Z" fill="#9A95F3"/>
<path d="M19.8184 13.1194C20.3361 13.1194 20.7559 12.6997 20.7559 12.1819C20.7559 11.6641 20.3361 11.2444 19.8184 11.2444C19.3006 11.2444 18.8809 11.6641 18.8809 12.1819C18.8809 12.6997 19.3006 13.1194 19.8184 13.1194Z" fill="#9A95F3"/>
<path d="M19.8184 13.1193C20.3357 13.1193 20.7559 12.699 20.7559 12.1818C20.7559 11.9232 20.6509 11.6888 20.4812 11.519L19.1558 12.8445C19.3254 13.0142 19.5598 13.1193 19.8184 13.1193Z" fill="#9A95F3"/>
</svg>
