<svg width="21" height="20" viewBox="0 0 21 20" fill="none" xmlns="http://www.w3.org/2000/svg">
<path d="M20.5 6C20.5097 5.93034 20.5097 5.85967 20.5 5.79V5.71C20.4828 5.65419 20.4593 5.60051 20.43 5.55C20.417 5.5212 20.4002 5.49429 20.38 5.47L20.28 5.34L20.2 5.28L20.08 5.19L11.08 0.190005C10.928 0.102236 10.7555 0.0560303 10.58 0.0560303C10.4045 0.0560303 10.232 0.102236 10.08 0.190005L1.08 5.19L0.99 5.26L0.88 5.34C0.850949 5.3727 0.827316 5.40984 0.81 5.45C0.778005 5.4787 0.750974 5.51249 0.73 5.55C0.704035 5.59388 0.683867 5.64094 0.67 5.69C0.664405 5.7231 0.664405 5.75691 0.67 5.79C0.601246 5.84929 0.543669 5.92041 0.5 6V14C0.501298 14.1782 0.550188 14.3528 0.641611 14.5058C0.733035 14.6587 0.86367 14.7845 1.02 14.87L10.02 19.87C10.0613 19.8941 10.1049 19.9142 10.15 19.93H10.25C10.4143 19.9699 10.5857 19.9699 10.75 19.93H10.85L10.99 19.87L19.99 14.87C20.1445 14.7832 20.2731 14.6569 20.3627 14.504C20.4523 14.3511 20.4997 14.1772 20.5 14V6ZM10.5 9.87L3.56 6L6.32 4.48L13.15 8.38L10.5 9.87ZM10.5 2.15L17.44 6L15.2 7.25L8.37 3.34L10.5 2.15ZM2.5 7.7L9.5 11.62V17.3L2.5 13.41V7.7ZM11.5 17.3V11.62L14.5 9.94V13L16.5 12V8.82L18.5 7.71V13.41L11.5 17.3Z" fill="#F4F4F4" fill-opacity="0.8"/>
</svg>
