<svg width="63" height="40" viewBox="0 0 63 40" fill="none" xmlns="http://www.w3.org/2000/svg">
<path d="M37.3898 22.5326C35.8187 22.5326 34.444 23.4791 33.6585 24.8048H10.4854C6.55776 24.8048 3.41564 21.5858 3.41564 17.7988C3.41564 14.0119 6.55776 10.7929 10.4854 10.7929H13.8239C13.8239 10.0355 14.2167 9.27814 14.413 8.52074C14.6094 8.33139 14.6094 7.95269 14.8058 7.76334C16.3769 4.92311 19.519 3.02962 23.0539 3.02962C26.196 3.02962 28.9453 4.54441 30.7128 6.8166C31.6947 6.4379 32.6766 6.0592 33.8549 5.86985C31.6947 2.27222 27.767 3.05176e-05 23.0539 3.05176e-05C17.7515 3.05176e-05 13.2348 3.21896 11.2709 7.76334H10.4854C4.79032 7.76334 0.0771484 12.3077 0.0771484 17.9882C0.0771484 23.6687 4.79032 28.0237 10.4854 28.0237H33.8549C34.444 29.3491 35.8187 30.2959 37.5861 30.2959C39.7466 30.2959 41.5138 28.5917 41.5138 26.3196C41.5138 24.0474 39.7463 22.5326 37.3898 22.5326ZM50.351 14.769C47.9944 10.2246 43.0848 7.00571 37.5861 7.00571C30.7128 7.00571 25.0177 11.7394 23.643 17.988C20.3045 18.3667 17.3588 20.0708 15.5913 22.5323H32.6766C33.8549 21.0175 35.6226 20.2601 37.5861 20.2601C41.121 20.2601 43.8704 23.1004 43.8704 26.5087C43.8704 29.917 40.9246 32.7572 37.5861 32.7572C35.6223 32.7572 33.8549 31.8104 32.6766 30.485H13.6275C14.413 35.7868 19.1262 39.9525 24.6249 39.9525H50.1546C57.2243 39.9525 62.9194 34.4613 62.9194 27.4554C62.9194 20.4495 57.2243 14.9584 50.351 14.769Z" fill="#008CDB"/>
</svg>
