<svg width="64" height="64" viewBox="0 0 64 64" fill="none" xmlns="http://www.w3.org/2000/svg">
<g clip-path="url(#clip0)">
<path opacity="0.6" d="M13.8424 34.7678C13.3443 34.561 12.7706 34.6746 12.389 35.0558L7.99976 39.4478L3.61038 35.0558C3.09038 34.5344 2.24613 34.5334 1.72476 35.0534C1.47338 35.3041 1.33238 35.6448 1.33301 35.9998V62.6664C1.33301 63.4027 1.93001 63.9997 2.66638 63.9997H13.333C14.0694 63.9997 14.6664 63.4027 14.6664 62.6664V35.9998C14.6664 35.4603 14.341 34.9739 13.8424 34.7678Z" fill="#9A95F3"/>
<path opacity="0.8" d="M24.9438 24.3894C24.4231 23.8689 23.5791 23.8689 23.0584 24.3894L17.725 29.7228C17.4741 29.9729 17.3331 30.3125 17.333 30.6668V62.6668C17.333 63.4031 17.93 64.0001 18.6664 64.0001H29.333C30.0694 64.0001 30.6664 63.4031 30.6664 62.6668V30.6668C30.667 30.3129 30.527 29.9733 30.277 29.7228L24.9438 24.3894Z" fill="#9A95F3"/>
<path d="M40.9438 19.0559C40.4231 18.5354 39.5791 18.5354 39.0584 19.0559L33.725 24.3893C33.4741 24.6394 33.3331 24.979 33.333 25.3333V62.6667C33.333 63.403 33.93 64 34.6664 64H45.333C46.0694 64 46.6664 63.403 46.6664 62.6667V25.3333C46.667 24.9794 46.527 24.6398 46.277 24.3893L40.9438 19.0559Z" fill="#9A95F3"/>
<path d="M62.2771 16.3895L59.6105 13.7229C59.36 13.473 59.0204 13.3329 58.6665 13.3335H55.9998C55.6459 13.3329 55.3063 13.4729 55.0558 13.7229L49.7224 19.0562C49.4725 19.3067 49.3324 19.6464 49.333 20.0002V62.6669C49.333 63.4032 49.93 64.0002 50.6664 64.0002H61.333C62.0694 64.0002 62.6664 63.4032 62.6664 62.6669V17.3335C62.667 16.9796 62.527 16.64 62.2771 16.3895Z" fill="#5D55FF"/>
<path d="M61.3339 2.37436e-06H53.3339C52.5976 -0.00137263 51.9996 0.594627 51.9982 1.331C51.9976 1.686 52.1386 2.02663 52.3899 2.27738L55.4486 5.33338L45.3339 15.448L40.9446 11.056C40.4239 10.5355 39.5799 10.5355 39.0592 11.056L29.3338 20.7814L24.9444 16.3894C24.4238 15.8689 23.5798 15.8689 23.0591 16.3894L8.00056 31.448L3.61119 27.056C3.08156 26.5444 2.23744 26.5591 1.72581 27.0888C1.22681 27.6055 1.22681 28.4246 1.72581 28.9413L7.05919 34.2746C7.57981 34.7951 8.42381 34.7951 8.94456 34.2746L24.0006 19.2186L28.3899 23.608C28.9106 24.1285 29.7546 24.1285 30.2753 23.608L40.0006 13.8854L44.3899 18.2748C44.9106 18.7953 45.7546 18.7953 46.2753 18.2748L57.3339 7.21875L60.3899 10.2748C60.6401 10.5256 60.9797 10.6666 61.3339 10.6668C61.5088 10.6671 61.6819 10.6326 61.8433 10.5654C62.3419 10.3593 62.6672 9.873 62.6673 9.33338V1.33338C62.6672 0.597002 62.0703 2.37436e-06 61.3339 2.37436e-06Z" fill="#FF8662"/>
</g>
<defs>
<clipPath id="clip0">
<rect width="64" height="64" fill="white"/>
</clipPath>
</defs>
</svg>
