<svg width="64" height="64" viewBox="0 0 64 64" fill="none" xmlns="http://www.w3.org/2000/svg">
<g clip-path="url(#clip0)">
<path d="M42.1043 6.85098C42.0004 6.77173 41.0384 6.05611 39.3248 5.36748C37.1171 4.48023 34.584 4.01123 31.9994 4.01123C29.4148 4.01123 26.8818 4.48023 24.6739 5.36748C22.9604 6.05611 21.9984 6.77173 21.8944 6.85111C21.3727 7.24898 21.0664 7.86761 21.0664 8.52373V11.8239L23.1698 12.9489L25.2733 11.8239V9.71486C26.4277 9.12573 28.7362 8.21798 31.9993 8.21798C35.2625 8.21798 37.5709 9.12573 38.7253 9.71486V11.8237L40.8286 12.9487L42.9321 11.8237V8.52373C42.9324 7.86748 42.6261 7.24886 42.1043 6.85098Z" fill="#FF8662"/>
<path d="M21.0664 11.8237V14.1462L23.1699 15.2712L25.2734 14.1462V11.8237H21.0664Z" fill="#FF8662"/>
<path d="M42.9325 11.8237H38.7256V14.1462L40.8291 15.2712L42.9325 14.1462V11.8237Z" fill="#FF8662"/>
<path d="M1.65625 37.2856V55.9721C1.65625 58.1905 3.45463 59.9889 5.673 59.9889H58.3277C60.5461 59.9889 62.3445 58.1905 62.3445 55.9721V37.2856H1.65625Z" fill="#5D55FF"/>
<path d="M1.65625 34.9635V37.2861C4.99325 39.9356 13.8127 45.079 32.0004 45.079C50.188 45.079 59.0075 39.9356 62.3445 37.286V34.9634H1.65625V34.9635Z" fill="#9A95F3"/>
<path d="M1.4815 33.626C4.67963 36.2297 13.4869 41.559 32 41.559C50.5131 41.559 59.3203 36.2297 62.5185 33.626C63.456 32.8627 64 30.594 64 29.3851V18.1632C64 15.9449 62.2016 14.1465 59.9832 14.1465H4.01675C1.79837 14.1465 0 15.9449 0 18.1632V29.3851C0 30.594 0.544 32.8627 1.4815 33.626Z" fill="#9A95F3"/>
<path d="M62.5185 32.5006C59.3204 35.1044 50.5131 40.4336 32 40.4336C13.4869 40.4336 4.67975 35.1043 1.4815 32.5006C0.544 31.7374 0 30.5936 0 29.3848V31.7074C0 32.9163 0.544 34.06 1.4815 34.8233C4.67963 37.427 13.4869 42.7563 32 42.7563C50.5131 42.7563 59.3203 37.427 62.5185 34.8233C63.456 34.06 64 32.9163 64 31.7074V29.3848C64 30.5936 63.456 31.7374 62.5185 32.5006Z" fill="#5D55FF"/>
<path d="M31.9998 46.6219C34.0778 46.6219 35.7623 45.0789 35.7623 41.7344V39.4531C35.7623 38.7136 35.1628 38.1143 34.4234 38.1143H29.5762C28.8367 38.1143 28.2373 38.7138 28.2373 39.4531V41.7348C28.2372 45.0789 29.9218 46.6219 31.9998 46.6219Z" fill="#FF8662"/>
<path d="M31.9998 45.4969C29.9218 45.4969 28.2373 43.8124 28.2373 41.7344V44.057C28.2373 46.135 29.9218 47.8195 31.9998 47.8195C34.0778 47.8195 35.7623 46.135 35.7623 44.057V41.7344C35.7623 43.8123 34.0778 45.4969 31.9998 45.4969Z" fill="#FF8662"/>
</g>
<defs>
<clipPath id="clip0">
<rect width="64" height="64" fill="white"/>
</clipPath>
</defs>
</svg>
