<svg width="34" height="34" viewBox="0 0 34 34" fill="none" xmlns="http://www.w3.org/2000/svg">
<path d="M23.1833 18.1834C24.8173 16.8978 26.01 15.1349 26.5954 13.1399C27.1808 11.145 27.1299 9.01715 26.4496 7.05249C25.7694 5.08783 24.4938 3.38403 22.8001 2.17814C21.1065 0.972243 19.0791 0.324219 17 0.324219C14.9209 0.324219 12.8935 0.972243 11.1999 2.17814C9.50624 3.38403 8.23057 5.08783 7.55035 7.05249C6.87013 9.01715 6.81918 11.145 7.4046 13.1399C7.99001 15.1349 9.18267 16.8978 10.8167 18.1834C8.01679 19.3051 5.57381 21.1656 3.74815 23.5666C1.92249 25.9675 0.782599 28.8189 0.449994 31.8167C0.425919 32.0356 0.445189 32.2571 0.506704 32.4685C0.568218 32.6799 0.670773 32.8771 0.808514 33.0489C1.08669 33.3959 1.4913 33.6181 1.93333 33.6667C2.37536 33.7153 2.81859 33.5864 3.16554 33.3082C3.51248 33.03 3.7347 32.6254 3.78333 32.1834C4.1493 28.9254 5.70281 25.9164 8.14703 23.7314C10.5912 21.5463 13.7548 20.3384 17.0333 20.3384C20.3118 20.3384 23.4754 21.5463 25.9196 23.7314C28.3638 25.9164 29.9174 28.9254 30.2833 32.1834C30.3286 32.5929 30.5241 32.9711 30.8318 33.2451C31.1396 33.519 31.538 33.6692 31.95 33.6667H32.1333C32.5702 33.6164 32.9695 33.3955 33.2443 33.0521C33.519 32.7087 33.6469 32.2706 33.6 31.8334C33.2658 28.8271 32.1198 25.9684 30.2847 23.5637C28.4497 21.1591 25.9948 19.2992 23.1833 18.1834ZM17 17C15.6815 17 14.3925 16.6091 13.2962 15.8765C12.1999 15.144 11.3454 14.1028 10.8408 12.8846C10.3362 11.6664 10.2042 10.326 10.4614 9.03278C10.7187 7.73957 11.3536 6.55168 12.2859 5.61933C13.2183 4.68698 14.4062 4.05205 15.6994 3.79481C16.9926 3.53758 18.333 3.6696 19.5512 4.17418C20.7694 4.67877 21.8106 5.53325 22.5431 6.62958C23.2757 7.7259 23.6667 9.01484 23.6667 10.3334C23.6667 12.1015 22.9643 13.7972 21.714 15.0474C20.4638 16.2977 18.7681 17 17 17Z" fill="#FF8662"/>
</svg>
