<svg width="36" height="36" viewBox="0 0 36 36" fill="none" xmlns="http://www.w3.org/2000/svg">
<path fill-rule="evenodd" clip-rule="evenodd" d="M17.9213 0C21.4658 0 24.9307 1.05106 27.8777 3.02028C30.8249 4.98949 33.1219 7.7884 34.4783 11.0631C35.8347 14.3378 36.1897 17.9412 35.4981 21.4175C34.8066 24.8939 33.0999 28.0872 30.5935 30.5935C28.0872 33.0999 24.8939 34.8066 21.4175 35.4981C17.9412 36.1897 14.3378 35.8347 11.0631 34.4783C7.7884 33.1219 4.98949 30.8249 3.02028 27.8777C1.05106 24.9307 0 21.4658 0 17.9213C0.02072 13.1747 1.9155 8.6283 5.27191 5.27191C8.6283 1.9155 13.1747 0.02072 17.9213 0ZM17.9213 2.25C14.8313 2.25667 11.8126 3.17862 9.2463 4.89945C6.6799 6.6203 4.6808 9.0629 3.50142 11.9188C2.32203 14.7748 2.0152 17.9162 2.61965 20.9465C3.2241 23.9767 4.71275 26.7599 6.8977 28.9449C9.0826 31.1298 11.8658 32.6184 14.896 33.2228C17.9263 33.8273 21.0676 33.5205 23.9237 32.3411C26.7796 31.1617 29.2222 29.1627 30.943 26.5962C32.6639 24.0299 33.5859 21.0112 33.5925 17.9213C33.5836 13.7698 31.929 9.7913 28.9913 6.8578C26.0537 3.9244 22.0727 2.27547 17.9213 2.2725V2.25ZM7.4588 9.5062C8.507 8.2012 9.7888 7.1026 11.2387 6.2663L15.1875 17.145H20.745L24.6713 6.3113C26.0231 7.1059 27.226 8.1299 28.2263 9.3375L22.6013 24.0525L20.5087 18.7425H15.12L13.0612 24.0525L7.4588 9.5062ZM30.4875 13.1625C31.6317 16.2416 31.6142 19.6324 30.4379 22.6995C29.2616 25.7665 27.0073 28.2995 24.0975 29.8238L30.4875 13.1625ZM21.3075 30.915C19.0134 31.5033 16.6056 31.4839 14.3212 30.8588V30.5775L17.7863 21.5775L21.24 30.5775L21.3075 30.915ZM11.475 29.6775C9.3629 28.5249 7.5998 26.8253 6.3707 24.7569C5.14147 22.6884 4.49145 20.3274 4.48875 17.9213C4.47693 16.3879 4.7359 14.8645 5.25375 13.4213L11.475 29.6775ZM17.9213 4.48875C19.0791 4.48625 20.2324 4.63373 21.3525 4.9275L17.9775 14.31L14.6025 4.91625C15.6862 4.6341 16.8014 4.49046 17.9213 4.48875Z" fill="#6A6F73"/>
</svg>
