<svg width="41" height="32" viewBox="0 0 41 32" fill="none" xmlns="http://www.w3.org/2000/svg">
<path d="M0 3.00949V28.9905C0 30.6457 1.2334 32 2.74086 32H38.1091C39.6166 32 40.85 30.6458 40.85 28.9905C40.85 28.0623 40.85 3.94099 40.85 3.00949C40.85 1.35428 39.6166 0 38.1091 0H2.74086C1.2334 0 0 1.35428 0 3.00949H0Z" fill="#9A95F3"/>
<path d="M2.83676 28.9905V3.00949C2.83676 1.35428 4.07008 0 5.57762 0H2.74086C1.2334 0 0 1.35428 0 3.00949V28.9905C0 30.6457 1.2334 32 2.74086 32H5.57762C4.07008 31.9999 2.83676 30.6457 2.83676 28.9905Z" fill="#9A95F3"/>
<path d="M2.67285 3.00958V28.9905C2.67285 29.0249 2.70995 29.0658 2.74131 29.0658H35.7045C35.7358 29.0658 35.773 29.0249 35.773 28.9905V3.00958C35.773 2.97506 35.7359 2.93433 35.7045 2.93433C35.2354 2.93433 3.31927 2.93433 2.74131 2.93433C2.71003 2.93433 2.67285 2.97515 2.67285 3.00958Z" fill="#FF8662"/>
<path d="M5.50961 28.9905V3.00958C5.50961 2.97506 5.54671 2.93433 5.57807 2.93433C3.89987 2.93433 2.84224 2.93433 2.74131 2.93433C2.70995 2.93433 2.67285 2.97515 2.67285 3.00958V28.9905C2.67285 29.0249 2.70995 29.0658 2.74131 29.0658H5.57807C5.54679 29.0658 5.50961 29.0249 5.50961 28.9905Z" fill="#FF8662"/>
<path d="M19.1403 7.65845C16.1774 7.65845 13.7532 10.3202 13.7532 13.5735C13.7532 16.8268 16.1774 19.4886 19.1403 19.4886C22.1032 19.4886 24.5274 16.8268 24.5274 13.5735C24.5274 10.3202 22.1032 7.65845 19.1403 7.65845Z" fill="#F5F5FF"/>
<path d="M17.6162 13.5734C17.6162 11.0668 19.0559 8.91286 21.0718 8.05547C20.4713 7.8001 19.8203 7.65845 19.1403 7.65845C16.1774 7.65845 13.7532 10.3202 13.7532 13.5735C13.7532 16.8268 16.1774 19.4886 19.1403 19.4886C19.8203 19.4886 20.4713 19.3469 21.0718 19.0916C19.0559 18.2341 17.6162 16.0801 17.6162 13.5734Z" fill="#F5F5FF"/>
<path d="M21.3989 13.0444L18.3368 11.0192C17.9619 10.7713 17.4841 11.0677 17.4841 11.5482V15.5986C17.4841 16.0792 17.962 16.3756 18.3368 16.1277L21.3989 14.1025C21.762 13.8624 21.762 13.2845 21.3989 13.0444Z" fill="#FF8662"/>
<path d="M25.2783 23.0911H7.05882C6.42333 23.0911 5.90808 23.6567 5.90808 24.3546C5.90808 25.0524 6.42325 25.6181 7.05882 25.6181H25.2783V23.0911Z" fill="#DFEBFA"/>
<path d="M31.223 23.0911H25.2777V25.618H31.223C31.8585 25.618 32.3737 25.0524 32.3737 24.3545C32.3736 23.6567 31.8585 23.0911 31.223 23.0911Z" fill="#9A95F3"/>
<path d="M25.2793 26.9867C24.9388 26.9867 24.6628 26.6836 24.6628 26.3098V22.4141C24.6628 22.0403 24.9388 21.7373 25.2793 21.7373C25.6197 21.7373 25.8957 22.0403 25.8957 22.4141V26.3098C25.8958 26.6836 25.6197 26.9867 25.2793 26.9867Z" fill="#9A95F3"/>
<path d="M38.0401 17.2596C37.6997 17.2596 37.4237 16.9565 37.4237 16.5827V15.4171C37.4237 15.0433 37.6997 14.7402 38.0401 14.7402C38.3806 14.7402 38.6565 15.0433 38.6565 15.4171V16.5827C38.6565 16.9565 38.3806 17.2596 38.0401 17.2596Z" fill="#9A95F3"/>
</svg>
